<?xml version="1.0" encoding="UTF-8"?>
<!DOCTYPE svg PUBLIC "-//W3C//DTD SVG 1.1//EN" "http://www.w3.org/Graphics/SVG/1.1/DTD/svg11.dtd">
<!-- Creator: CorelDRAW X7 -->
<svg xmlns="http://www.w3.org/2000/svg" xml:space="preserve" width="8.93956in" height="7.85591in" version="1.1" style="shape-rendering:geometricPrecision; text-rendering:geometricPrecision; image-rendering:optimizeQuality; fill-rule:evenodd; clip-rule:evenodd"
viewBox="0 0 8940 7856"
 xmlns:xlink="http://www.w3.org/1999/xlink">
 <defs>
  <style type="text/css">
   <![CDATA[
    .fil2 {fill:none}
    .fil3 {fill:#1B1D4E}
    .fil4 {fill:#71D9FC}
    .fil5 {fill:#7268FD}
    .fil6 {fill:#A2FFC8}
    .fil7 {fill:#F9E95E}
    .fil0 {fill:white}
    .fil1 {fill:#1B1D4E;fill-rule:nonzero}
    .fil8 {fill:#F9E95E;fill-rule:nonzero}
   ]]>
  </style>
    <clipPath id="id0">
     <path d="M4980 678c-232,-222 -666,-70 -688,377 -17,345 318,483 730,403 695,-136 1384,1379 1805,1265 302,-83 894,-392 984,-1154 35,-300 -73,-595 -538,-694 252,-502 -917,-1501 -2293,-197z"/>
    </clipPath>
    <clipPath id="id1">
     <path d="M4785 2173l167 88 61 396c65,421 411,375 723,363 320,983 708,1169 1220,1052 364,-83 461,-486 237,-733 -113,-123 -450,-477 -455,-1089 102,1 471,-276 227,-597 -90,-119 -343,-141 -409,256 -164,-222 -574,-934 -684,-1045 -353,298 -652,450 -850,594 5,154 -174,548 -237,715z"/>
    </clipPath>
    <clipPath id="id2">
     <path d="M5878 3712c412,-51 696,502 1480,-177 -12,59 -17,461 -44,949 -208,-342 -190,-316 -312,-323 -463,-29 -884,364 -820,620 247,997 358,1450 512,1868 -225,123 -503,143 -700,-22 -77,-65 -116,-2398 -116,-2915z"/>
    </clipPath>
    <clipPath id="id3">
     <path d="M1213 3899l-196 1888 1940 194 1671 -1758 -290 -1603 -1526 -13 -1599 1292z"/>
    </clipPath>
    <clipPath id="id4">
     <path d="M1017 5787l1907 1905c156,156 197,166 308,58l3133 -3029c82,-78 21,-179 -38,-234l-1989 -1867 -204 1834 -608 -34c-340,-19 -404,165 -401,434l6 470 -2114 463z"/>
    </clipPath>
    <clipPath id="id5">
     <path d="M5256 3203c-171,67 -324,98 -350,202 -53,214 -18,453 129,545 90,57 537,-8 702,-8l618 571c35,41 96,124 10,208 189,-187 529,-509 637,-560 -130,-185 -325,-459 -653,-634 -508,-272 -913,-369 -1093,-324z"/>
    </clipPath>
    <clipPath id="id6">
     <path d="M2675 2378c136,-131 -123,-185 -8,-370l127 -105c38,-33 -96,-359 -170,-353 -90,8 -138,145 -55,356 -22,-16 -762,157 -854,583 -25,140 -71,883 960,-111z"/>
    </clipPath>
 </defs>
 <g id="Layer_x0020_1">
  <metadata id="CorelCorpID_0Corel-Layer"/>
  <g id="_1738472487136">
   <path class="fil0" d="M3483 1349c189,-117 613,-13 722,346l-932 738c-131,71 -382,-593 210,-1084z"/>
   <path class="fil1" d="M3465 1320c23,-13 47,-24 74,-33 96,-29 219,-23 336,20 117,43 228,124 302,243 25,41 46,85 61,135 4,14 -1,29 -12,37l-932 738c-1,1 -3,2 -5,3l0 0c-30,16 -62,11 -93,-12 -29,-21 -56,-60 -77,-112 -21,-49 -36,-112 -43,-182 -21,-232 55,-560 385,-834 2,-1 3,-2 4,-3l0 0zm94 32c-20,7 -39,15 -56,25 -308,256 -379,560 -359,774 6,63 20,118 38,162 16,41 36,70 55,84 7,6 14,8 18,7l911 -721c-13,-35 -28,-68 -47,-97 -65,-105 -164,-176 -268,-215 -103,-38 -210,-44 -292,-19z"/>
   <path class="fil0" d="M8488 3972c304,429 392,1394 417,2129 16,483 -325,1269 -643,1422 -590,284 -1033,-41 -1329,-379 -375,155 -3498,604 -3847,289 -926,-835 559,-1982 1140,-2629 383,-427 1301,-1206 1996,-1326 668,-115 1839,-106 2266,494z"/>
   <path class="fil2" d="M3086 7433c-926,-835 559,-1982 1140,-2629 383,-427 1301,-1206 1996,-1326 668,-115 1839,-106 2266,494 304,429 392,1394 417,2129 16,483 -325,1269 -643,1422 -590,284 -1033,-41 -1329,-379"/>
   <path class="fil1" d="M3109 7408c14,13 15,34 3,48 -13,14 -35,15 -48,3 -626,-565 -197,-1257 341,-1855 151,-166 310,-326 457,-473 128,-128 246,-246 339,-350 222,-248 623,-613 1056,-901 321,-213 660,-384 959,-435 388,-67 943,-93 1427,13 362,79 685,231 872,495 156,219 256,572 320,963 63,389 92,815 104,1184 8,251 -77,579 -205,862 -125,277 -293,513 -458,592 -304,147 -572,136 -801,44 -228,-90 -417,-259 -567,-431 -13,-14 -11,-36 3,-48 14,-13 36,-11 48,3 145,165 325,328 541,413 213,85 462,95 747,-42 149,-72 306,-295 425,-559 125,-274 207,-592 199,-832 -12,-366 -40,-790 -103,-1175 -63,-382 -159,-725 -308,-935 -176,-247 -484,-392 -832,-468 -474,-103 -1019,-78 -1400,-12 -289,50 -620,217 -933,425 -429,285 -824,645 -1044,890 -95,106 -213,224 -340,352 -146,146 -305,304 -455,471 -516,572 -929,1233 -347,1758z"/>
   <path class="fil0" d="M4980 678c-232,-222 -666,-70 -688,377 -17,345 318,483 730,403 695,-136 1384,1379 1805,1265 302,-83 894,-392 984,-1154 35,-300 -73,-595 -538,-694 252,-502 -917,-1501 -2293,-197z"/>
   <g style="clip-path:url(#id0)">
    <g>
     <path id="1" class="fil3" d="M4893 871c-232,-222 -666,-70 -688,377 -17,346 318,483 730,403 695,-136 1384,1380 1805,1265 302,-82 894,-392 984,-1153 35,-301 -73,-596 -538,-695 252,-502 -917,-1501 -2293,-197z"/>
    </g>
   </g>
   <path class="fil2" d="M4980 678c-232,-222 -666,-70 -688,377 -17,345 318,483 730,403 695,-136 1384,1379 1805,1265 302,-83 894,-392 984,-1154 35,-300 -73,-595 -538,-694 252,-502 -917,-1501 -2293,-197z"/>
   <path class="fil1" d="M4957 702c-60,-57 -136,-87 -213,-91 -51,-2 -103,7 -153,27 -50,20 -96,51 -136,93 -72,75 -122,184 -129,325 -2,36 1,69 7,100l0 0c17,90 67,158 139,206 74,50 173,77 287,83 79,4 166,-3 257,-21 404,-79 795,363 1139,751 263,296 496,560 663,515 175,-48 449,-173 661,-422 146,-171 262,-400 298,-702 18,-156 -3,-310 -98,-431 -79,-102 -210,-184 -414,-227 -18,-4 -30,-22 -26,-40 1,-4 2,-7 4,-10 50,-102 36,-226 -30,-347 -58,-105 -156,-206 -285,-285 -131,-80 -293,-137 -479,-153 -398,-35 -904,117 -1445,629 -13,13 -34,13 -47,0zm-209 -159c83,4 164,33 232,89 549,-511 1066,-663 1474,-627 198,17 370,78 509,163 140,85 246,195 309,311 70,125 89,257 48,372 198,49 330,135 413,242 107,138 132,309 112,480 -38,318 -161,559 -314,739 -223,262 -512,393 -695,443 -208,57 -455,-222 -732,-535 -331,-374 -709,-801 -1075,-729 -96,19 -188,26 -273,22 -126,-7 -237,-38 -322,-94 -87,-58 -147,-141 -168,-250l0 0 0 0c-7,-36 -10,-74 -8,-116 8,-159 65,-283 147,-369 47,-49 102,-86 161,-109 58,-24 120,-35 182,-32z"/>
   <path class="fil0" d="M4785 2173l167 88 61 396c65,421 411,375 723,363 320,983 708,1169 1220,1052 364,-83 461,-486 237,-733 -113,-123 -450,-477 -455,-1089 102,1 471,-276 227,-597 -90,-119 -343,-141 -409,256 -164,-222 -574,-934 -684,-1045 -353,298 -652,450 -850,594 5,154 -174,548 -237,715z"/>
   <g style="clip-path:url(#id1)">
    <g>
     <path id="1" class="fil4" d="M4669 2270l167 88 61 395c66,422 411,376 723,364 320,982 708,1169 1220,1052 364,-84 461,-487 237,-733 -113,-123 -450,-477 -455,-1089 102,1 471,-276 227,-597 -75,-99 -195,-65 -293,159 -20,43 -65,70 -116,96 -164,-221 -574,-933 -684,-1045 -353,299 -652,451 -850,594 5,155 -174,549 -237,716z"/>
    </g>
   </g>
   <path class="fil2" d="M4785 2173l167 88 61 396c65,421 411,375 723,363 320,983 708,1169 1220,1052 364,-83 461,-486 237,-733 -113,-123 -450,-477 -455,-1089 102,1 471,-276 227,-597 -90,-119 -343,-141 -409,256 -164,-222 -574,-934 -684,-1045 -353,298 -652,450 -850,594 5,154 -174,548 -237,715z"/>
   <path class="fil1" d="M4827 2157l141 74c10,5 16,14 18,25l61 396c56,363 347,350 626,337l0 0c20,-1 40,-2 62,-3 15,-1 29,9 33,23l0 0c158,485 331,772 527,923 191,147 407,163 653,107 83,-19 150,-55 203,-103 53,-49 91,-110 111,-176 20,-67 22,-138 6,-207 -15,-68 -49,-134 -101,-191l-8 -9c0,-1 -1,-1 -2,-2 -123,-135 -448,-493 -453,-1100 0,-19 15,-34 34,-35l0 0c23,1 65,-19 112,-54 40,-30 81,-72 112,-121 30,-48 50,-104 51,-164 0,-63 -21,-132 -75,-203 -17,-22 -40,-40 -68,-51 -29,-12 -63,-16 -97,-7 -34,10 -68,32 -99,72 -37,48 -67,121 -85,226 -3,19 -20,31 -39,28 -9,-2 -17,-7 -22,-14 -75,-101 -196,-297 -319,-494 -135,-218 -272,-438 -340,-523 -228,190 -433,319 -602,426 -78,50 -149,94 -211,138 -6,135 -110,390 -185,575 -17,40 -32,77 -44,107zm94 126l-150 -79c-16,-7 -24,-26 -18,-43 14,-38 33,-85 55,-137 76,-187 183,-449 180,-564 -1,-11 4,-23 14,-30 66,-47 143,-96 229,-151 173,-109 384,-243 619,-441l0 0c14,-12 34,-11 47,2 63,64 217,312 370,559 100,160 199,320 272,426 20,-77 48,-135 81,-178 40,-53 88,-83 136,-96 48,-13 97,-9 140,9 38,15 72,41 96,73 65,85 90,168 89,244 -1,74 -26,142 -62,200 -36,57 -82,104 -128,139 -42,32 -85,53 -118,63 14,564 318,899 435,1026 0,1 1,2 1,2l9 9c60,66 99,143 117,222 18,81 15,164 -8,241 -23,78 -67,150 -131,207 -60,55 -138,98 -233,119 -265,61 -499,43 -710,-120 -203,-156 -381,-446 -541,-930l-35 2 0 0 -1 0c-309,14 -631,29 -696,-395l-59 -379z"/>
   <path class="fil0" d="M5878 3712c412,-51 696,502 1480,-177 -12,59 -17,461 -44,949 -208,-342 -190,-316 -312,-323 -463,-29 -884,364 -820,620 247,997 358,1450 512,1868 -225,123 -503,143 -700,-22 -77,-65 -116,-2398 -116,-2915z"/>
   <g style="clip-path:url(#id2)">
    <g>
     <path id="1" class="fil5" d="M5636 3712c413,-51 696,502 1480,-177 -11,59 -17,461 -44,949 40,1096 -193,1997 -620,2165 -225,123 -502,123 -700,-42 -77,-65 -116,-2378 -116,-2895z"/>
    </g>
   </g>
   <path class="fil2" d="M5878 3712c412,-51 696,502 1480,-177 -12,59 -17,461 -44,949 -208,-342 -190,-316 -312,-323 -463,-29 -884,364 -820,620 247,997 358,1450 512,1868 -225,123 -503,143 -700,-22 -77,-65 -116,-2398 -116,-2915z"/>
   <path class="fil2" d="M5994 6607c-77,-65 -116,-2378 -116,-2895 412,-51 696,502 1480,-177 -12,59 -17,461 -44,949 -208,-342 -190,-316 -312,-323 -463,-29 -884,364 -820,620 247,997 358,1450 512,1868"/>
   <path class="fil1" d="M6016 6581c14,12 16,34 4,48 -12,14 -33,16 -48,4 -38,-32 -65,-393 -84,-858 -29,-739 -44,-1745 -44,-2063 0,-18 14,-33 31,-34 137,-17 258,29 385,76 261,98 554,207 1076,-245 14,-12 35,-11 48,4 7,8 9,18 7,28l0 0c-5,27 -9,141 -15,308 -7,170 -15,394 -28,637 -1,19 -17,33 -36,32 -13,0 -23,-8 -28,-18l-9 -14c-94,-155 -139,-229 -172,-264 -23,-23 -42,-24 -78,-26 -9,0 -18,-1 -25,-1 -81,-5 -162,4 -238,22 -152,38 -288,117 -388,210 -97,91 -159,195 -164,287 -1,20 0,40 5,59l22 91c232,932 340,1369 489,1774 7,17 -3,37 -20,43 -18,7 -37,-2 -44,-20 -150,-407 -259,-845 -491,-1781l-22 -91c-7,-26 -9,-52 -7,-79 7,-109 76,-230 186,-333 107,-100 254,-185 418,-226 83,-20 170,-29 258,-24 10,1 17,1 24,1 54,3 82,4 124,47 31,32 68,90 134,198 10,-202 17,-384 22,-526 3,-98 6,-177 9,-234 -513,417 -812,305 -1080,205 -110,-41 -214,-80 -325,-75 1,350 16,1317 44,2030 18,447 39,791 60,808z"/>
   <path class="fil0" d="M7480 4837c80,-135 150,-275 180,-389l-212 -321 286 -40c-147,-284 -327,-804 -596,-811 39,63 71,230 72,377 2,171 0,398 -4,626 61,102 231,448 274,558z"/>
   <path class="fil1" d="M7485 4761c29,-52 56,-103 79,-153 25,-55 46,-107 59,-154l-203 -308c-11,-16 -6,-37 9,-47 5,-3 10,-5 14,-5l0 0 239 -34c-21,-43 -43,-91 -66,-141l0 0 -1 0c-114,-244 -251,-538 -420,-598 10,30 19,66 27,105 13,69 22,150 22,226 1,86 1,186 0,293 -1,104 -2,214 -4,325 32,54 88,163 141,273 39,79 77,159 104,218zm141 -125c-33,72 -74,146 -117,219l0 0c-4,6 -9,11 -17,14 -17,7 -37,-2 -44,-19 -21,-54 -73,-166 -128,-278 -55,-112 -112,-225 -143,-276l0 0c-3,-5 -5,-11 -5,-18 2,-114 4,-227 4,-333 1,-107 1,-206 0,-292 0,-72 -8,-148 -21,-215 -12,-62 -28,-114 -45,-142 -4,-6 -6,-13 -6,-21 0,-18 16,-33 35,-33 239,7 403,359 538,649l0 0c30,64 58,125 86,179 2,3 4,7 4,12 3,18 -10,36 -28,38l-233 33 183 276 0 0c5,8 7,18 4,27 -14,56 -38,117 -67,180z"/>
   <path class="fil0" d="M6000 4798c3,112 44,1890 -6,1809 -61,-99 -434,-1614 -443,-1709 -17,-181 448,-157 449,-100z"/>
   <path class="fil2" d="M6011 5356c9,552 16,1305 -17,1251 -33,-53 -156,-516 -264,-948"/>
   <path class="fil1" d="M5977 5357c0,-19 15,-34 34,-35 18,0 34,15 34,34 5,276 9,602 7,853 -1,165 -7,298 -22,373 -4,-50 -46,-232 -46,-373 2,-250 -2,-576 -7,-852zm53 1225c-1,5 -1,9 -2,13 3,2 3,-2 2,-13zm-2 13c-14,61 -34,77 -63,30 -16,-27 -51,-138 -94,-292 -51,-184 -115,-430 -174,-666 -5,-18 6,-36 25,-41 18,-4 36,7 41,25 59,237 123,483 174,664 41,148 73,253 86,274 2,3 3,5 5,6z"/>
   <polygon class="fil0" points="1213,3899 1017,5787 2957,5981 4628,4223 4338,2620 2812,2607 "/>
   <g style="clip-path:url(#id3)">
    <g>
     <polygon id="1" class="fil5" points="1329,4044 1133,5932 3073,6126 4744,4368 4454,2765 2928,2752 "/>
    </g>
   </g>
   <polygon class="fil2" points="1213,3899 1017,5787 2957,5981 4628,4223 4338,2620 2812,2607 "/>
   <polyline class="fil2" points="1131,4683 1017,5787 2957,5981 4628,4223 4338,2620 3977,2617 "/>
   <path class="fil1" d="M1098 4679c2,-18 18,-32 37,-30 19,2 32,19 30,37l-111 1071 1890 189 1648 -1734 -283 -1558 -332 -3c-19,0 -34,-15 -34,-34 0,-19 16,-34 34,-34l360 3c17,0 31,12 34,28l290 1601c3,11 0,22 -8,31l-1671 1759 0 0c-7,7 -17,11 -28,10l-1940 -194 -1 0c-18,-2 -32,-19 -30,-37l115 -1105z"/>
   <path class="fil0" d="M998 3345c-50,411 34,663 162,901 194,360 1307,1822 1525,1805l2112 -1995c-205,-42 -1702,-2033 -1314,-2707l-2485 1996z"/>
   <path class="fil2" d="M1517 2928l-519 417c-50,411 34,663 162,901 194,360 1307,1822 1525,1805l2112 -1995c-205,-42 -1702,-2033 -1314,-2707l-482 387"/>
   <path class="fil1" d="M1496 2901c15,-11 36,-9 48,6 12,14 9,36 -5,47l-509 409c-22,195 -14,353 16,490 30,141 82,261 144,377 112,208 535,788 911,1234 255,301 484,539 571,553l2067 -1953c-146,-103 -508,-545 -819,-1055 -326,-533 -599,-1144 -521,-1527 1,-9 3,-17 6,-26l-382 307c-15,11 -36,9 -48,-6 -12,-14 -10,-36 5,-47l482 -387 0 0c10,-9 26,-10 38,-3 16,9 22,30 13,46 -23,39 -38,82 -48,129 -74,364 194,957 513,1478 319,523 686,971 812,1043 6,3 10,5 13,6 7,1 14,5 19,10 13,14 12,36 -2,48l-2110 1994c-5,6 -13,10 -22,11 -104,8 -361,-249 -639,-577 -379,-449 -805,-1034 -919,-1246 -65,-121 -119,-247 -151,-395 -31,-147 -40,-317 -15,-526l1 0c1,-9 5,-17 12,-23l519 -417z"/>
   <path class="fil6" d="M2126 4698c46,82 792,1213 993,1034l1401 -1247c-158,-153 -863,-946 -974,-1099l-1420 1312z"/>
   <path class="fil1" d="M2170 4704c64,103 313,475 550,740 81,92 161,171 230,221 61,43 110,63 139,47 2,-2 5,-3 7,-6l1375 -1222c-97,-99 -302,-324 -498,-546 -182,-205 -357,-407 -431,-501l-1372 1267zm499 786c-261,-294 -538,-716 -572,-773 -8,-14 -6,-33 6,-44l1420 -1311c1,-1 2,-2 3,-3 16,-11 37,-8 48,7 53,74 247,298 449,527 214,241 438,487 520,567 1,1 2,2 3,3 12,14 11,35 -3,48l-1401 1246c-6,6 -13,10 -20,14 -56,31 -129,8 -211,-51 -74,-53 -158,-135 -242,-230z"/>
   <path class="fil0" d="M1017 5787l1907 1905c156,156 197,166 308,58l3133 -3029c82,-78 21,-179 -38,-234l-1989 -1867 -204 1834 -608 -34c-340,-19 -404,165 -401,434l6 470 -2114 463z"/>
   <g style="clip-path:url(#id4)">
    <g>
     <path id="1" class="fil6" d="M766 5787l1906 1905c157,156 198,166 309,58l3133 -3029c81,-78 20,-179 -38,-234l-1990 -1867 -203 1834 -608 -34c-340,-19 -404,165 -401,434l5 470 -2113 463z"/>
    </g>
   </g>
   <path class="fil2" d="M1017 5787l1907 1905c156,156 197,166 308,58l3133 -3029c82,-78 21,-179 -38,-234l-1989 -1867 -204 1834 -608 -34c-340,-19 -404,165 -401,434l6 470 -2114 463z"/>
   <path class="fil2" d="M4925 6114l1440 -1393c82,-78 21,-179 -38,-234l-1989 -1867 -204 1834 -608 -34c-340,-19 -404,165 -401,434l6 470 -2114 463 1907 1905c156,156 197,166 308,58m420 -405l814 -788"/>
   <path class="fil1" d="M4949 6138c-14,13 -35,13 -48,-1 -13,-13 -13,-35 1,-48l1440 -1392c1,-1 3,-3 4,-4l1 -1c24,-26 27,-56 20,-83 -8,-33 -30,-64 -54,-88 -3,-3 -6,-6 -9,-9l-1940 -1820 -196 1765c-2,19 -18,32 -37,31l-607 -34c-157,-9 -249,28 -300,96l0 0 0 0c-53,70 -66,176 -65,304l6 469c0,17 -12,31 -27,34l0 0 -2053 450 1863 1860c73,74 118,113 154,120 29,5 60,-16 107,-61 13,-13 35,-13 48,1 13,13 13,35 -1,48 -64,62 -110,90 -167,78 -52,-10 -106,-54 -189,-137l-1906 -1903c-5,-5 -9,-11 -10,-19 -4,-18 7,-36 26,-40l2086 -458 -5 -442c-1,-141 15,-261 79,-345l0 0c65,-87 175,-133 358,-123l576 32 200 -1801 0 0c1,-7 3,-14 9,-20 13,-14 34,-14 48,-1l1989 1866c4,4 8,8 12,12 30,31 59,73 71,117 13,49 6,101 -36,147l-1 1c-2,2 -4,4 -7,7l-1440 1392zm-1273 1231c-14,13 -35,13 -48,-1 -13,-13 -13,-35 0,-48l815 -787c13,-13 35,-13 48,1 13,13 12,35 -1,48l-814 787z"/>
   <circle class="fil6" cx="1886" cy="3801" r="345"/>
   <path class="fil1" d="M1886 3422c104,0 199,42 268,111 68,68 110,163 110,268 0,104 -42,199 -110,267 -69,69 -164,111 -268,111 -105,0 -199,-42 -268,-111 -68,-68 -111,-163 -111,-267 0,-105 43,-200 111,-268 69,-69 163,-111 268,-111zm219 159c-56,-56 -133,-91 -219,-91 -86,0 -164,35 -220,91 -56,56 -91,134 -91,220 0,85 35,163 91,219 56,56 134,91 220,91 86,0 163,-35 219,-91 57,-56 91,-134 91,-219 0,-86 -34,-164 -91,-220z"/>
   <path class="fil1" d="M1855 3598c39,0 75,16 100,41 1,1 2,2 2,2 25,26 40,60 40,98 0,40 -16,75 -42,101l0 0 0 0c-25,25 -61,41 -100,41 -39,0 -74,-16 -100,-41 -26,-26 -42,-61 -42,-101 0,-39 16,-74 42,-100l0 0 0 0c26,-25 61,-41 100,-41zm52 89c-13,-13 -31,-21 -52,-21 -20,0 -39,8 -52,21l0 0c-13,14 -21,32 -21,52 0,21 8,39 21,53 13,13 32,21 52,21 21,0 39,-8 52,-21l0 0c14,-14 22,-32 22,-53 0,-19 -8,-37 -20,-50l-2 -2z"/>
   <circle class="fil7" cx="2646" cy="4735" r="183"/>
   <path class="fil1" d="M2646 4518c60,0 114,24 153,63l0 0 0 0c40,39 64,94 64,154 0,60 -24,114 -64,153 0,1 -1,2 -2,2 -39,38 -92,62 -151,62 -60,0 -114,-24 -154,-64l0 0c-39,-39 -63,-93 -63,-153 0,-60 24,-115 63,-154 1,-1 2,-1 2,-2 39,-38 93,-61 152,-61zm105 111c-27,-27 -64,-43 -105,-43 -41,0 -77,16 -104,42l-2 1c-26,27 -43,65 -43,106 0,41 17,78 43,105l0 0 0 0c27,27 65,44 106,44 40,0 77,-16 104,-42 0,-1 1,-1 1,-2 27,-27 44,-64 44,-105 0,-41 -17,-79 -44,-106l0 0z"/>
   <path class="fil1" d="M2267 3361c-15,12 -36,9 -48,-5 -12,-15 -9,-36 5,-48l902 -724c15,-12 36,-10 48,5 12,14 9,36 -5,48l-902 724z"/>
   <path class="fil1" d="M3027 4310c-14,12 -36,10 -48,-5 -11,-14 -9,-36 6,-48l509 -408c15,-12 36,-10 48,5 11,14 9,36 -6,48l-509 408z"/>
   <path class="fil1" d="M3134 4447c-15,12 -36,10 -48,-5 -12,-15 -9,-36 5,-48l510 -409c14,-12 36,-9 47,5 12,15 10,36 -5,48l-509 409z"/>
   <path class="fil1" d="M2453 3570c-15,11 -36,9 -48,-6 -12,-14 -9,-36 5,-47l902 -725c15,-11 36,-9 48,6 12,14 9,36 -5,48l-902 724z"/>
   <path class="fil1" d="M1978 4114c13,13 13,35 0,48 -13,14 -35,14 -48,1l-9 -9 0 0 0 0 0 0 0 0c-1,-1 -2,-2 -2,-2 -28,-29 -45,-64 -49,-98 -5,-38 5,-75 31,-102l0 0 0 0 0 0 0 0c1,-1 1,-1 2,-2l143 -145c26,-27 63,-37 101,-33 35,4 71,21 101,50l3 2c13,14 13,35 0,49 -13,13 -34,13 -48,0l-3 -3c-18,-18 -40,-28 -61,-31 -18,-2 -34,3 -45,14l-143 145c0,1 -1,1 -2,2l0 0 0 0c-10,11 -14,27 -12,45 3,20 13,41 30,59 1,0 1,1 2,1l0 1 0 0 9 8z"/>
   <path class="fil0" d="M5022 1458c604,-46 1208,-37 1812,0 31,33 108,85 109,172 -109,-60 -226,-47 -271,13l-781 -13c-8,73 -30,209 -73,264 -221,47 -441,51 -662,16l-169 -283 35 -169z"/>
   <path class="fil1" d="M5020 1424c605,-46 1211,-37 1816,0 9,0 18,4 23,10l0 0c6,7 12,13 20,19 39,38 97,91 98,177 0,19 -15,34 -34,34 -6,0 -12,-1 -17,-4l0 0c-47,-26 -95,-37 -136,-35 -41,2 -74,16 -91,38 -7,10 -18,15 -30,14l-748 -12c-5,28 -12,126 -21,151 -13,36 -31,69 -55,99 -5,7 -12,11 -20,13l0 0c-112,23 -225,36 -337,39 -113,2 -225,-6 -338,-23 -8,-2 -16,-6 -21,-13l0 0 -169 -283c-7,-8 -9,-19 -6,-29l35 -168c3,-16 16,-26 31,-27l0 0zm1799 67c-589,-35 -1179,-44 -1769,-1l-27 128 151 260c104,16 208,23 312,21 104,-3 208,-14 313,-35 15,-22 28,-46 37,-71 11,-30 18,-133 21,-166l0 0c2,-17 16,-31 34,-31l766 13c30,-31 77,-49 130,-52 33,-1 68,3 105,14 -16,-28 -41,-50 -60,-68 -4,-4 -9,-9 -13,-12z"/>
   <path class="fil1" d="M5382 2342c-18,-4 -31,-21 -27,-40 3,-18 21,-30 39,-27 14,2 27,3 40,3 60,-2 108,-36 143,-76 36,-41 57,-88 62,-115 1,-4 1,-6 1,-8 0,-19 14,-35 33,-35 19,-1 35,14 35,32 1,7 0,15 -2,23 -6,37 -33,97 -78,148 -45,52 -110,96 -192,99 -17,0 -35,-1 -54,-4z"/>
   <path class="fil1" d="M5514 1339c-18,-3 -31,-20 -29,-38 3,-19 20,-32 38,-29 39,5 72,19 100,35 41,25 71,56 84,74 12,15 9,36 -6,48 -15,11 -36,8 -47,-6 -11,-14 -34,-38 -66,-57 -21,-13 -46,-23 -74,-27z"/>
   <path class="fil0" d="M5256 3203c-171,67 -324,98 -350,202 -53,214 -18,453 129,545 90,57 537,-8 702,-8l618 571c35,41 96,124 10,208 189,-187 529,-509 637,-560 -130,-185 -325,-459 -653,-634 -508,-272 -913,-369 -1093,-324z"/>
   <g style="clip-path:url(#id5)">
    <g>
     <path id="1" class="fil4" d="M5208 3358c-171,66 -324,98 -350,202 -53,213 -18,453 129,545 90,57 537,-8 702,-8l618 571c35,40 50,78 10,208 189,-187 529,-509 637,-560 -130,-185 -326,-459 -653,-634 -508,-272 -914,-369 -1093,-324z"/>
    </g>
   </g>
   <path class="fil2" d="M5256 3203c-171,67 -324,98 -350,202 -53,214 -18,453 129,545 90,57 537,-8 702,-8l618 571c35,41 96,124 10,208 189,-187 529,-509 637,-560 -130,-185 -325,-459 -653,-634 -508,-272 -913,-369 -1093,-324z"/>
   <path class="fil2" d="M5737 3942l618 571c35,41 96,124 10,208 189,-187 529,-509 637,-560 -130,-185 -325,-459 -653,-634 -508,-272 -913,-369 -1093,-324 -171,67 -324,98 -350,202"/>
   <g>
    <path class="fil1" d="M5714 3968c-14,-13 -15,-35 -2,-49 13,-13 34,-14 48,-2l618 571c2,2 4,3 5,5 19,23 45,58 56,100 0,2 1,5 1,7 97,-93 210,-200 310,-287 80,-71 152,-130 203,-163 -61,-85 -135,-187 -228,-286 -104,-112 -232,-222 -392,-307 -238,-128 -454,-216 -634,-270 -194,-57 -344,-73 -433,-51 -34,13 -65,24 -95,35 -119,42 -215,76 -232,142 -4,19 -23,30 -41,25 -18,-4 -29,-23 -25,-41 26,-101 137,-141 276,-191 30,-11 63,-22 93,-34 2,-1 4,-1 6,-2 100,-25 263,-9 471,52 183,55 403,145 646,275 168,90 301,204 410,320 107,115 188,230 254,323 1,2 3,4 4,6 8,17 1,38 -16,46 -42,20 -126,87 -222,172 -137,120 -297,273 -405,381l-1 1c-13,13 -35,12 -48,-1 -13,-13 -13,-35 0,-48l1 0c32,-32 37,-62 31,-88 -7,-28 -27,-54 -42,-72l-617 -569zm676 777l-1 0 1 0z"/>
   </g>
   <path class="fil1" d="M8078 6535c5,19 -7,37 -25,41 -18,4 -37,-7 -41,-25 -17,-71 -151,-570 -336,-1107 -102,-295 -218,-601 -338,-851 -44,-93 -89,-179 -135,-254l-1 -2c-41,-68 -81,-126 -122,-173 0,-1 -1,-2 -2,-3 -4,-2 -28,11 -65,33 -52,31 -118,82 -192,144 -197,166 -440,409 -584,569 19,114 83,360 162,642 105,373 236,808 327,1090 6,18 -4,37 -22,43 -17,5 -37,-4 -42,-22 -92,-284 -224,-721 -329,-1093 -83,-298 -150,-556 -166,-666l1 0c-2,-9 1,-19 8,-27 144,-162 397,-416 601,-588 76,-64 146,-117 201,-150 68,-41 121,-53 150,-22 2,3 4,5 6,8 42,49 84,110 127,180l1 2c45,76 92,163 137,259 122,255 239,563 341,859 186,539 322,1042 338,1113z"/>
   <path class="fil1" d="M4951 3792c2,18 -10,36 -29,38 -19,3 -36,-10 -39,-28 -1,-10 -2,-20 -3,-30 -8,-132 59,-249 148,-336 87,-86 198,-143 277,-155 6,-1 13,-2 19,-2 19,-1 35,13 36,32 2,18 -13,35 -32,36 -3,0 -8,1 -13,1 -67,10 -162,60 -240,136 -76,75 -134,174 -127,283 1,8 1,16 3,25z"/>
   <path class="fil1" d="M5111 3964c1,18 -14,34 -32,35 -19,1 -35,-14 -35,-33 -2,-31 0,-61 3,-89 14,-121 68,-217 139,-284 72,-68 162,-106 248,-109 17,-1 34,0 50,2 18,2 32,19 29,38 -2,18 -19,32 -37,30 -13,-2 -27,-3 -39,-2 -71,3 -145,34 -205,90 -60,57 -105,139 -117,243 -3,25 -5,52 -4,79z"/>
   <path class="fil1" d="M5356 3980c-6,18 -25,28 -43,22 -18,-6 -27,-26 -21,-43 27,-83 61,-149 111,-194 52,-47 119,-69 210,-62 19,2 33,18 32,37 -2,19 -18,33 -37,31 -71,-6 -122,11 -159,45 -40,35 -69,92 -93,164z"/>
   <path class="fil0" d="M2675 2378c136,-131 -123,-185 -8,-370l127 -105c38,-33 -96,-359 -170,-353 -90,8 -138,145 -55,356 -22,-16 -762,157 -854,583 -25,140 -71,883 960,-111z"/>
   <g style="clip-path:url(#id6)">
    <g id="_1738472492320">
     <path id="1" class="fil4" d="M2675 2552c136,-131 176,73 291,-112l-172 -363c38,-33 -96,-359 -170,-353 -90,8 -138,145 -55,356 -22,-16 -762,157 -854,583 -25,140 -71,883 960,-111z"/>
    </g>
   </g>
   <path class="fil2" d="M2675 2378c136,-131 -123,-185 -8,-370l127 -105c38,-33 -96,-359 -170,-353 -90,8 -138,145 -55,356 -22,-16 -762,157 -854,583 -25,140 -71,883 960,-111z"/>
   <path class="fil2" d="M2675 2378c136,-131 -123,-185 -8,-370l127 -105c38,-33 -96,-359 -170,-353 -90,8 -138,145 -55,356 -22,-16 -762,157 -854,583 -16,87 -40,409 195,398"/>
   <path class="fil1" d="M2698 2403c-13,13 -35,12 -48,-1 -13,-14 -13,-35 1,-48 47,-46 25,-81 0,-121 -39,-62 -82,-132 -13,-243 2,-4 5,-6 8,-9l-1 0 127 -104 0 0c2,-2 -5,1 -6,-4 -2,-31 -18,-83 -40,-134 -22,-52 -50,-104 -77,-134 -11,-13 -19,-21 -22,-21l-2 0c-5,1 -9,2 -13,3 -16,7 -30,22 -39,45 -11,27 -16,63 -12,108 4,44 17,96 40,154 7,17 -2,37 -19,44 -8,3 -16,3 -23,1 -20,-2 -145,26 -295,87 -155,64 -331,162 -435,300 -38,51 -67,107 -80,170l-1 0c-5,28 -10,80 -7,137 2,49 10,101 31,143 19,37 49,66 95,74 12,3 26,4 41,3 19,-1 35,13 36,32 0,19 -14,35 -33,36 -20,1 -39,-1 -57,-4 -70,-13 -114,-55 -142,-111 -26,-51 -37,-113 -39,-170 -3,-63 3,-120 9,-152 0,-1 0,-2 0,-2 16,-73 49,-139 93,-197 113,-149 300,-255 464,-321 115,-48 222,-76 284,-87 -16,-48 -26,-92 -29,-131 -5,-56 1,-103 16,-140 16,-40 43,-68 77,-82 10,-4 20,-6 31,-8 1,0 2,0 4,0 27,-2 54,15 79,45 31,36 63,94 87,151 25,58 43,117 46,155 2,26 -2,46 -15,59 -1,1 -2,2 -4,3l-122 101c-43,73 -12,123 16,167 40,65 76,122 -11,206z"/>
   <path class="fil1" d="M2346 2147c1,-19 18,-32 37,-31 18,2 32,19 30,38 -10,103 22,170 62,213 41,44 91,65 112,73 18,7 26,27 19,45 -7,17 -26,25 -44,19 -26,-11 -86,-36 -137,-90 -51,-56 -92,-140 -79,-267z"/>
   <path class="fil1" d="M2127 2241c4,-19 23,-30 41,-26 18,4 30,22 26,40 -18,82 -6,149 19,203 40,89 112,142 144,160 16,8 23,29 14,46 -9,16 -30,22 -46,13 -39,-20 -127,-85 -174,-191 -30,-66 -45,-148 -24,-245z"/>
   <path class="fil1" d="M1909 2396c0,-19 16,-34 35,-33 19,1 33,17 32,36 -9,229 83,315 129,358 34,31 54,50 31,85 -10,16 -31,20 -47,10 -16,-10 -20,-31 -10,-47 9,-13 -13,9 -20,2 -54,-50 -162,-150 -150,-411z"/>
   <circle class="fil3" cx="5327" cy="1651" r="48"/>
   <path class="fil1" d="M5327 1595c15,0 29,6 39,17l1 0 0 0c10,10 16,24 16,39 0,16 -6,30 -16,40 -11,10 -25,16 -40,16 -16,0 -30,-6 -40,-16l0 0 0 0 0 0c-10,-10 -16,-24 -16,-40 0,-15 6,-29 16,-39 10,-11 24,-17 40,-17zm28 29l-1 0c-7,-7 -16,-12 -27,-12 -11,0 -21,5 -28,12 -7,7 -11,16 -11,27 0,11 4,21 11,28l0 0 0 0c7,7 17,11 28,11 11,0 20,-4 27,-11 8,-7 12,-17 12,-28 0,-10 -4,-20 -11,-27l0 0z"/>
   <path class="fil1" d="M6845 1731c18,-5 36,7 40,25 5,18 -7,37 -25,41 -23,5 -51,32 -76,66 -29,39 -52,84 -56,117 -3,19 -20,32 -38,29 -19,-2 -32,-19 -30,-38 6,-44 34,-102 69,-149 34,-45 76,-82 116,-91z"/>
   <path class="fil1" d="M6883 2018c-3,19 -20,32 -39,29 -18,-2 -31,-20 -29,-38 7,-46 -4,-73 -20,-84 -5,-4 -10,-6 -15,-7 -5,-1 -10,-1 -14,1 -9,2 -15,8 -16,16 -3,19 -20,32 -38,29 -19,-2 -32,-19 -30,-38 5,-39 33,-64 67,-73 14,-4 29,-4 44,-2 14,3 29,9 42,19 34,24 59,73 48,148z"/>
   <line class="fil2" x1="626" y1="3337" x2="51" y2= "3239" />
   <path class="fil8" d="M634 3286c28,5 47,31 42,59 -5,28 -31,47 -59,42l-574 -98c-28,-4 -47,-31 -42,-58 4,-28 31,-47 58,-42l575 97z"/>
   <line class="fil2" x1="585" y1="3576" x2="59" y2= "3828" />
   <path class="fil8" d="M563 3530c25,-12 56,-1 68,24 12,26 1,56 -24,69l-526 251c-26,12 -56,1 -68,-24 -12,-26 -2,-56 24,-69l526 -251z"/>
   <line class="fil2" x1="649" y1="3132" x2="236" y2= "2720" />
   <path class="fil8" d="M685 3095c20,20 20,53 0,73 -20,20 -52,20 -72,0l-413 -411c-20,-20 -20,-53 -1,-73 20,-20 53,-20 73,0l413 411z"/>
   <path class="fil8" d="M748 3779c27,9 41,39 31,65 -10,27 -39,40 -65,31 -133,-49 -234,-146 -290,-265 -55,-119 -65,-259 -17,-392 32,-87 85,-160 151,-216 68,-57 150,-96 238,-113 28,-5 55,14 60,41 5,28 -14,55 -41,60 -71,13 -137,44 -191,90 -53,45 -95,103 -121,173 -38,106 -30,218 14,314 44,95 125,173 231,212z"/>
   <path class="fil1" d="M3091 4854c0,-18 15,-34 34,-34 19,0 34,15 34,34l30 2573c0,19 -15,34 -33,35 -19,0 -34,-15 -35,-34l-30 -2574z"/>
   <path class="fil1" d="M3828 4471c-19,-2 -33,-18 -32,-37 2,-18 18,-32 37,-31l2141 165c19,1 33,17 32,36 -2,19 -18,33 -37,32l-2141 -165z"/>
   <path class="fil1" d="M5736 3049c-19,0 -34,-15 -34,-34 0,-19 15,-34 34,-34 120,-1 246,-62 358,-141 181,-128 318,-297 324,-337 2,-18 19,-31 38,-29 19,3 32,20 29,39 -7,49 -157,244 -352,383 -121,86 -261,152 -397,153z"/>
  </g>
 </g>
</svg>
