<?xml version="1.0" encoding="UTF-8"?>
<!DOCTYPE svg PUBLIC "-//W3C//DTD SVG 1.1//EN" "http://www.w3.org/Graphics/SVG/1.1/DTD/svg11.dtd">
<!-- Creator: CorelDRAW X7 -->
<svg xmlns="http://www.w3.org/2000/svg" xml:space="preserve" width="9.32963in" height="7.48031in" version="1.1" style="shape-rendering:geometricPrecision; text-rendering:geometricPrecision; image-rendering:optimizeQuality; fill-rule:evenodd; clip-rule:evenodd"
viewBox="0 0 9330 7480"
 xmlns:xlink="http://www.w3.org/1999/xlink">
 <defs>
  <style type="text/css">
   <![CDATA[
    .str0 {stroke:#1B1D4E;stroke-width:27.7756;stroke-linecap:round;stroke-linejoin:round}
    .fil1 {fill:none}
    .fil5 {fill:#1B1D4E}
    .fil4 {fill:#71D9FC}
    .fil6 {fill:#7268FD}
    .fil0 {fill:#A2FFC8}
    .fil7 {fill:#F9E95E}
    .fil3 {fill:white}
    .fil2 {fill:#1B1D4E;fill-rule:nonzero}
   ]]>
  </style>
    <clipPath id="id0">
     <path d="M621 1398l1041 0 0 1156 -1041 0 0 -1156z"/>
    </clipPath>
    <clipPath id="id1">
     <path d="M3997 1047c-796,1117 56,1269 129,928 204,452 278,550 150,586 -52,62 -409,447 -496,653 -284,678 59,921 754,736 1262,-335 1956,112 3121,456 521,153 1238,307 1580,-647 373,-1043 -957,-1783 -2034,-2036 -431,-101 -888,-1093 -1442,-1480 -371,-258 -1167,-264 -1505,389 -204,81 -621,196 -760,520 -147,342 340,11 503,-105z"/>
    </clipPath>
    <clipPath id="id2">
     <path d="M5015 2698c42,136 53,398 72,503 -65,65 -128,147 -170,233l236 480c174,46 439,56 830,7 335,-42 446,-766 236,-1073 -106,-154 -157,-373 -205,-728 106,-42 174,-380 89,-495 -111,-149 -343,-174 -325,268 -162,-48 -277,-172 -280,-500 -93,194 -1212,-113 -1273,-372 11,192 -528,2080 790,1677z"/>
    </clipPath>
    <clipPath id="id3">
     <path d="M6261 3183c-176,502 -214,818 -446,1253 -21,39 -219,212 -250,229l-672 -1283c366,181 963,175 1368,-199z"/>
    </clipPath>
    <clipPath id="id4">
     <path d="M5800 4912l666 -908c17,-30 155,78 122,146l-530 726c-190,261 -302,95 -258,36z"/>
    </clipPath>
    <clipPath id="id5">
     <path d="M5724 4799c307,-123 469,-179 628,-89 202,114 342,317 587,621 -75,172 -464,671 -548,709 -88,-113 -201,-274 -279,-336 -42,-33 -234,-25 -290,-14 -295,60 -205,-533 -180,-773 7,-68 68,-113 82,-118z"/>
    </clipPath>
    <clipPath id="id6">
     <path d="M3564 4508c0,0 -73,8 -56,72l409 2187c24,46 34,60 62,68l2016 169c2,-1 28,-19 18,-51l-503 -2204c-36,-41 -71,-63 -102,-63l-1844 -178z"/>
    </clipPath>
    <clipPath id="id7">
     <path d="M2918 5707c35,-80 176,-455 212,-532 214,-220 531,-207 793,21 143,123 104,534 -53,740 -80,10 -123,-40 -174,-14 -89,118 -184,374 -282,684 -131,-104 -541,-509 -496,-899z"/>
    </clipPath>
    <clipPath id="id8">
     <path d="M1046 586l392 0 0 -98c0,-180 148,-327 328,-327l0 0c180,0 327,147 327,327l0 98 392 0 0 434 -1439 0 0 -434zm563 0l313 0 0 -83c0,-86 -70,-156 -156,-156l0 0c-86,0 -157,70 -157,156l0 83z"/>
    </clipPath>
    <clipPath id="id9">
     <path d="M132 301l375 0c56,0 101,46 101,102l0 0c0,56 -45,101 -101,101l-375 0c-56,0 -101,-45 -101,-101l0 0c0,-56 45,-102 101,-102z"/>
    </clipPath>
    <clipPath id="id10">
     <path d="M4120 4652l907 74c47,-5 -27,-208 -35,-237 -37,-30 -71,-46 -102,-46l-190 -14 6 -62c9,-104 -68,-197 -172,-207l0 0c-104,-10 -197,68 -207,172l-6 67 -221 -17c-98,-8 -115,139 -144,222 34,64 101,44 164,48zm407 -378l0 0c35,3 62,35 58,70l-3 32 -128 -12 3 -32c3,-35 35,-61 70,-58z"/>
    </clipPath>
 </defs>
 <g id="Layer_x0020_1">
  <metadata id="CorelCorpID_0Corel-Layer"/>
  <g id="_2049610654256">
   <rect class="fil0" x="163" y="747" width="3017" height="4195" rx="156" ry="154"/>
   <path class="fil1" d="M969 4942l-649 0c-86,0 -157,-70 -157,-156l0 -1619m0 -939l0 -1324c0,-86 71,-157 157,-157l405 0m2298 0c86,0 157,71 157,157l0 3882c0,86 -71,156 -157,156l-444 0"/>
   <path class="fil2" d="M969 4912c17,0 30,14 30,30 0,17 -13,31 -30,31l-649 0c-52,0 -99,-21 -133,-55 -33,-34 -54,-81 -54,-132l0 -1619c0,-17 13,-30 30,-30 17,0 31,13 31,30l0 1619c0,35 14,66 37,89 23,23 54,37 89,37l649 0zm-775 -2684c0,17 -14,30 -31,30 -17,0 -30,-13 -30,-30l0 -1324c0,-52 21,-99 54,-132 34,-34 81,-55 133,-55l405 0c17,0 30,13 30,30 0,17 -13,31 -30,31l-405 0c-35,0 -66,14 -89,37 -23,23 -37,54 -37,89l0 1324zm2829 -1450c-16,0 -30,-14 -30,-31 0,-17 14,-30 30,-30 52,0 99,21 133,55 33,33 54,80 54,132l0 3882c0,51 -21,98 -54,132 -34,34 -81,55 -133,55l-444 0c-17,0 -30,-14 -30,-31 0,-16 13,-30 30,-30l444 0c35,0 66,-14 89,-37 23,-23 37,-54 37,-89l0 -3882c0,-35 -14,-66 -37,-89 -23,-23 -54,-37 -89,-37z"/>
   <path class="fil3" d="M498 747l2535 0c81,0 147,66 147,147l0 3702c0,81 -66,147 -147,147l-2535 0c-81,0 -147,-66 -147,-147l0 -3702c0,-81 66,-147 147,-147z"/>
   <path class="fil1" d="M2665 747l368 0c81,0 147,66 147,147l0 3702c0,81 -66,147 -147,147l-2535 0c-81,0 -147,-66 -147,-147l0 -3702c0,-81 66,-147 147,-147l385 0"/>
   <path class="fil2" d="M2665 778c-17,0 -31,-14 -31,-31 0,-17 14,-30 31,-30l368 0c49,0 93,20 125,52l0 0 0 0c33,32 52,76 52,125l0 3702c0,49 -19,93 -52,126 0,0 -1,1 -1,1 -32,31 -76,51 -124,51l-2535 0c-49,0 -93,-20 -125,-52 -32,-33 -52,-77 -52,-126l0 -3702c0,-49 20,-93 52,-125 32,-32 76,-52 125,-52l385 0c17,0 31,13 31,30 0,17 -14,31 -31,31l-385 0c-32,0 -61,13 -82,34 -21,21 -34,50 -34,82l0 3702c0,32 13,61 34,82 21,21 50,34 82,34l2535 0c31,0 60,-12 81,-32l1 -2c21,-21 34,-50 34,-82l0 -3702c0,-32 -13,-61 -34,-82l0 0c-21,-21 -50,-34 -82,-34l-368 0z"/>
   <polygon class="fil3" points="621,1398 1662,1398 1662,2554 621,2554 "/>
   <g style="clip-path:url(#id0)">
    <g>
     <polygon id="1" class="fil4" points="725,1277 1766,1277 1766,2432 725,2432 "/>
    </g>
   </g>
   <polygon class="fil1" points="621,1398 1662,1398 1662,2554 621,2554 "/>
   <path class="fil1" d="M1662 2554l-401 0m-353 0l-287 0 0 -1156 1041 0 0 476"/>
   <path class="fil2" d="M1662 2523c17,0 31,14 31,31 0,17 -14,30 -31,30l-401 0c-16,0 -30,-13 -30,-30 0,-17 14,-31 30,-31l401 0zm-754 0c17,0 30,14 30,31 0,17 -13,30 -30,30l-287 0c-17,0 -31,-13 -31,-30l0 -1156c0,-17 14,-31 31,-31l1041 0c17,0 31,14 31,31l0 476c0,17 -14,31 -31,31 -17,0 -30,-14 -30,-31l0 -445 -981 0 0 1094 257 0z"/>
   <path class="fil3" d="M3997 1047c-796,1117 56,1269 129,928 204,452 278,550 150,586 -52,62 -409,447 -496,653 -284,678 59,921 754,736 1262,-335 1956,112 3121,456 521,153 1238,307 1580,-647 373,-1043 -957,-1783 -2034,-2036 -431,-101 -888,-1093 -1442,-1480 -371,-258 -1167,-264 -1505,389 -204,81 -621,196 -760,520 -147,342 340,11 503,-105z"/>
   <g style="clip-path:url(#id1)">
    <g>
     <path id="1" class="fil5" d="M3867 1221c-796,1116 56,1268 129,927 204,452 616,368 488,405 -52,62 -487,628 -574,835 -284,677 59,920 754,736 1262,-336 1696,112 2861,455 521,154 1718,39 1718,-646 0,-1109 -1095,-1784 -2172,-2037 -431,-101 -888,-1092 -1442,-1479 -371,-259 -1167,-265 -1505,389 -204,81 -621,195 -760,520 -147,341 340,11 503,-105z"/>
    </g>
   </g>
   <path class="fil1" d="M3997 1047c-796,1117 56,1269 129,928 204,452 278,550 150,586 -52,62 -409,447 -496,653 -284,678 59,921 754,736 1262,-335 1956,112 3121,456 521,153 1238,307 1580,-647 373,-1043 -957,-1783 -2034,-2036 -431,-101 -888,-1093 -1442,-1480 -371,-258 -1167,-264 -1505,389 -204,81 -621,196 -760,520 -147,342 340,11 503,-105z"/>
   <path class="fil2" d="M4022 1065c-308,432 -365,712 -317,874 19,67 57,112 103,138 44,26 96,34 144,25 69,-13 128,-60 144,-134 4,-16 20,-27 36,-23 10,2 18,9 22,17l0 0c34,75 63,138 89,194 59,128 99,215 117,275 26,93 7,133 -66,157 -8,9 -21,24 -37,42 -110,124 -377,425 -449,596 -66,159 -98,292 -97,401 0,103 29,183 83,240 55,57 136,93 240,106 131,17 297,-1 492,-52 1001,-266 1647,-45 2447,230 216,75 444,153 691,226 256,75 561,151 842,91 277,-60 534,-255 700,-719l0 0c15,-41 27,-82 36,-122 94,-399 -71,-750 -367,-1040 -301,-295 -737,-527 -1181,-686 -167,-60 -336,-110 -500,-148 -243,-57 -486,-375 -748,-717 -220,-287 -453,-592 -704,-768 -25,-17 -53,-33 -82,-48 -178,-93 -423,-134 -664,-93 -240,40 -478,163 -643,400 -25,37 -49,76 -72,119 -3,8 -10,13 -17,15 -29,12 -57,22 -87,33 -213,79 -539,199 -655,470 -50,116 9,117 95,79 121,-53 282,-163 362,-221 14,-9 33,-6 43,7 8,11 7,26 0,36zm-376 891c-47,-158 -5,-417 236,-793 -77,50 -165,103 -240,136 -162,71 -273,67 -176,-159 126,-295 467,-421 690,-503 29,-11 55,-21 77,-29 21,-41 45,-80 70,-116 176,-252 428,-382 683,-426 255,-43 513,1 702,99 31,16 61,34 89,54 259,181 495,489 717,779 255,334 492,643 714,695 165,39 336,89 507,150 451,162 895,399 1202,700 312,305 484,675 384,1098 -9,43 -22,85 -38,128l0 0 0 0c-175,489 -448,695 -745,759 -294,63 -608,-15 -871,-93 -251,-74 -478,-152 -694,-226 -791,-272 -1428,-491 -2412,-229 -202,53 -376,71 -514,54 -119,-16 -213,-57 -277,-125 -65,-69 -100,-163 -100,-282 -1,-117 32,-258 102,-425 75,-179 347,-486 459,-613 18,-20 32,-36 41,-46 4,-5 9,-9 16,-11 38,-11 48,-32 33,-84 -16,-56 -56,-141 -114,-267 -18,-39 -38,-82 -59,-129 -36,60 -97,97 -165,110 -61,11 -128,2 -186,-32 -58,-34 -106,-91 -131,-174z"/>
   <path class="fil3" d="M5087 3201c-875,95 -979,580 -1195,1069 -161,365 -337,1619 -352,1982 82,142 113,296 63,345 -198,195 -707,-440 -685,-890 -128,306 -221,565 -271,854 93,864 3378,443 4390,746 161,115 792,304 1115,-122 543,-713 749,-2465 -314,-3685 -215,-247 -1013,-534 -1591,-605 -385,-47 -921,40 -1160,306z"/>
   <path class="fil1" d="M7037 7307c161,115 792,304 1115,-122 543,-713 749,-2465 -314,-3685 -215,-247 -1013,-534 -1591,-605 -385,-47 -921,40 -1160,306 -875,95 -979,580 -1195,1069 -161,365 -337,1619 -352,1982 82,142 113,296 63,345 -198,195 -707,-440 -685,-890 -128,306 -221,565 -271,854"/>
   <path class="fil2" d="M7019 7332c-14,-10 -17,-29 -7,-42 10,-14 29,-17 42,-7 95,67 356,160 618,131 167,-18 335,-87 456,-247 297,-391 492,-1098 427,-1857 -52,-610 -271,-1252 -740,-1790 -101,-116 -339,-243 -623,-351 -302,-115 -654,-207 -949,-243 -203,-25 -450,-12 -670,46 -188,49 -357,131 -463,249 -5,6 -13,9 -20,10 -765,84 -927,473 -1104,897 -22,51 -43,103 -66,154 -67,153 -138,467 -198,805 -80,452 -141,945 -151,1158 41,72 69,147 81,211 13,71 5,131 -27,163 -25,24 -53,38 -84,43 -69,11 -150,-23 -232,-89 -77,-62 -155,-152 -223,-257 -93,-142 -167,-312 -191,-473 -42,106 -80,207 -113,307 -45,138 -80,273 -105,416 -3,17 -19,28 -36,25 -16,-3 -27,-18 -24,-35 25,-146 61,-284 107,-425 46,-141 102,-283 166,-436l0 0c5,-11 16,-19 30,-18 16,1 29,15 29,32 -9,183 74,399 188,574 64,99 138,185 210,243 69,54 134,84 185,75 18,-3 35,-11 50,-25 17,-17 19,-57 10,-109 -11,-60 -38,-131 -78,-200l0 0c-3,-4 -4,-10 -4,-16 8,-210 70,-714 152,-1174 61,-342 133,-661 202,-819 23,-52 44,-103 65,-153 184,-440 352,-843 1143,-933 115,-123 291,-208 485,-259 228,-60 483,-74 694,-48 299,37 656,131 962,247 293,111 540,244 648,368 478,549 702,1203 755,1825 66,774 -134,1497 -439,1899 -134,175 -316,251 -499,271 -278,30 -557,-70 -659,-143z"/>
   <path class="fil3" d="M5015 2698c42,136 53,398 72,503 -65,65 -128,147 -170,233l236 480c174,46 439,56 830,7 335,-42 446,-766 236,-1073 -106,-154 -157,-373 -205,-728 106,-42 174,-380 89,-495 -111,-149 -343,-174 -325,268 -162,-48 -277,-172 -280,-500 -93,194 -1212,-113 -1273,-372 11,192 -528,2080 790,1677z"/>
   <g style="clip-path:url(#id2)">
    <g>
     <path id="1" class="fil4" d="M4920 2820c42,136 53,397 72,502 -65,66 -128,148 -170,233l235 480c174,46 440,56 831,8 335,-42 420,-767 209,-1074 -105,-154 -183,-373 -230,-727 106,-43 225,-381 140,-496 -110,-149 -264,-382 -247,61 -161,-49 -239,70 -241,-259 -94,195 -1328,-182 -1390,-440 11,192 -527,2115 791,1712z"/>
    </g>
   </g>
   <path class="fil1" d="M5015 2698c42,136 53,398 72,503 -65,65 -128,147 -170,233l236 480c174,46 439,56 830,7 335,-42 446,-766 236,-1073 -106,-154 -157,-373 -205,-728 106,-42 174,-380 89,-495 -111,-149 -343,-174 -325,268 -162,-48 -277,-172 -280,-500 -93,194 -1212,-113 -1273,-372 11,192 -528,2080 790,1677z"/>
   <path class="fil2" d="M5045 2689c27,91 42,232 53,349 7,64 13,121 19,157 2,10 -1,20 -8,27l0 0c-33,34 -66,71 -94,111 -24,32 -46,66 -64,101l223 454c86,21 194,34 329,35 132,1 290,-9 477,-32 35,-5 68,-18 98,-39 82,-55 142,-163 178,-291 37,-131 49,-281 32,-418 -14,-107 -45,-205 -94,-278 -55,-80 -96,-176 -129,-298 -32,-119 -57,-264 -81,-443 -2,-14 6,-27 19,-32l0 0c4,-2 7,-4 11,-7 37,-27 68,-100 84,-183 1,0 1,-1 1,-2 16,-83 17,-172 -6,-230l-1 -1c-4,-10 -8,-19 -14,-26 -28,-38 -65,-67 -102,-79 -23,-8 -46,-8 -67,-1 -21,8 -41,25 -58,54 -30,53 -48,141 -43,275 1,17 -12,31 -29,32 -3,0 -7,0 -10,-1l0 0c-87,-27 -162,-73 -216,-159 -46,-71 -75,-170 -83,-306 -14,6 -29,11 -46,15 -97,24 -260,9 -435,-29 -173,-38 -359,-100 -507,-171 -101,-48 -185,-102 -236,-158 -4,31 -10,68 -17,108 -46,281 -128,784 -22,1131 88,286 309,465 800,315 16,-5 33,4 38,20zm-7 355c-11,-102 -23,-223 -44,-308 -514,147 -749,-52 -845,-365 -110,-360 -27,-871 20,-1157 15,-93 26,-162 25,-190 -1,-15 8,-29 24,-33 16,-3 32,7 36,23 16,65 117,138 254,204 143,69 325,129 494,166 167,36 320,51 408,30 32,-8 53,-19 60,-34 5,-10 16,-18 28,-18 17,0 31,14 31,30 1,159 29,267 75,340 37,58 86,94 142,118 0,-123 21,-208 52,-263 25,-42 56,-68 90,-81 34,-13 71,-12 107,0 49,16 96,53 132,101 9,11 16,25 22,39l0 2c28,69 28,171 10,264 0,1 0,2 -1,2 -19,96 -58,184 -108,220l-3 3c23,166 47,302 77,414 31,115 69,206 120,280 56,81 90,189 104,305 18,144 6,303 -33,441 -40,141 -108,261 -202,326 -38,26 -80,43 -126,48 -189,24 -349,34 -484,33 -148,-2 -265,-16 -358,-41l0 0c-8,-2 -16,-8 -20,-16l-234 -478c-5,-9 -6,-19 -1,-29 21,-42 47,-84 75,-123 28,-39 59,-75 90,-107 -6,-37 -12,-89 -17,-146z"/>
   <path class="fil3" d="M6261 3183c-176,502 -214,818 -446,1253 -21,39 -219,212 -250,229l-672 -1283c366,181 963,175 1368,-199z"/>
   <g style="clip-path:url(#id3)">
    <g>
     <path id="1" class="fil6" d="M6036 3183c-176,502 -369,1068 -532,1503 -180,479 -530,-1019 -760,-1499 366,180 887,370 1292,-4z"/>
    </g>
   </g>
   <path class="fil1" d="M6261 3183c-176,502 -214,818 -446,1253 -21,39 -219,212 -250,229l-672 -1283c366,181 963,175 1368,-199z"/>
   <path class="fil2" d="M6290 3193c-60,171 -104,321 -146,462 -79,271 -148,507 -302,795 -11,20 -56,66 -106,111 -64,58 -137,120 -156,131l-28 15 -14 -28 -672 -1282 41 -42c191,94 447,136 705,98 222,-32 446,-124 628,-293l50 33zm-204 445c33,-112 68,-231 111,-362 -175,133 -376,209 -576,238 -236,34 -471,5 -661,-69l615 1175c30,-24 77,-64 120,-104 46,-41 86,-81 93,-94 151,-283 219,-516 298,-784z"/>
   <circle class="fil0 str0" transform="matrix(2.85171 2.71742 -2.71742 2.85171 1120.58 1968.16)" r="83"/>
   <path class="fil2" d="M1369 1708c72,68 109,159 111,251 2,93 -30,185 -99,257 -69,72 -160,110 -252,112 -92,2 -185,-31 -257,-99 -71,-69 -109,-160 -111,-252 -2,-92 31,-185 99,-257 69,-72 160,-109 252,-111 92,-3 185,30 257,99zm46 253c-1,-75 -32,-150 -91,-206 -59,-57 -135,-84 -211,-82 -75,2 -150,33 -206,92 -56,59 -83,135 -81,210 2,76 32,150 91,207 59,56 135,83 211,81 75,-2 150,-32 206,-91 56,-59 83,-136 81,-211z"/>
   <path class="fil2" d="M1233 1808c26,26 40,60 41,95 0,1 0,2 0,3 0,33 -12,67 -37,93 -25,27 -60,41 -94,42l0 0 0 0c-35,0 -69,-12 -96,-38 -27,-25 -41,-59 -42,-94 -1,-34 11,-69 37,-96 26,-27 60,-41 94,-42l0 0 0 0c35,0 70,12 97,37zm-23 96c-1,-18 -8,-35 -22,-49 -14,-13 -32,-19 -50,-19l0 0c-18,0 -36,8 -49,22 -13,14 -20,32 -19,50 0,18 7,35 21,49 14,13 32,19 50,19l0 0c18,0 36,-8 49,-22 13,-13 20,-31 20,-48l0 -2z"/>
   <path class="fil2" d="M978 2244c1,18 -13,33 -31,33 -18,1 -33,-13 -33,-31l-1 -12 0 0 0 0 0 0 0 0c0,-1 0,-2 0,-3 0,-38 11,-73 31,-100 21,-29 52,-48 88,-49l0 0 0 0 0 0 0 0c1,0 2,0 2,0l194 -6c35,-1 68,15 91,43 22,26 36,61 37,101l0 4c1,18 -13,33 -31,33 -18,1 -33,-13 -33,-31l-1 -4c0,-24 -9,-46 -21,-61 -11,-13 -26,-21 -40,-21l-194 7c0,0 -1,0 -2,0l0 0 0 0c-15,0 -28,9 -38,23 -12,15 -18,36 -18,60 0,1 0,1 0,2l0 0 0 0 0 12z"/>
   <path class="fil1" d="M4701 2261c-72,-8 -132,-15 -158,-45 -8,-10 -13,-26 -15,-45l-22 -336"/>
   <path class="fil2" d="M4704 2231c17,2 29,17 27,33 -2,17 -17,29 -34,27 -36,-4 -70,-8 -99,-15 -34,-8 -60,-20 -78,-40 -7,-8 -12,-18 -16,-30 -3,-10 -5,-20 -7,-32 0,-1 0,-2 0,-2l-22 -335c-1,-17 12,-32 29,-33 17,-1 31,12 32,29l22 334c1,8 2,15 4,21 1,3 3,6 4,7 8,10 25,17 46,22 25,6 57,10 92,14z"/>
   <path class="fil2" d="M5928 1694c13,-11 32,-10 43,3 11,13 10,32 -3,43 -12,10 -21,36 -26,65 -5,34 -5,70 3,92 6,16 -2,34 -18,39 -16,6 -34,-2 -39,-18 -12,-32 -13,-79 -6,-123 7,-41 23,-81 46,-101z"/>
   <path class="fil2" d="M6059 1870c5,16 -3,34 -19,39 -16,6 -34,-3 -39,-19 -10,-29 -24,-42 -37,-44 -3,0 -6,0 -9,1 -3,1 -6,2 -7,4 -3,3 -5,6 -4,10 6,16 -2,33 -18,39 -16,5 -33,-3 -39,-19 -11,-29 -1,-57 20,-76 8,-7 19,-13 30,-17 11,-3 24,-4 36,-2 33,5 66,29 86,84z"/>
   <circle class="fil7" cx="6014" cy="2242" r="139"/>
   <path class="fil2" d="M6014 2072c47,0 90,19 120,50l0 0 0 0 1 0c30,31 49,74 49,120 0,47 -19,90 -50,121 0,0 -1,1 -1,1 -31,30 -73,48 -119,48 -47,0 -89,-19 -120,-49 -31,-31 -50,-74 -50,-121 0,-46 19,-89 50,-120l0 0c31,-31 73,-50 120,-50zm77 93c-19,-19 -47,-32 -77,-32 -30,0 -57,13 -77,32l0 0 0 0c-20,20 -32,47 -32,77 0,30 13,58 32,77 20,20 47,32 77,32 30,0 56,-11 76,-30l1 -2c20,-19 32,-47 32,-77 0,-30 -12,-57 -32,-77l0 0z"/>
   <ellipse class="fil7" cx="4666" cy="1871" rx="63" ry="88"/>
   <path class="fil2" d="M4666 1990c-28,0 -52,-15 -69,-39 -15,-21 -24,-49 -24,-80 0,-30 9,-59 24,-80 17,-24 41,-38 69,-38 28,0 52,14 70,38 14,21 24,50 24,80 0,31 -10,59 -24,80 -18,24 -42,39 -70,39zm-19 -74c5,8 12,13 19,13 7,0 14,-5 20,-13 8,-11 13,-27 13,-45 0,-18 -5,-33 -13,-44 -6,-8 -13,-13 -20,-13 -7,0 -14,5 -19,13 -8,11 -13,26 -13,44 0,18 5,34 13,45z"/>
   <ellipse class="fil7" cx="4443" cy="1894" rx="63" ry="88"/>
   <path class="fil2" d="M4443 2012c-28,0 -52,-15 -69,-39 -15,-20 -25,-49 -25,-79 0,-31 10,-59 25,-80 17,-24 41,-39 69,-39 28,0 52,15 69,39 15,21 24,49 24,80 0,30 -9,59 -24,79 -17,24 -41,39 -69,39zm-20 -74c6,8 13,13 20,13 7,0 14,-5 20,-13 7,-11 12,-27 12,-44 0,-18 -5,-34 -12,-45 -6,-8 -13,-13 -20,-13 -7,0 -14,5 -20,13 -8,11 -12,27 -12,45 0,17 4,33 12,44z"/>
   <path class="fil2" d="M4788 1525c-17,-1 -30,-15 -30,-31 0,-17 14,-30 31,-30 25,1 55,6 88,16 31,10 66,24 101,42 15,7 22,26 14,41 -7,15 -26,21 -41,13 -33,-16 -64,-29 -92,-37 -28,-9 -52,-14 -71,-14z"/>
   <path class="fil2" d="M4329 1567c11,-13 31,-13 43,-2 12,12 13,31 1,43 -13,15 -26,35 -40,61 -13,26 -26,57 -37,92 -5,16 -22,25 -38,20 -17,-5 -25,-23 -20,-39 12,-38 26,-72 41,-101 16,-31 33,-56 50,-74z"/>
   <path class="fil2" d="M4994 2251c-7,-15 1,-33 16,-39 16,-7 34,0 40,16 21,50 14,95 -7,129 -11,18 -25,32 -42,42 -17,11 -36,17 -56,18 -34,2 -70,-12 -97,-47 -10,-14 -7,-33 6,-43 14,-10 33,-8 43,6 13,17 30,24 45,23 10,-1 19,-4 27,-9 9,-5 16,-13 22,-22 12,-18 15,-44 3,-74z"/>
   <path class="fil3" d="M5079 3144c-39,392 395,1177 538,1521 -247,-119 -443,-398 -773,-507l137 -503 -308 -1 215 -420c58,-28 117,-98 191,-90z"/>
   <path class="fil1" d="M5229 4381c-112,-89 -235,-174 -385,-223l137 -503 -308 -1 215 -420c58,-28 117,-98 191,-90 -30,295 208,811 389,1195"/>
   <path class="fil2" d="M5248 4357c13,11 15,30 5,43 -11,13 -30,16 -43,5 -55,-44 -113,-86 -175,-124 -62,-38 -128,-71 -201,-95 -15,-5 -24,-21 -20,-36l0 0 127 -464 -268 -1c-17,0 -31,-14 -31,-31 0,-5 1,-10 4,-14l215 -420c3,-6 8,-10 14,-13l0 0c16,-8 34,-21 52,-33l0 0c45,-33 94,-67 155,-60 17,2 29,17 27,34l0 1c-14,141 38,339 114,548 79,214 183,438 273,629 7,15 0,33 -15,41 -15,7 -33,0 -41,-15 -90,-193 -195,-419 -274,-634 -74,-201 -124,-393 -120,-541 -28,7 -57,27 -84,46l0 0 0 0c-17,13 -34,24 -51,34l-189 367 259 1c3,0 6,0 8,1 16,4 26,21 22,37l-130 475c67,25 128,56 185,91 65,39 125,83 182,128z"/>
   <path class="fil3" d="M6219 2848c-22,478 -470,1230 -602,1817 398,-254 611,-606 939,-952l-234 -347 303 -10 -156 -360c-70,-164 -250,-148 -250,-148z"/>
   <path class="fil1" d="M5878 4465c247,-224 430,-490 678,-752l-234 -347 303 -10 -156 -360c-70,-164 -250,-148 -250,-148 -19,408 -347,1015 -526,1549"/>
   <path class="fil2" d="M5898 4487c-12,11 -31,10 -43,-2 -11,-12 -10,-32 3,-43 144,-131 268,-278 395,-430 84,-99 169,-200 264,-302l-220 -327c-10,-14 -6,-33 8,-43 5,-3 12,-5 18,-5l256 -8 -138 -319c-34,-79 -98,-111 -148,-123 -17,-4 -33,-6 -46,-6 -20,268 -162,611 -306,962 -78,190 -157,382 -219,565 -5,16 -22,25 -38,19 -16,-5 -25,-22 -19,-38 61,-185 141,-379 220,-569 147,-359 291,-710 303,-971l0 0c1,-11 7,-20 16,-26 1,0 19,-5 40,-4 16,1 38,3 63,9 64,15 146,56 190,158l156 360 0 0c1,3 2,7 2,11 1,17 -13,31 -29,31l-248 8 203 302 0 0c8,12 7,27 -3,38 -100,106 -190,213 -278,318 -129,153 -254,301 -402,435z"/>
   <path class="fil3" d="M5800 4912l666 -908c17,-30 155,78 122,146l-530 726c-190,261 -302,95 -258,36z"/>
   <g style="clip-path:url(#id4)">
    <g>
     <path id="1" class="fil0" d="M5922 4912l665 -908c17,-30 155,78 122,146l-529 726c-191,261 -302,95 -258,36z"/>
    </g>
   </g>
   <path class="fil1" d="M5800 4912l666 -908c17,-30 155,78 122,146l-530 726c-190,261 -302,95 -258,36z"/>
   <path class="fil1" d="M6064 4552l402 -548c17,-30 155,78 122,146l-281 389"/>
   <path class="fil2" d="M6089 4570c-10,13 -29,16 -43,6 -13,-10 -16,-29 -6,-42l401 -547c11,-18 30,-23 53,-16 11,3 23,9 36,18 12,7 24,17 35,28 41,39 74,97 50,147 -1,2 -2,4 -3,5l-281 388c-10,13 -29,17 -42,7 -14,-10 -17,-29 -7,-43l279 -386c8,-20 -14,-51 -38,-74 -9,-9 -18,-16 -27,-22 -4,-3 -9,-5 -13,-7l-394 538z"/>
   <path class="fil3" d="M5724 4799c307,-123 469,-179 628,-89 202,114 342,317 587,621 -75,172 -464,671 -548,709 -88,-113 -201,-274 -279,-336 -42,-33 -234,-25 -290,-14 -295,60 -205,-533 -180,-773 7,-68 68,-113 82,-118z"/>
   <g style="clip-path:url(#id5)">
    <g>
     <path id="1" class="fil4" d="M5672 4972c307,-123 469,-178 628,-88 202,114 342,316 587,621 -75,171 -464,670 -548,708 -88,-112 -201,-274 -279,-336 -42,-33 -234,-25 -290,-14 -295,60 -205,-532 -180,-772 7,-69 68,-113 82,-119z"/>
    </g>
   </g>
   <path class="fil1" d="M5724 4799c307,-123 469,-179 628,-89 202,114 342,317 587,621 -75,172 -464,671 -548,709 -88,-113 -201,-274 -279,-336 -42,-33 -234,-25 -290,-14 -295,60 -205,-533 -180,-773 7,-68 68,-113 82,-118z"/>
   <path class="fil2" d="M5713 4771c155,-63 274,-108 375,-126 106,-20 193,-10 279,39 176,99 304,261 489,494l0 0c34,43 70,89 107,134 7,10 8,23 3,33 -39,88 -152,252 -267,401 -122,158 -248,300 -295,321 -13,6 -28,2 -37,-9l0 0c-16,-21 -40,-52 -64,-84 -73,-96 -153,-201 -210,-246 -12,-9 -49,-14 -92,-16 -66,-4 -142,1 -173,8 -139,28 -206,-62 -233,-198 -33,-163 -7,-394 10,-547 2,-24 5,-46 6,-61 3,-31 16,-59 31,-81 25,-35 60,-58 71,-62zm386 -66c-96,17 -211,61 -364,122 -6,3 -26,17 -43,41 -10,15 -18,32 -20,52 -2,22 -4,41 -7,61 -16,150 -41,376 -10,529 20,102 67,169 161,150 35,-7 117,-13 188,-9 54,2 104,11 126,29 64,50 146,158 221,257 15,20 30,40 47,62 50,-41 152,-160 253,-290 106,-138 210,-288 252,-373 -34,-44 -65,-83 -95,-120l0 0 0 0c-181,-228 -306,-386 -471,-479 -73,-41 -146,-49 -238,-32z"/>
   <path class="fil2" d="M6113 4941c17,2 29,17 28,33 -2,17 -17,30 -33,28 -65,-5 -154,0 -230,17 -59,13 -109,33 -130,59 -11,13 -30,15 -43,4 -13,-11 -15,-30 -5,-43 31,-37 94,-63 165,-79 82,-19 178,-25 248,-19z"/>
   <path class="fil2" d="M6135 5134c16,4 27,20 24,36 -4,17 -20,28 -36,24 -57,-11 -156,-9 -244,8 -69,13 -129,34 -153,63 -10,13 -30,15 -43,4 -13,-11 -15,-30 -4,-43 34,-41 108,-69 188,-84 96,-18 204,-20 268,-8z"/>
   <path class="fil2" d="M6101 5323c17,1 29,16 28,33 -1,16 -15,29 -32,28 -65,-4 -151,2 -224,19 -57,13 -105,33 -125,57 -11,13 -30,15 -43,5 -13,-11 -15,-30 -5,-43 31,-37 90,-62 159,-78 79,-19 172,-25 242,-21z"/>
   <path class="fil3" d="M3710 4391c-41,1 -167,100 -193,139l547 2119c23,46 34,61 61,68l1870 287c40,-32 180,-117 165,-168l-503 -2205c-37,-40 -71,-63 -102,-63l-1845 -177z"/>
   <path class="fil1" d="M6160 6836l-503 -2205c-37,-40 -71,-63 -102,-63l-377 -36m-1293 -121l-175 -20"/>
   <path class="fil2" d="M6190 6829c4,17 -7,33 -23,37 -17,3 -33,-7 -37,-24l-501 -2196c-15,-16 -29,-28 -42,-36 -12,-7 -23,-11 -32,-11 -2,0 -4,0 -6,-1l-374 -36c-17,-1 -29,-16 -27,-33 1,-17 16,-29 33,-27l374 36c21,0 42,7 64,20 19,12 39,30 59,52 4,4 7,9 9,15l503 2204zm-2301 -2449c17,2 29,18 27,34 -2,17 -17,29 -34,27l-175 -20c-17,-2 -29,-17 -27,-34 2,-17 17,-29 34,-27l175 20z"/>
   <path class="fil3" d="M3564 4508c0,0 -73,8 -56,72l409 2187c24,46 34,60 62,68l2016 169c2,-1 28,-19 18,-51l-503 -2204c-36,-41 -71,-63 -102,-63l-1844 -178z"/>
   <g style="clip-path:url(#id6)">
    <g>
     <path id="1" class="fil0" d="M3703 4456c0,0 -74,8 -56,72l409 2187c23,46 34,60 61,67l2017 170c2,-1 27,-19 18,-51l-503 -2204c-36,-41 -71,-63 -102,-63l-1844 -178z"/>
    </g>
   </g>
   <path class="fil1" d="M3564 4508c0,0 -73,8 -56,72l409 2187c24,46 34,60 62,68l2016 169c2,-1 28,-19 18,-51l-503 -2204c-36,-41 -71,-63 -102,-63l-1844 -178z"/>
   <path class="fil1" d="M6013 6953l-503 -2204c-36,-41 -71,-63 -102,-63l-168 -17m-1403 -135l-273 -26c0,0 -73,8 -56,72l39 211m256 1365l114 611c24,46 34,60 62,68l321 26"/>
   <path class="fil2" d="M6043 6946c4,17 -6,33 -23,37 -16,4 -33,-7 -36,-23l-502 -2197c-14,-15 -29,-28 -42,-36 -11,-7 -22,-11 -32,-11 -2,0 -3,0 -5,0l-166 -16c-17,-2 -29,-17 -28,-34 2,-16 17,-29 34,-27l166 16c21,0 42,7 63,20 20,13 41,31 61,53l0 0c3,4 6,9 7,14l503 2204zm-2203 -2442c17,1 29,16 27,33 -1,17 -16,29 -33,28l-269 -26c-8,1 -34,8 -28,34 1,1 1,2 1,3l39 210c3,16 -8,32 -24,35 -17,4 -33,-7 -36,-24l-39 -210c-25,-97 82,-109 82,-109l0 0c2,-1 4,-1 7,0l273 26zm-67 1657c-3,-16 8,-32 24,-35 17,-3 33,8 36,24l113 607c10,18 17,31 23,38 4,5 9,7 15,9l318 27c17,1 29,16 28,33 -1,17 -16,29 -33,28l-321 -27 0 0c-2,0 -4,-1 -5,-1 -20,-5 -34,-13 -48,-29 -11,-13 -20,-29 -33,-55l0 0c-1,-2 -2,-5 -3,-8l-114 -611z"/>
   <path class="fil3" d="M2918 5707c35,-80 176,-455 212,-532 214,-220 531,-207 793,21 143,123 104,534 -53,740 -80,10 -123,-40 -174,-14 -89,118 -184,374 -282,684 -131,-104 -541,-509 -496,-899z"/>
   <g style="clip-path:url(#id7)">
    <g>
     <path id="1" class="fil4" d="M3005 5863c35,-80 175,-455 212,-532 214,-220 531,-207 793,21 143,123 103,534 -53,740 -80,10 -123,-40 -174,-14 -90,118 -184,374 -282,684 -131,-104 -541,-509 -496,-899z"/>
    </g>
   </g>
   <path class="fil1" d="M2918 5707c35,-80 176,-455 212,-532 214,-220 531,-207 793,21 143,123 104,534 -53,740 -80,10 -123,-40 -174,-14 -89,118 -184,374 -282,684 -131,-104 -541,-509 -496,-899z"/>
   <path class="fil1" d="M3870 5936c-80,10 -123,-40 -174,-14 -89,118 -184,374 -282,684 -131,-104 -541,-509 -496,-899 35,-80 176,-455 212,-532 214,-220 531,-207 793,21"/>
   <path class="fil2" d="M3866 5906c17,-2 32,10 34,26 3,17 -9,32 -26,34 -45,6 -78,-4 -107,-12 -19,-6 -37,-11 -51,-7 -42,57 -85,146 -129,256 -47,117 -95,257 -144,412 -5,16 -22,25 -38,20 -4,-1 -8,-4 -11,-6 -84,-67 -273,-248 -395,-470 -78,-141 -129,-299 -111,-455 0,-4 1,-7 3,-11 15,-35 50,-124 87,-220 50,-128 104,-267 125,-311 1,-3 3,-7 6,-9 113,-115 252,-170 398,-166 147,4 299,67 436,186 13,11 14,30 3,43 -11,12 -30,14 -43,3 -126,-110 -265,-167 -397,-171 -128,-3 -251,44 -350,145 -22,47 -74,180 -121,302 -37,94 -71,182 -87,220 -15,141 33,285 104,414 104,188 257,346 347,424 44,-138 88,-265 131,-372 48,-119 95,-214 141,-276 3,-4 7,-7 11,-10 38,-19 68,-10 103,0 23,7 50,15 81,11z"/>
   <path class="fil2" d="M7758 6422c10,13 8,32 -6,42 -13,11 -32,8 -42,-5 -25,-33 -111,-156 -219,-309 -190,-272 -447,-640 -546,-764 -73,141 -163,272 -256,389 -132,167 -271,306 -375,399 42,92 225,479 522,838 10,13 9,32 -4,43 -13,10 -33,9 -43,-4 -321,-389 -511,-808 -537,-866l0 0c-1,-1 1,1 0,0 -9,-13 -8,-31 4,-42 104,-91 248,-233 385,-406 100,-125 196,-267 270,-418 1,-3 4,-7 7,-10 12,-12 32,-11 43,1 66,70 366,498 580,805 106,151 191,273 217,307z"/>
   <path class="fil3" d="M1046 586l392 0 0 -98c0,-180 148,-327 328,-327l0 0c180,0 327,147 327,327l0 98 392 0 0 434 -1439 0 0 -434zm563 0l313 0 0 -83c0,-86 -70,-156 -156,-156l0 0c-86,0 -157,70 -157,156l0 83z"/>
   <g style="clip-path:url(#id8)">
    <g>
     <path id="1" class="fil6" d="M934 586l392 0 0 -98c0,-180 147,-327 327,-327l0 0c180,0 327,147 327,327l0 98 392 0 0 434 -1438 0 0 -434z"/>
    </g>
   </g>
   <path class="fil1" d="M1046 586l392 0 0 -98c0,-180 148,-327 328,-327l0 0c180,0 327,147 327,327l0 98 392 0 0 434 -1439 0 0 -434zm563 0l313 0 0 -83c0,-86 -70,-156 -156,-156l0 0c-86,0 -157,70 -157,156l0 83z"/>
   <path class="fil2" d="M2454 586c0,-17 14,-31 31,-31 17,0 31,14 31,31l0 434c0,17 -14,31 -31,31l-699 0c-17,0 -30,-14 -30,-31 0,-17 13,-31 30,-31l668 0 0 -403zm-1144 403c17,0 31,14 31,31 0,17 -14,31 -31,31l-264 0c-17,0 -30,-14 -30,-31l0 -434c0,-17 13,-31 30,-31l362 0 0 -67c0,-99 40,-188 105,-253 65,-65 154,-105 253,-105 98,0 188,40 252,105 65,65 105,154 105,253l0 98c0,17 -13,30 -30,30 -17,0 -31,-13 -31,-30l0 -98c0,-82 -33,-156 -87,-210 -54,-53 -128,-87 -209,-87 -82,0 -156,34 -210,87 -54,54 -87,128 -87,210l0 98c0,17 -14,30 -31,30l-361 0 0 373 233 0zm330 -434l251 0 0 -52c0,-35 -14,-66 -37,-89l0 0c-22,-23 -54,-37 -88,-37l0 0c-35,0 -66,14 -89,37 -23,23 -37,54 -37,89l0 52zm282 61l-313 0c-16,0 -30,-13 -30,-30l0 -83c0,-52 21,-98 55,-132 34,-34 80,-55 132,-55l0 0c51,0 98,21 132,55l0 0 0 0c33,34 55,80 55,132l0 83c0,17 -14,30 -31,30z"/>
   <path class="fil3" d="M132 301l375 0c56,0 101,46 101,102l0 0c0,56 -45,101 -101,101l-375 0c-56,0 -101,-45 -101,-101l0 0c0,-56 45,-102 101,-102z"/>
   <g style="clip-path:url(#id9)">
    <g>
     <rect class="fil0" x="100" y="388" width="578" height="203" rx="418" ry="104"/>
    </g>
   </g>
   <path class="fil1" d="M132 301l375 0c56,0 101,46 101,102l0 0c0,56 -45,101 -101,101l-375 0c-56,0 -101,-45 -101,-101l0 0c0,-56 45,-102 101,-102z"/>
   <path class="fil1" d="M31 403l0 0m476 -102c56,0 101,46 101,102l0 0c0,56 -45,101 -101,101l-375 0c-56,0 -101,-45 -101,-101"/>
   <path class="fil2" d="M0 403l0 0c0,-17 14,-31 31,-31 16,0 30,14 30,31l0 0c0,19 8,37 21,50 13,13 30,21 50,21l375 0c20,0 37,-8 50,-21 13,-13 21,-31 21,-50l0 0c0,-20 -8,-37 -21,-50l0 0c-13,-13 -30,-21 -50,-21 -17,0 -30,-14 -30,-31 0,-16 13,-30 30,-30 36,0 69,15 93,39l0 0 0 0c24,23 39,56 39,93l0 0c0,36 -15,69 -39,93l0 0c-24,24 -57,39 -93,39l-375 0c-36,0 -69,-15 -93,-39l0 0c-24,-24 -39,-57 -39,-93z"/>
   <rect class="fil0" x="462" width="531" height="126" rx="384" ry="65"/>
   <rect class="fil0" x="2103" y="5156" width="619" height="126" rx="448" ry="65"/>
   <path class="fil2" d="M1922 1429c-17,0 -31,-14 -31,-31 0,-17 14,-31 31,-31l989 0c17,0 30,14 30,31 0,17 -13,31 -30,31l-989 0z"/>
   <path class="fil2" d="M1922 1814c-17,0 -31,-14 -31,-31 0,-17 14,-30 31,-30l989 0c17,0 30,13 30,30 0,17 -13,31 -30,31l-989 0z"/>
   <path class="fil2" d="M621 2970c-17,0 -31,-14 -31,-31 0,-17 14,-31 31,-31l2290 0c17,0 30,14 30,31 0,17 -13,31 -30,31l-2290 0z"/>
   <path class="fil2" d="M1922 2199c-17,0 -31,-14 -31,-30 0,-17 14,-31 31,-31l989 0c17,0 30,14 30,31 0,16 -13,30 -30,30l-989 0z"/>
   <path class="fil2" d="M621 3355c-17,0 -31,-14 -31,-31 0,-17 14,-30 31,-30l2290 0c17,0 30,13 30,30 0,17 -13,31 -30,31l-2290 0z"/>
   <path class="fil2" d="M1922 2584c-17,0 -31,-13 -31,-30 0,-17 14,-31 31,-31l989 0c17,0 30,14 30,31 0,17 -13,30 -30,30l-989 0z"/>
   <path class="fil2" d="M621 3740c-17,0 -31,-14 -31,-30 0,-17 14,-31 31,-31l2290 0c17,0 30,14 30,31 0,16 -13,30 -30,30l-2290 0z"/>
   <circle class="fil5" cx="4902" cy="1779" r="44"/>
   <path class="fil2" d="M4902 1728c14,0 27,6 36,15 9,9 15,22 15,36 0,14 -6,27 -15,37 -9,9 -22,15 -36,15 -14,0 -27,-6 -36,-15 -10,-10 -16,-23 -16,-37 0,-14 6,-27 16,-36l0 0c9,-9 22,-15 36,-15zm25 26c-6,-7 -15,-11 -25,-11 -10,0 -19,4 -25,11l-1 0c-6,6 -10,15 -10,25 0,10 4,19 10,26 7,6 16,10 26,10 10,0 19,-4 25,-10 7,-7 11,-16 11,-26 0,-10 -4,-19 -11,-25z"/>
   <path class="fil5" d="M3540 6247c-43,110 -86,234 -126,359 73,37 141,39 189,-9 50,-49 19,-203 -63,-345 0,-2 0,-3 0,-5z"/>
   <path class="fil3" d="M4120 4652l907 74c47,-5 -27,-208 -35,-237 -37,-30 -71,-46 -102,-46l-190 -14 6 -62c9,-104 -68,-197 -172,-207l0 0c-104,-10 -197,68 -207,172l-6 67 -221 -17c-98,-8 -115,139 -144,222 34,64 101,44 164,48zm407 -378l0 0c35,3 62,35 58,70l-3 32 -128 -12 3 -32c3,-35 35,-61 70,-58z"/>
   <g style="clip-path:url(#id10)">
    <g>
     <path id="1" class="fil6" d="M4042 4548l855 74c46,-5 -9,-122 -18,-151 -36,-29 -71,-45 -102,-45l-147 -15 6 -61c10,-104 -76,-284 -180,-294l0 0c-104,-10 -197,68 -207,172l-6 67 -221 -17c-98,-8 -115,139 -144,222 34,64 101,44 164,48z"/>
    </g>
   </g>
   <path class="fil1" d="M4120 4652l907 74c47,-5 -27,-208 -35,-237 -37,-30 -71,-46 -102,-46l-190 -14 6 -62c9,-104 -68,-197 -172,-207l0 0c-104,-10 -197,68 -207,172l-6 67 -221 -17c-98,-8 -115,139 -144,222 34,64 101,44 164,48zm407 -378l0 0c35,3 62,35 58,70l-3 32 -128 -12 3 -32c3,-35 35,-61 70,-58z"/>
   <path class="fil2" d="M4122 4621l903 74c3,-1 -13,-7 -14,-17 -6,-49 -30,-124 -42,-161l-3 -10c-14,-11 -28,-19 -41,-25 -12,-5 -24,-8 -35,-8 -1,0 -2,0 -3,0l0 0 -189 -15c-17,-1 -30,-16 -29,-33 0,-1 1,-2 1,-2l5 -60c4,-43 -10,-85 -36,-116 -26,-31 -63,-53 -105,-57 -2,0 -3,0 -5,-1 -43,-3 -83,11 -114,37 -31,25 -53,63 -57,105 0,2 0,4 -1,5l-6 65c-1,17 -16,29 -32,28l0 0 -221 -17c-55,-5 -77,76 -96,145 -4,14 -8,28 -12,41 19,24 53,23 88,22 14,0 29,0 43,0l1 0 0 0zm903 136l-908 -75 0 0c-12,0 -25,0 -38,0 -59,1 -114,3 -150,-64l0 0c-3,-7 -4,-16 -2,-24 6,-15 11,-34 16,-52 25,-92 55,-198 159,-190l191 14 4 -37 0 0c6,-61 35,-113 79,-149 43,-36 101,-56 161,-50l0 0c61,6 113,35 149,79 36,43 56,101 50,161l-3 30 159 13 0 0c19,0 38,5 58,14 20,9 40,21 61,38l0 0c5,4 8,9 10,15 1,2 3,9 6,18 13,39 38,119 45,173 5,46 -4,80 -39,85 -3,1 -6,1 -8,1zm-499 -453c-1,0 -2,0 -4,0 -8,0 -16,3 -22,8 -7,6 -12,14 -13,23l0 1 68 7 0 -2 0 0c1,-9 -2,-18 -8,-25 -5,-6 -12,-10 -21,-12zm1 -61l0 0c2,0 4,0 6,1 25,3 46,16 61,34 15,18 24,41 22,66l0 0 0 0c0,2 0,4 -1,6l-2 29c-2,16 -17,29 -34,27l-128 -12c-17,-2 -29,-16 -27,-33l3 -32c2,-26 15,-49 34,-64 18,-15 41,-23 66,-22l0 0z"/>
   <path class="fil2" d="M3646 5295c-17,-2 -29,-17 -27,-33 2,-17 17,-29 34,-27 69,8 162,33 239,68 67,30 122,68 145,110 8,15 2,34 -13,42 -14,8 -33,2 -41,-13 -16,-29 -61,-59 -116,-84 -71,-32 -157,-55 -221,-63z"/>
   <path class="fil2" d="M3631 5483c-16,0 -30,-14 -30,-31 0,-17 14,-30 31,-30 64,0 155,22 233,58 69,31 130,73 155,121 8,15 2,33 -13,41 -15,8 -33,2 -41,-13 -18,-34 -68,-68 -126,-94 -71,-32 -152,-52 -209,-52z"/>
   <path class="fil2" d="M3622 5689c-16,-2 -28,-18 -26,-35 3,-16 18,-28 35,-26 69,10 145,30 207,59 55,26 100,60 122,101 8,15 2,34 -13,42 -15,7 -33,2 -41,-13 -16,-29 -51,-54 -94,-75 -56,-26 -126,-44 -190,-53z"/>
   <path class="fil2" d="M5384 2444c9,-14 27,-19 42,-11 14,9 19,27 11,42 -43,74 -184,152 -334,213 -184,73 -387,119 -442,94 -15,-7 -22,-25 -15,-40 7,-16 25,-22 41,-15 41,19 222,-28 393,-96 140,-56 269,-126 304,-187z"/>
   <path class="fil2" d="M4944 6943c-17,-1 -30,-16 -28,-33 1,-16 16,-29 32,-28l734 60c16,1 29,16 28,33 -2,16 -16,29 -33,28l-733 -60z"/>
  </g>
 </g>
</svg>
