<?xml version="1.0" encoding="UTF-8"?>
<!DOCTYPE svg PUBLIC "-//W3C//DTD SVG 1.1//EN" "http://www.w3.org/Graphics/SVG/1.1/DTD/svg11.dtd">
<!-- Creator: CorelDRAW X7 -->
<svg xmlns="http://www.w3.org/2000/svg" xml:space="preserve" width="6.36541in" height="7.48031in" version="1.1" style="shape-rendering:geometricPrecision; text-rendering:geometricPrecision; image-rendering:optimizeQuality; fill-rule:evenodd; clip-rule:evenodd"
viewBox="0 0 6365 7480"
 xmlns:xlink="http://www.w3.org/1999/xlink">
 <defs>
  <style type="text/css">
   <![CDATA[
    .str0 {stroke:#1B1D4E;stroke-width:27.7756;stroke-linecap:round;stroke-linejoin:round}
    .fil2 {fill:none}
    .fil5 {fill:#1B1D4E}
    .fil1 {fill:#71D9FC}
    .fil7 {fill:#7268FD}
    .fil4 {fill:#A2FFC8}
    .fil6 {fill:#F9E95E}
    .fil0 {fill:white}
    .fil3 {fill:#1B1D4E;fill-rule:nonzero}
   ]]>
  </style>
    <clipPath id="id0">
     <path d="M3029 1495c-16,591 -116,572 -175,1015 -66,497 484,412 811,435l-51 673c-62,90 -499,359 -464,538 107,535 1846,291 1731,-487 -33,-222 3,-851 -8,-1140 117,79 360,-63 384,-325 12,-140 -12,-233 -121,-264 -103,-570 -619,-982 -1228,-955 -171,8 -769,64 -879,510z"/>
    </clipPath>
    <clipPath id="id1">
     <path d="M5038 6897c-1046,683 -1412,402 -1545,157 -360,105 -1408,705 -2762,184 -617,-238 -705,-1322 -389,-1658 315,-334 1113,-1287 2289,-2147 258,-189 725,-93 983,-46 29,267 785,89 1253,-212 1591,-43 1350,1628 1394,2858 -553,367 -155,867 -1223,864z"/>
    </clipPath>
    <clipPath id="id2">
     <path d="M4261 1980c-138,640 -22,701 19,774 -1715,673 -1482,-320 -1316,-702 19,28 376,-126 407,-174 284,124 683,132 890,102z"/>
    </clipPath>
    <clipPath id="id3">
     <path d="M5135 1939c-152,-463 -607,-914 -1226,-861 -279,23 -799,124 -880,417 -33,41 -174,-73 -113,-203 -216,-413 63,-1186 838,-1251 354,-30 762,19 992,174 593,-26 1003,549 927,723 560,453 90,1198 -236,1024 64,114 -65,192 -177,140 -12,-83 -63,-141 -125,-163z"/>
    </clipPath>
    <clipPath id="id4">
     <path d="M5038 5662c700,-111 1036,239 1168,508 48,99 172,415 110,499 -33,76 -160,43 -329,17 -24,119 -68,244 -241,301 -159,53 -646,29 -650,-218 -6,-332 -48,-1052 -58,-1107z"/>
    </clipPath>
    <clipPath id="id5">
     <path d="M4456 2367c-55,219 -68,516 -49,749 -190,-106 -321,-185 -447,-121 -241,124 -626,653 -401,858 80,72 16,36 235,184l-17 468c287,61 833,137 1095,37 2,-6 2,-13 0,-20 0,-290 -83,-1986 -184,-2122 -126,-171 -228,-50 -232,-33z"/>
    </clipPath>
 </defs>
 <g id="Layer_x0020_1">
  <metadata id="CorelCorpID_0Corel-Layer"/>
  <g id="_2049610642992">
   <path class="fil0" d="M3029 1495c-16,591 -116,572 -175,1015 -66,497 484,412 811,435l-51 673c-62,90 -499,359 -464,538 107,535 1846,291 1731,-487 -33,-222 3,-851 -8,-1140 117,79 360,-63 384,-325 12,-140 -12,-233 -121,-264 -103,-570 -619,-982 -1228,-955 -171,8 -769,64 -879,510z"/>
   <g style="clip-path:url(#id0)">
    <g>
     <path id="1" class="fil1" d="M2899 1495c2,591 -88,628 -147,1071 -66,497 456,356 783,379l-51 673c-62,90 -499,359 -463,538 106,535 1846,291 1730,-487 -33,-222 4,-851 -8,-1140 117,79 360,-63 384,-325 12,-140 -12,-233 -120,-264 -104,-570 -620,-982 -1229,-955 -170,8 -769,64 -879,510z"/>
    </g>
   </g>
   <path class="fil2" d="M3029 1495c-16,591 -116,572 -175,1015 -66,497 484,412 811,435l-51 673c-62,90 -499,359 -464,538 107,535 1846,291 1731,-487 -33,-222 3,-851 -8,-1140 117,79 360,-63 384,-325 12,-140 -12,-233 -121,-264 -103,-570 -619,-982 -1228,-955 -171,8 -769,64 -879,510z"/>
   <path class="fil3" d="M3062 1500c-11,354 -51,491 -94,639 -28,97 -58,200 -82,375 -35,269 128,351 330,378 90,12 188,13 281,15 60,1 119,2 170,5 18,1 32,17 30,35l0 0 0 0 -51 673c0,7 -3,14 -7,19 -22,30 -76,74 -140,127 -141,116 -338,278 -317,383 32,160 234,244 486,258 120,7 251,-2 381,-26 129,-24 258,-62 373,-115 270,-124 466,-326 426,-592 -20,-136 -14,-417 -9,-684 3,-176 6,-345 2,-459 -1,-18 13,-33 31,-34 7,0 14,2 19,5l0 0c14,9 29,15 47,16 33,3 73,-7 112,-29l0 0c40,-24 79,-59 110,-105 33,-50 58,-112 64,-183 6,-65 4,-118 -12,-158 -15,-35 -41,-60 -85,-72 -13,-4 -22,-15 -23,-28 -51,-277 -203,-516 -416,-681 -212,-165 -484,-258 -778,-244 -84,3 -272,19 -453,88 -175,67 -343,185 -395,394zm-156 621c42,-144 81,-277 91,-625 0,-3 0,-6 1,-9 58,-236 243,-368 436,-442 189,-72 386,-89 473,-93 310,-13 598,84 821,258 221,172 380,418 437,705 53,20 87,55 107,104 20,50 24,113 17,188 -8,83 -36,155 -75,214 -37,54 -83,96 -132,124l0 0 0 0c-50,29 -103,42 -150,38 -9,-1 -17,-2 -25,-4 2,112 0,260 -3,412 -5,264 -10,542 9,673 45,301 -169,526 -464,661 -120,55 -254,96 -389,120 -134,25 -271,34 -395,27 -281,-16 -508,-116 -547,-310 -28,-144 186,-320 340,-446 56,-46 104,-86 124,-110l48 -631c-43,-2 -88,-2 -134,-3 -95,-2 -195,-3 -288,-16 -237,-31 -429,-129 -386,-450 24,-181 54,-285 84,-385z"/>
   <path class="fil0" d="M4198 1116c97,106 251,259 291,410 31,297 9,576 21,609 21,60 105,72 138,44l0 0c60,-99 161,-183 213,-218 58,-38 125,-41 180,-15 289,-127 -304,-1224 -782,-887 -31,21 -48,66 -61,57z"/>
   <path class="fil0" d="M5038 6897c-1046,683 -1412,402 -1545,157 -360,105 -1408,705 -2762,184 -617,-238 -705,-1322 -389,-1658 315,-334 1113,-1287 2289,-2147 258,-189 725,-93 983,-46 29,267 785,89 1253,-212 1591,-43 1350,1628 1394,2858 -553,367 -155,867 -1223,864z"/>
   <g style="clip-path:url(#id1)">
    <g>
     <path id="1" class="fil4" d="M4853 7045c-1046,684 -1412,403 -1545,157 -361,106 -1409,705 -2763,184 -617,-238 -705,-1321 -388,-1657 315,-335 1112,-1288 2288,-2147 259,-189 725,-93 983,-46 30,267 786,89 1253,-212 1592,-43 1350,1628 1394,2857 -552,367 -154,867 -1222,864z"/>
     <path class="fil0" d="M3493 7054c-198,-253 -88,-831 46,-1322 -622,-39 -1827,-79 -2338,255 615,-75 924,-116 2082,-74 -107,495 -73,774 8,1214 81,-32 149,-58 202,-73z"/>
    </g>
   </g>
   <path class="fil2" d="M5038 6897c-1046,683 -1412,402 -1545,157 -360,105 -1408,705 -2762,184 -617,-238 -705,-1322 -389,-1658 315,-334 1113,-1287 2289,-2147 258,-189 725,-93 983,-46 29,267 785,89 1253,-212 1591,-43 1350,1628 1394,2858 -553,367 -155,867 -1223,864z"/>
   <path class="fil2" d="M4689 7104c-782,409 -1079,166 -1196,-50m-940 312c-487,110 -1112,145 -1822,-128 -617,-238 -705,-1322 -389,-1658 315,-334 1113,-1287 2289,-2147 258,-189 725,-93 983,-46 29,267 785,89 1253,-212 1458,-39 1374,1249 1384,2411"/>
   <path class="fil3" d="M4674 7075c16,-9 36,-2 44,14 9,16 2,35 -14,44 -398,208 -675,250 -868,212 -199,-39 -309,-161 -372,-276 -8,-16 -2,-36 13,-44 16,-9 36,-3 45,13 55,101 152,209 326,243 181,36 443,-6 826,-206zm-2128 259c18,-4 35,7 39,25 4,17 -7,35 -25,39 -245,55 -526,92 -836,80 -309,-12 -646,-72 -1005,-210 -91,-35 -171,-87 -240,-152 -174,-165 -280,-411 -325,-662 -43,-252 -26,-510 48,-701 29,-77 69,-144 117,-195 45,-48 102,-111 168,-184 389,-428 1118,-1231 2124,-1967 260,-190 708,-107 976,-58l33 6c14,3 25,15 26,29l0 0c2,14 6,27 13,38 18,27 53,45 101,55 53,11 121,11 197,3 263,-29 625,-160 892,-332 6,-4 13,-5 19,-5 1214,-32 1383,830 1409,1790 4,149 5,301 5,452 0,67 1,134 1,200 0,18 -14,33 -32,33 -18,0 -33,-14 -33,-32 0,-66 -1,-134 -1,-201 0,-150 -1,-301 -5,-450 -25,-924 -186,-1754 -1335,-1727 -274,174 -644,307 -913,337 -83,9 -157,8 -217,-4 -65,-14 -115,-41 -143,-84 -8,-13 -14,-26 -18,-42l-10 -1c-258,-48 -689,-127 -926,46 -1001,731 -1727,1532 -2114,1958 -67,73 -123,135 -170,185 -42,45 -77,104 -104,173 -69,180 -85,426 -43,666 42,240 142,472 305,626 63,60 136,108 218,139 351,135 682,194 985,206 303,12 578,-24 819,-79z"/>
   <path class="fil0" d="M4765 4784c150,628 75,1463 127,2205 47,-28 96,-59 146,-92 41,0 79,0 116,-2 -36,-33 -57,-75 -58,-126 -2,-111 -8,-266 -16,-424 -15,-316 -36,-646 -42,-684 3,0 6,0 8,-1 -31,-452 -78,-935 -105,-925 -60,21 -118,37 -176,49z"/>
   <path class="fil5 str0" d="M4310 1116c97,106 250,259 291,410 30,297 8,576 20,609 22,60 106,72 139,44l0 0c59,-99 160,-183 212,-218 58,-38 125,-41 180,-15 289,-127 -304,-1224 -782,-887 -31,21 -48,66 -60,57z"/>
   <path class="fil0" d="M4261 1980c-138,640 -22,701 19,774 -1715,673 -1482,-320 -1316,-702 19,28 376,-126 407,-174 284,124 683,132 890,102z"/>
   <g style="clip-path:url(#id2)">
    <g>
     <path id="1" class="fil4" d="M4152 2064c-138,640 50,767 47,765 -1714,673 -1482,-291 -1316,-673 19,29 474,-151 505,-199 284,124 556,137 764,107z"/>
    </g>
   </g>
   <path class="fil2" d="M4261 1980c-138,640 -22,701 19,774 -1715,673 -1482,-320 -1316,-702 19,28 376,-126 407,-174 284,124 683,132 890,102z"/>
   <path class="fil3" d="M4293 1987c-119,553 -47,659 -3,723 7,10 13,19 18,28 9,16 3,36 -13,45 -1,0 -3,1 -5,2 -456,179 -777,241 -999,228 -181,-10 -298,-69 -372,-156 -73,-86 -101,-199 -102,-317 -1,-180 62,-374 117,-501 7,-17 26,-24 42,-17 3,1 5,2 8,4 7,1 67,-21 137,-50 79,-32 165,-74 206,-102 9,-7 15,-11 17,-14 9,-14 27,-18 42,-11 120,52 262,83 401,99 181,21 355,16 469,0 18,-3 35,10 37,27 1,4 1,8 0,12zm-63 751c-49,-72 -117,-200 -10,-720 -117,12 -276,14 -440,-5 -138,-16 -279,-46 -402,-96 -4,3 -9,7 -14,10 -45,31 -136,75 -218,109 -62,26 -122,45 -161,49 -50,121 -104,294 -103,455 1,103 25,201 87,275 62,73 165,124 325,133 208,12 509,-45 936,-210z"/>
   <path class="fil3" d="M4258 2013c-18,-2 -31,-18 -30,-36 2,-18 18,-31 36,-30 3,1 142,2 320,4 110,1 236,2 354,2 18,0 33,15 33,33 0,18 -15,32 -33,32 -119,0 -244,-1 -355,-2 -181,-1 -322,-3 -325,-3z"/>
   <path class="fil3" d="M4007 4751c10,-15 30,-19 45,-9 15,10 19,30 9,45 -27,40 -40,76 -43,108 -3,35 6,66 22,91 10,15 5,35 -10,45 -15,10 -35,5 -45,-10 -24,-37 -36,-81 -32,-131 4,-44 21,-90 54,-139z"/>
   <path class="fil3" d="M4315 4778c10,-15 30,-19 45,-9 15,10 19,30 9,45 -27,40 -40,76 -43,108 -3,35 5,66 22,91 10,15 5,35 -10,45 -15,10 -35,6 -45,-10 -24,-37 -36,-81 -32,-131 4,-43 21,-90 54,-139z"/>
   <path class="fil3" d="M4582 4789c7,-17 26,-24 42,-18 17,7 25,27 18,43 -18,44 -24,82 -21,115 4,34 18,63 39,84 13,13 12,34 -1,46 -13,13 -33,13 -46,0 -30,-32 -51,-73 -57,-123 -4,-43 3,-92 26,-147z"/>
   <path class="fil3" d="M3372 3602c0,18 -15,33 -33,33 -18,0 -33,-14 -33,-32 0,-157 87,-173 122,-179l5 -1c17,-5 35,6 39,23 5,18 -6,35 -23,40 -4,1 -6,1 -9,2 -20,3 -69,13 -68,114z"/>
   <path class="fil3" d="M3486 2263c17,-6 36,2 42,19 6,17 -2,36 -19,42 -55,21 -147,31 -232,30 -87,-2 -169,-15 -198,-41 -14,-12 -15,-32 -4,-46 12,-13 33,-15 46,-3 18,15 83,23 157,24 77,1 161,-7 208,-25z"/>
   <path class="fil3" d="M3435 2446c16,-8 35,-2 43,14 9,16 2,36 -14,44 -38,20 -135,38 -220,36 -67,-1 -130,-16 -158,-53 -11,-15 -8,-35 6,-46 14,-11 35,-8 46,6 14,19 58,27 108,28 74,2 157,-12 189,-29z"/>
   <path class="fil3" d="M3357 1549c-3,-17 8,-35 26,-38 17,-4 35,8 38,25 9,43 11,122 7,195 -3,68 -13,133 -28,162 -8,16 -28,23 -44,14 -16,-8 -22,-27 -14,-44 11,-21 18,-76 21,-136 4,-68 2,-140 -6,-178z"/>
   <path class="fil3" d="M4045 1547c12,13 11,34 -2,46 -13,12 -33,12 -46,-1 -41,-44 -78,-74 -115,-96 -37,-21 -74,-35 -117,-46 -18,-5 -28,-23 -24,-40 5,-18 23,-28 40,-23 49,12 91,28 134,53 42,25 84,59 130,107z"/>
   <path class="fil3" d="M3220 1451c18,-3 35,9 38,26 3,18 -9,35 -26,38 -18,3 -35,8 -53,16 -18,7 -36,17 -55,29 -15,10 -35,6 -45,-9 -10,-15 -6,-36 10,-45 21,-15 43,-26 65,-35 22,-10 44,-16 66,-20z"/>
   <path class="fil0" d="M5135 1939c-152,-463 -607,-914 -1226,-861 -279,23 -799,124 -880,417 -33,41 -174,-73 -113,-203 -216,-413 63,-1186 838,-1251 354,-30 762,19 992,174 593,-26 1003,549 927,723 560,453 90,1198 -236,1024 64,114 -65,192 -177,140 -12,-83 -63,-141 -125,-163z"/>
   <g style="clip-path:url(#id3)">
    <g>
     <path id="1" class="fil4" d="M4941 2062c-147,-468 -605,-927 -1230,-874 -190,16 -547,-40 -746,84 -93,58 -108,240 -133,334 -34,40 -174,-73 -113,-204 -217,-412 62,-1185 838,-1251 353,-29 761,19 991,174 594,-25 1003,549 928,723 560,453 89,1198 -237,1024 92,165 -215,253 -298,-10z"/>
    </g>
   </g>
   <path class="fil2" d="M5135 1939c-152,-463 -607,-914 -1226,-861 -279,23 -799,124 -880,417 -33,41 -174,-73 -113,-203 -216,-413 63,-1186 838,-1251 354,-30 762,19 992,174 593,-26 1003,549 927,723 560,453 90,1198 -236,1024 64,114 -65,192 -177,140 -12,-83 -63,-141 -125,-163z"/>
   <path class="fil3" d="M5103 1949c-79,-243 -244,-482 -474,-644 -196,-138 -439,-218 -717,-195 -162,14 -407,54 -596,143 -125,60 -225,141 -255,251 -2,4 -4,9 -7,12l0 0c-15,18 -36,24 -61,18 -16,-3 -34,-12 -51,-25 -15,-13 -30,-29 -43,-48 -28,-44 -43,-104 -19,-168 -36,-73 -57,-155 -65,-243 -13,-164 23,-346 110,-512 87,-165 224,-314 412,-412 119,-62 257,-104 415,-118 189,-16 393,-9 579,23 163,29 313,78 424,151 149,-5 286,27 407,79 165,72 301,184 396,297 97,116 153,236 157,322 1,16 -1,32 -4,47 218,185 277,415 248,615 -13,89 -42,171 -83,242 -42,71 -95,131 -153,172 -74,53 -157,76 -237,59 1,8 0,15 -1,23 -4,28 -17,52 -38,71 -19,18 -44,31 -72,37 -39,9 -85,6 -129,-14 -10,-5 -17,-15 -18,-25l0 0c-6,-35 -18,-64 -36,-87 -18,-24 -42,-41 -68,-50 -10,-4 -18,-12 -21,-21zm-436 -697c237,166 408,412 494,662 32,15 60,37 83,67 21,26 36,59 45,98 25,8 50,9 72,4 17,-4 31,-12 42,-21 9,-9 16,-21 18,-33 2,-15 -2,-32 -13,-51l0 0c-5,-10 -5,-21 0,-31 9,-16 28,-22 44,-14 74,40 159,23 233,-30 51,-36 97,-89 134,-152 37,-64 64,-138 76,-218 26,-185 -31,-399 -242,-570l0 0c-11,-9 -15,-24 -9,-38 4,-11 6,-26 6,-42 -3,-73 -54,-178 -142,-283 -90,-107 -217,-211 -372,-279 -115,-50 -246,-79 -387,-74 -7,1 -15,-1 -21,-5 -105,-70 -249,-118 -408,-146 -180,-32 -379,-38 -563,-22 -149,12 -279,51 -390,110 -175,91 -303,230 -384,385 -81,154 -115,323 -102,476 7,84 28,164 64,232 5,9 5,19 1,29 -21,45 -12,88 8,119 9,14 19,25 29,33 7,5 14,9 20,11 41,-121 150,-210 285,-275 198,-93 451,-135 618,-149 295,-25 553,61 761,207z"/>
   <path class="fil3" d="M5042 2079c18,-3 35,8 39,26 4,17 -8,34 -25,38 -24,5 -54,31 -80,64 -31,39 -55,84 -60,117 -3,18 -20,30 -38,27 -17,-3 -29,-20 -27,-37 8,-44 37,-101 74,-147 35,-44 78,-80 117,-88z"/>
   <path class="fil3" d="M5070 2367c-3,18 -20,30 -38,27 -17,-3 -29,-20 -26,-38 8,-46 -2,-74 -18,-86 -5,-4 -10,-6 -16,-7 -5,-2 -11,-2 -15,-1 -9,2 -16,8 -18,18 -3,17 -20,29 -37,27 -18,-3 -30,-20 -27,-38 6,-38 34,-63 68,-70 14,-3 29,-3 43,0 14,3 29,9 41,19 34,26 56,75 43,149z"/>
   <path class="fil3" d="M4641 192c-17,-6 -25,-26 -18,-42 7,-17 27,-25 43,-18 61,26 121,69 171,125 46,51 84,114 105,183 5,17 -5,35 -22,41 -18,5 -36,-5 -41,-22 -18,-60 -51,-114 -90,-159 -44,-48 -96,-86 -148,-108z"/>
   <path class="fil3" d="M4704 1062c16,-8 35,-2 44,14 8,16 2,35 -14,44 -29,16 -46,35 -54,56 -10,23 -11,50 -10,79 1,18 -13,33 -31,34 -18,1 -33,-13 -34,-31 -2,-37 1,-73 14,-106 15,-35 40,-66 85,-90z"/>
   <path class="fil3" d="M5030 1344c17,-5 35,6 40,23 5,17 -6,35 -23,40 -32,9 -52,24 -65,43 -14,21 -22,47 -26,75 -3,18 -20,30 -38,27 -17,-3 -30,-20 -27,-38 6,-36 16,-71 37,-101 22,-31 53,-55 102,-69z"/>
   <path class="fil3" d="M5253 1694c18,-1 33,13 34,31 1,18 -13,33 -31,34 -33,2 -56,13 -73,29 -18,16 -30,40 -41,67 -7,17 -26,25 -42,18 -17,-6 -25,-25 -19,-42 14,-35 31,-66 58,-91 27,-26 64,-43 114,-46z"/>
   <path class="fil3" d="M4253 873c14,-11 34,-9 45,5 12,14 10,34 -4,46 -26,21 -39,43 -43,66 0,0 -1,1 -1,2 -4,23 0,49 6,76 5,18 -6,35 -23,40 -18,4 -36,-6 -40,-24 -9,-35 -13,-70 -7,-104 0,-1 0,-2 1,-3 7,-37 27,-72 66,-104z"/>
   <path class="fil3" d="M3786 872c11,-14 32,-15 46,-4 14,12 16,32 4,46 -21,26 -30,50 -30,73 0,25 9,50 21,76 7,16 0,36 -16,43 -16,8 -36,1 -43,-15 -16,-34 -27,-68 -27,-105 0,-37 13,-75 45,-114z"/>
   <path class="fil3" d="M3336 963c9,-15 29,-21 45,-12 16,8 21,28 13,44 -16,29 -20,54 -16,77 5,24 18,48 35,71 11,14 8,35 -7,45 -15,11 -35,8 -45,-7 -22,-30 -40,-62 -47,-97 -7,-37 -2,-77 22,-121z"/>
   <path class="fil3" d="M3012 1150c5,-17 24,-27 41,-21 17,5 27,24 21,41 -10,31 -9,57 0,78 9,23 27,44 48,63 13,12 13,33 1,46 -12,13 -33,14 -46,2 -27,-25 -50,-53 -64,-87 -14,-35 -16,-75 -1,-122z"/>
   <path class="fil6" d="M2225 1077c18,101 20,198 7,292 -14,94 -41,182 -81,264 -40,82 -90,158 -152,227 -61,70 -130,132 -205,186l-189 132c-61,41 -104,88 -129,142 -25,53 -28,129 -11,227l34 190 -568 101 -35 -195c-21,-121 -31,-225 -30,-312 1,-86 12,-161 34,-225 21,-64 54,-119 98,-165 43,-46 97,-91 160,-135l168 -115c139,-96 227,-186 263,-270 37,-85 49,-164 36,-238 -7,-42 -25,-83 -54,-121 -29,-39 -64,-71 -107,-96 -43,-25 -93,-43 -151,-53 -58,-11 -120,-10 -186,2 -100,18 -193,52 -279,102 -85,51 -159,124 -221,220l-416 -340c89,-128 206,-237 351,-329 145,-91 314,-154 507,-188 141,-25 275,-27 405,-8 129,20 245,60 349,121 103,61 190,140 261,238 71,98 118,214 141,346zm-558 2540l-592 105 -105 -592 592 -105 105 592z"/>
   <path class="fil6" d="M733 3847c6,36 7,71 2,106 -5,34 -15,66 -29,96 -15,29 -33,57 -56,82 -22,26 -47,48 -74,68l-69 48c-22,15 -38,32 -47,51 -9,20 -10,47 -4,83l12 69 -206 37 -13 -71c-7,-44 -11,-82 -11,-113 1,-32 5,-59 13,-82 7,-23 19,-43 35,-60 16,-17 36,-33 59,-49l61 -42c50,-35 82,-68 95,-98 14,-31 18,-60 13,-87 -2,-15 -9,-30 -19,-44 -11,-14 -24,-26 -39,-35 -16,-9 -34,-16 -55,-19 -21,-4 -44,-4 -68,1 -36,6 -70,18 -101,37 -31,18 -58,45 -81,80l-151 -124c32,-46 75,-86 128,-119 53,-34 114,-56 184,-69 51,-9 100,-10 147,-3 47,7 90,22 127,44 38,22 70,51 95,87 26,35 43,77 52,126zm-203 923l-216 38 -38 -215 215 -38 39 215z"/>
   <path class="fil6" d="M2553 2562c5,27 6,54 2,80 -4,25 -11,49 -22,72 -11,22 -24,43 -41,62 -17,19 -36,36 -56,50l-52 36c-16,11 -28,24 -35,39 -7,15 -8,35 -3,62l9 52 -155 27 -9 -53c-6,-33 -9,-61 -8,-85 0,-23 3,-44 9,-61 6,-18 15,-33 27,-45 12,-13 26,-25 43,-37l46 -32c38,-26 62,-50 72,-73 10,-23 13,-45 10,-65 -2,-12 -7,-23 -15,-33 -8,-11 -18,-19 -29,-26 -12,-7 -26,-12 -41,-15 -16,-3 -33,-2 -51,1 -27,5 -53,14 -76,28 -23,14 -43,34 -60,60l-114 -93c24,-35 56,-65 96,-90 39,-25 86,-42 138,-51 38,-7 75,-7 110,-2 36,5 67,16 96,33 28,16 52,38 71,65 19,26 32,58 38,94zm-152 693l-161 28 -29 -161 162 -29 28 162z"/>
   <path class="fil3" d="M3541 5699c18,1 31,17 30,35 -1,18 -16,31 -34,30 -310,-19 -765,-38 -1207,-12 -438,27 -861,99 -1112,262 -15,10 -35,6 -45,-10 -10,-15 -5,-35 10,-45 261,-170 696,-245 1144,-272 444,-27 902,-7 1214,12z"/>
   <path class="fil3" d="M1183 5466c-18,2 -34,-11 -36,-29 -2,-18 11,-34 29,-36 137,-15 237,-17 332,6 96,23 183,71 296,155 6,3 10,5 15,12l0 0 0 0c4,5 5,9 9,19l0 0 0 0 1 2c6,17 -3,36 -21,42 -17,6 -35,-4 -41,-21l0 0 -1 -1c-106,-79 -187,-124 -273,-145 -86,-20 -180,-18 -310,-4z"/>
   <path class="fil0" d="M5038 5662c700,-111 1036,239 1168,508 48,99 172,415 110,499 -33,76 -160,43 -329,17 -24,119 -68,244 -241,301 -159,53 -646,29 -650,-218 -6,-332 -48,-1052 -58,-1107z"/>
   <g style="clip-path:url(#id4)">
    <g>
     <path id="1" class="fil7" d="M4890 5717c700,-110 1036,240 1168,508 48,99 172,415 110,499 -33,77 -160,43 -330,18 -23,118 -67,244 -240,301 -160,53 -646,29 -651,-219 -6,-332 -48,-1051 -57,-1107z"/>
    </g>
   </g>
   <path class="fil2" d="M5038 5662c700,-111 1036,239 1168,508 48,99 172,415 110,499 -33,76 -160,43 -329,17 -24,119 -68,244 -241,301 -159,53 -646,29 -650,-218 -6,-332 -48,-1052 -58,-1107z"/>
   <path class="fil2" d="M5096 6769c-6,-332 -39,-1052 -49,-1107 700,-111 1027,239 1159,508 48,99 172,415 110,499 -33,76 -160,43 -329,17"/>
   <path class="fil3" d="M5128 6768c1,18 -14,33 -32,33 -18,1 -33,-14 -33,-32 -3,-158 -12,-405 -22,-627 -10,-239 -21,-447 -26,-475 -3,-18 9,-35 27,-38 1,0 1,0 2,0 303,-47 538,-10 718,69 249,109 395,297 473,457 30,62 89,206 116,328 18,83 22,159 -6,202 -40,86 -149,68 -298,44l-1 0 0 0c-17,-3 -36,-6 -64,-10 -18,-3 -30,-20 -28,-37 3,-18 20,-31 38,-28 16,3 41,7 65,10l0 0c122,20 211,35 229,-8l0 0c1,-3 3,-5 4,-7 18,-24 13,-83 -3,-152 -26,-117 -82,-254 -110,-313 -74,-149 -209,-325 -441,-426 -165,-73 -378,-108 -653,-69 6,74 15,252 24,451 9,220 18,468 21,628z"/>
   <path class="fil0" d="M3718 4492c279,66 942,169 1199,30 -4,30 36,134 24,213 -409,141 -753,65 -1246,-58l23 -185z"/>
   <path class="fil0" d="M4456 2367c-55,219 -68,516 -49,749 -190,-106 -321,-185 -447,-121 -241,124 -626,653 -401,858 80,72 16,36 235,184l-17 468c287,61 833,137 1095,37 2,-6 2,-13 0,-20 0,-290 -83,-1986 -184,-2122 -126,-171 -228,-50 -232,-33z"/>
   <g style="clip-path:url(#id5)">
    <g>
     <path id="1" class="fil7" d="M4326 2497c-55,218 -68,516 -49,748 -190,-105 -321,-185 -447,-120 -241,123 -626,652 -400,858 79,72 15,35 234,184l-17 468c287,61 833,137 1095,37 2,-7 3,-13 1,-21 0,-290 -84,-1985 -185,-2121 -126,-171 -228,-50 -232,-33z"/>
    </g>
   </g>
   <path class="fil2" d="M4456 2367c-55,219 -68,516 -49,749 -190,-106 -321,-185 -447,-121 -241,124 -626,653 -401,858 80,72 16,36 235,184l-17 468c287,61 833,137 1095,37 2,-6 2,-13 0,-20 0,-290 -83,-1986 -184,-2122 -126,-171 -228,-50 -232,-33z"/>
   <path class="fil2" d="M3559 3853c80,72 16,36 235,184l-17 468c287,61 833,137 1095,37 2,-6 2,-13 0,-20 0,-290 -83,-1986 -184,-2122 -126,-171 -228,-50 -232,-33 -55,219 -68,516 -49,749 -190,-106 -321,-185 -447,-121"/>
   <path class="fil3" d="M3537 3877c-13,-12 -14,-33 -2,-46 12,-13 33,-14 46,-2 22,19 34,32 44,42l0 0 0 0c22,23 31,33 187,139 10,7 15,18 14,30l-15 439c165,34 404,70 625,78 154,5 299,-4 404,-38 -1,-182 -32,-890 -80,-1439 -29,-339 -64,-614 -98,-661l0 0 0 0c-35,-47 -66,-68 -92,-74 -13,-4 -25,-3 -36,0 -11,2 -20,8 -28,14l0 0 0 0c-12,8 -18,15 -19,16l0 0 0 0c-25,103 -42,224 -50,347 -9,134 -7,271 2,391 2,18 -12,34 -30,35 -7,1 -14,-1 -20,-5l-24 -13c-167,-94 -285,-160 -390,-106 -16,8 -36,2 -44,-14 -8,-16 -2,-36 14,-44 129,-66 254,-3 425,92 -6,-107 -5,-224 2,-340 8,-127 25,-252 52,-359l0 0c3,-10 19,-35 43,-53l0 0c14,-10 31,-19 51,-24 20,-6 43,-7 68,-1 39,10 83,39 128,100l0 0c43,58 81,345 111,693 48,551 80,1260 80,1445 1,4 1,9 1,14 0,6 -1,11 -2,17 -2,10 -10,19 -20,23 -114,43 -278,55 -450,49 -238,-8 -495,-49 -664,-85l0 0c-15,-3 -26,-17 -25,-33l16 -450c-148,-101 -159,-112 -184,-138l0 0c-8,-9 -18,-19 -40,-39z"/>
   <path class="fil3" d="M5920 6265c-3,-18 9,-35 27,-38 18,-3 34,9 37,27 17,99 31,207 34,307 2,103 -8,198 -42,269 -7,16 -27,23 -43,16 -16,-8 -23,-28 -16,-44 29,-60 38,-145 36,-239 -3,-96 -17,-201 -33,-298z"/>
   <path class="fil3" d="M5655 6396c-3,-18 8,-35 26,-39 18,-3 35,9 38,26 20,106 31,240 17,368 -12,102 -40,200 -92,276 -10,15 -31,19 -45,8 -15,-10 -19,-30 -9,-45 46,-66 70,-154 81,-246 13,-121 3,-248 -16,-348z"/>
   <path class="fil3" d="M5409 6437c-5,-17 6,-35 23,-40 17,-4 35,6 40,24 27,102 29,229 15,339 -15,119 -51,221 -99,258 -14,11 -34,8 -45,-6 -11,-15 -9,-35 5,-46 34,-26 61,-111 75,-214 13,-103 10,-221 -14,-315z"/>
   <path class="fil3" d="M3805 3140c-18,-3 -31,-19 -28,-37 2,-18 19,-30 36,-28 74,10 180,70 263,138 84,67 147,147 140,203 -2,18 -18,31 -36,29 -18,-2 -31,-18 -28,-36 3,-32 -49,-91 -117,-146 -76,-61 -169,-115 -230,-123z"/>
   <path class="fil3" d="M3623 3339c-17,-9 -23,-28 -15,-44 8,-16 28,-23 44,-15 70,36 146,74 210,123 67,51 120,113 138,192 4,18 -7,35 -25,39 -17,4 -35,-7 -39,-24 -14,-62 -57,-112 -113,-155 -60,-45 -133,-82 -200,-116z"/>
   <circle class="fil5" cx="3199" cy="1793" r="47"/>
   <path class="fil3" d="M3199 1738c15,0 29,6 39,16 10,10 16,24 16,39 0,15 -6,29 -16,39 -10,10 -24,16 -39,16 -15,0 -29,-6 -39,-16 -9,-10 -16,-24 -16,-39 0,-15 7,-29 16,-39 10,-10 24,-16 39,-16zm27 28c-7,-7 -16,-11 -27,-11 -10,0 -20,4 -27,11 -7,7 -11,16 -11,27 0,11 4,20 11,27 7,7 17,11 27,11 11,0 20,-4 27,-11 7,-7 12,-16 12,-27 0,-11 -5,-20 -12,-27z"/>
   <circle class="fil5" cx="3755" cy="1781" r="47"/>
   <path class="fil3" d="M3755 1726c15,0 29,7 38,16 10,10 17,24 17,39 0,15 -7,29 -17,39 -9,10 -23,16 -38,16 -15,0 -29,-6 -39,-16 -10,-10 -16,-24 -16,-39 0,-15 6,-29 16,-39l0 0c10,-10 24,-16 39,-16zm27 28c-7,-7 -17,-11 -27,-11 -11,0 -20,4 -27,11l0 0c-7,7 -12,17 -12,27 0,11 5,20 12,27 6,7 16,12 27,12 10,0 20,-5 27,-12 7,-7 11,-16 11,-27 0,-10 -4,-20 -11,-27z"/>
   <path class="fil3" d="M3519 7034c11,14 8,34 -6,45 -14,11 -35,9 -46,-5 -272,-348 9,-1265 169,-1789 33,-107 61,-197 77,-262 9,-33 -2,-54 -15,-80 -25,-49 -58,-114 -36,-270 3,-18 19,-31 37,-28 2,0 3,0 5,1l0 0c18,5 43,13 71,22 194,62 505,161 1158,35 2,0 4,0 6,-1 17,-1 32,11 35,27 10,20 18,49 24,87 9,56 19,135 29,229 42,401 86,1070 86,1300 0,18 -15,32 -33,32 -18,0 -33,-14 -33,-32 1,-228 -43,-894 -85,-1293 -10,-93 -19,-171 -28,-226 -6,-34 23,-59 12,-59 -669,129 -991,27 -1191,-37 -11,-4 -22,-7 -32,-10 -10,109 14,156 33,194 20,38 35,68 20,125 -17,67 -45,158 -77,265 -157,512 -432,1409 -180,1730z"/>
  </g>
 </g>
</svg>
