<?xml version="1.0" encoding="UTF-8"?>
<!DOCTYPE svg PUBLIC "-//W3C//DTD SVG 1.1//EN" "http://www.w3.org/Graphics/SVG/1.1/DTD/svg11.dtd">
<!-- Creator: CorelDRAW X7 -->
<svg xmlns="http://www.w3.org/2000/svg" xml:space="preserve" width="8.46848in" height="7.48031in" version="1.1" style="shape-rendering:geometricPrecision; text-rendering:geometricPrecision; image-rendering:optimizeQuality; fill-rule:evenodd; clip-rule:evenodd"
viewBox="0 0 8468 7480"
 xmlns:xlink="http://www.w3.org/1999/xlink">
 <defs>
  <style type="text/css">
   <![CDATA[
    .fil2 {fill:none}
    .fil7 {fill:#1B1D4E}
    .fil1 {fill:#71D9FC}
    .fil10 {fill:#7268FD}
    .fil4 {fill:#A2FFC8}
    .fil6 {fill:#F9E95E}
    .fil5 {fill:#F9E95E}
    .fil0 {fill:white}
    .fil3 {fill:#1B1D4E;fill-rule:nonzero}
    .fil8 {fill:#71D9FC;fill-rule:nonzero}
    .fil9 {fill:white;fill-rule:nonzero}
   ]]>
  </style>
    <clipPath id="id0">
     <path d="M1224 2902c-397,184 -622,244 -1089,261 9,520 303,1985 555,2366 428,649 1627,594 1903,259 309,-376 361,-1441 -418,-1641 -326,116 -472,128 -618,-149 -102,-195 -298,-997 -333,-1096z"/>
    </clipPath>
    <clipPath id="id1">
     <path d="M8314 6022c47,230 106,507 117,697 -613,309 -1249,422 -1444,422l-183 -882c-68,-332 -203,-448 403,-674 431,-161 784,239 1107,437z"/>
    </clipPath>
    <clipPath id="id2">
     <path d="M4085 3445c-214,-15 -1394,394 -2049,713l262 1949 627 -160 83 1132c67,906 2378,-1 3938,-29l-72 -633c110,-29 1341,-438 1499,-511 -44,-576 -646,-1569 -1212,-2144 -91,-93 -771,-435 -1505,-444 -716,-9 -1283,148 -1571,127z"/>
    </clipPath>
    <clipPath id="id3">
     <path d="M3208 1872l2002 743c351,130 1004,-777 507,-1523 533,396 731,-193 530,-564 -178,-326 -938,-402 -766,301 0,9 -739,-515 -1453,-237 -336,-245 -1468,383 -820,1280z"/>
    </clipPath>
    <clipPath id="id4">
     <path d="M3768 3919c27,-148 83,-183 110,-331 47,-6 64,-140 111,-147l-54 -402c-180,10 -434,-50 -636,-235 -472,-435 209,-1700 467,-1790 114,233 621,1137 1255,989 47,-86 346,-218 418,-25 88,242 -46,482 -260,525l208 773c195,208 -13,479 -178,685 -228,283 -227,-194 -446,186l-402 330c-22,-115 -610,-383 -593,-558z"/>
    </clipPath>
    <clipPath id="id5">
     <path d="M3934 3444c16,103 316,808 478,921 215,-162 987,-1069 993,-1071 -35,-22 96,-32 202,47 -41,425 -347,1070 -502,1272l-394 -337 -297 412 -271 -343c-136,20 -283,69 -436,185 16,-314 -37,-1034 227,-1086z"/>
    </clipPath>
    <clipPath id="id6">
     <path d="M4782 2776c-105,-229 -114,-533 -61,-777 -31,-8 -62,-18 -92,-30 -289,51 -921,43 -1031,-54 -16,-14 -394,185 -437,207 -52,272 -29,528 138,682 203,186 458,245 638,235 284,-37 596,-141 845,-263z"/>
    </clipPath>
    <clipPath id="id7">
     <path d="M199 2962c576,-25 727,-126 910,-243 172,-170 236,-356 213,-518 191,-154 162,-534 15,-632 205,21 880,-97 585,-300 -119,-82 -862,-115 -1002,-70 -810,262 -1054,880 -766,1713 3,9 38,50 45,50z"/>
    </clipPath>
 </defs>
 <g id="Layer_x0020_1">
  <metadata id="CorelCorpID_0Corel-Layer"/>
  <g id="_2049753490416">
   <path class="fil0" d="M1224 2902c-397,184 -622,244 -1089,261 9,520 303,1985 555,2366 428,649 1627,594 1903,259 309,-376 361,-1441 -418,-1641 -326,116 -472,128 -618,-149 -102,-195 -298,-997 -333,-1096z"/>
   <g style="clip-path:url(#id0)">
    <g>
     <path id="1" class="fil1" d="M1128 3105c-250,-1159 -911,-1305 -1089,261 9,520 303,1985 555,2365 428,649 1627,595 1903,260 309,-376 361,-1441 -418,-1641 -326,116 -472,128 -618,-150 -102,-194 -298,-996 -333,-1095z"/>
    </g>
   </g>
   <path class="fil2" d="M1224 2902c-397,184 -622,244 -1089,261 9,520 303,1985 555,2366 428,649 1627,594 1903,259 309,-376 361,-1441 -418,-1641 -326,116 -472,128 -618,-149 -102,-195 -298,-997 -333,-1096z"/>
   <path class="fil3" d="M1200 2954c-181,83 -329,140 -485,178 -158,38 -324,58 -541,67 11,290 98,824 213,1316 100,429 222,823 334,993 50,75 110,141 179,197 226,186 539,273 837,287 297,13 578,-46 740,-153l0 0c35,-23 65,-48 87,-75 69,-84 124,-205 160,-343 46,-181 57,-391 18,-588 -39,-195 -127,-376 -281,-502 -77,-64 -171,-114 -285,-144 -162,57 -282,88 -384,70 -108,-20 -189,-92 -268,-242 -75,-142 -196,-590 -272,-873 -22,-79 -39,-146 -52,-188zm-503 105c161,-39 315,-100 511,-191l0 0c1,-1 2,-1 3,-2 20,-7 41,4 48,23 11,30 35,119 66,234 75,280 194,723 265,857 67,127 132,188 215,203 87,16 200,-15 357,-71l0 0c7,-2 14,-3 22,-1 129,33 237,89 325,162 168,138 265,335 307,545 41,208 29,430 -20,621 -38,149 -99,280 -174,373 -27,33 -62,63 -103,90l0 0 0 0c-175,115 -473,179 -785,165 -313,-15 -642,-107 -882,-304 -74,-61 -140,-132 -194,-214 -117,-178 -242,-581 -344,-1017 -121,-517 -211,-1081 -216,-1367l0 -1c-1,-21 15,-38 36,-39 231,-8 401,-27 563,-66z"/>
   <path class="fil0" d="M8314 6022c47,230 106,507 117,697 -613,309 -1249,422 -1444,422l-183 -882c-68,-332 -203,-448 403,-674 431,-161 784,239 1107,437z"/>
   <g style="clip-path:url(#id1)">
    <g>
     <path id="1" class="fil1" d="M8164 6108c47,229 107,506 118,696 -613,310 -1250,422 -1445,422 -1448,0 -1025,-1090 220,-1555 431,-162 785,238 1107,437z"/>
    </g>
   </g>
   <path class="fil2" d="M8314 6022c47,230 106,507 117,697 -613,309 -1249,422 -1444,422l-183 -882c-68,-332 -203,-448 403,-674 431,-161 784,239 1107,437z"/>
   <path class="fil3" d="M6139 6319c171,-285 546,-579 1055,-769 354,-132 650,87 921,287 75,56 148,110 218,153l14 9 3 16 13 61c45,217 95,465 105,641l-75 4c-9,-171 -59,-415 -104,-630l-9 -45c-69,-44 -138,-95 -210,-148 -255,-189 -534,-396 -850,-278 -493,184 -853,466 -1016,737 -538,896 -521,721 -65,-38z"/>
   <path class="fil0" d="M4085 3445c-214,-15 -1394,394 -2049,713l262 1949 627 -160 83 1132c67,906 2378,-1 3938,-29l-72 -633c110,-29 1341,-438 1499,-511 -44,-576 -646,-1569 -1212,-2144 -91,-93 -771,-435 -1505,-444 -716,-9 -1283,148 -1571,127z"/>
   <g style="clip-path:url(#id2)">
    <g>
     <path id="1" class="fil4" d="M3967 3734c-213,-16 -1393,393 -2049,712l262 1949 628 -160 83 1132c66,906 3656,1138 3938,-29l-136 -1071c19,-5 72,-21 147,-45l70 511c409,-2 1252,-496 1345,-539 -43,-576 -646,-1569 -1212,-2144 -91,-93 -771,-435 -1505,-444 -716,-9 -1282,148 -1571,128z"/>
    </g>
   </g>
   <path class="fil2" d="M4085 3445c-214,-15 -1394,394 -2049,713l262 1949 627 -160 83 1132c67,906 2378,-1 3938,-29l-72 -633c110,-29 1341,-438 1499,-511 -44,-576 -646,-1569 -1212,-2144 -91,-93 -771,-435 -1505,-444 -716,-9 -1283,148 -1571,127z"/>
   <path class="fil2" d="M6935 7082l-71 -633c109,-29 1393,-438 1552,-511 -76,-576 -700,-1825 -1266,-2144 -113,-64 -771,-435 -1505,-444 -716,-9 -1282,148 -1571,128 -213,-16 -1393,393 -2049,712l262 1949 627 -160 83 1132"/>
   <path class="fil3" d="M6973 7078c2,20 -13,39 -33,41 -21,2 -40,-13 -42,-33l-72 -633c-2,-20 11,-37 30,-41 71,-19 554,-172 966,-307 246,-81 465,-155 552,-190 -48,-311 -245,-800 -502,-1236 -222,-376 -488,-710 -740,-852l0 0c-113,-64 -764,-430 -1487,-439 -406,-5 -765,43 -1052,82 -218,30 -394,54 -521,45 -103,-7 -448,91 -849,231 -391,136 -833,311 -1157,466l253 1880 586 -150c20,-5 41,8 46,28 0,2 1,5 1,8l83 1130c1,21 -14,39 -35,40 -21,2 -39,-14 -40,-35l-80 -1087 -584 149 0 0c-1,1 -2,1 -4,1 -20,3 -39,-12 -42,-32l-262 -1946c-3,-17 5,-34 21,-42 327,-159 785,-341 1189,-481 410,-143 767,-243 879,-235 120,9 293,-15 506,-44 289,-39 650,-89 1063,-83 743,9 1407,383 1522,448l1 0c264,149 539,494 767,880 270,457 475,975 517,1292 2,16 -7,32 -22,39 -65,30 -309,113 -586,204 -374,123 -809,261 -940,300l68 602z"/>
   <path class="fil3" d="M5844 5101c-21,0 -38,-17 -38,-37 0,-21 17,-38 38,-38 30,0 59,0 86,0 28,0 54,1 78,1 20,0 37,18 36,38 0,21 -17,37 -38,37 -24,0 -49,-1 -76,-1 -27,0 -56,0 -86,0zm179 155c21,1 37,18 37,39 -1,21 -18,37 -39,36 -235,-6 -394,3 -581,13 -90,6 -185,11 -302,15 -20,1 -36,-14 -39,-33l0 0 -23 -205c-2,-19 11,-37 29,-41 11,-3 23,-7 34,-11 49,-16 81,-26 250,-33 21,-1 38,15 39,36 1,21 -15,38 -36,39 -158,6 -186,16 -229,30l-8 3 15 139c98,-4 184,-9 265,-14 189,-10 349,-19 588,-13z"/>
   <path class="fil5" d="M2790 637c18,15 20,42 5,59 -15,18 -42,20 -60,5l-92 -79c-34,48 -55,102 -62,159l50 4c23,2 41,23 38,46 -2,24 -23,41 -46,39l-43 -4c7,65 33,129 77,183 15,18 12,45 -6,60 -18,15 -44,12 -59,-6 -59,-73 -92,-159 -98,-245l-369 -35c-24,-2 -41,-23 -39,-46 3,-23 23,-41 47,-38l364 34c9,-74 36,-145 81,-206l-223 -191c-18,-16 -20,-42 -5,-60 15,-18 42,-20 60,-5l225 193c6,-6 13,-12 20,-18 43,-35 91,-61 141,-77l-90 -356c-6,-23 7,-46 30,-52 23,-5 46,8 52,31l91 359c70,-8 140,0 206,24 22,9 33,33 25,55 -8,22 -33,33 -55,25 -49,-19 -102,-26 -155,-21l11 43c6,23 -8,46 -30,52 -23,6 -46,-8 -52,-31l-12 -47c-38,14 -75,34 -108,61 -3,2 -6,5 -9,7l90 78z"/>
   <path class="fil3" d="M6334 4986c-6,26 -32,43 -58,37 -27,-7 -43,-33 -37,-59 24,-101 38,-246 35,-400 -3,-161 -26,-331 -79,-468 -49,-127 -124,-223 -232,-249 -22,-5 -45,-7 -69,-7 -25,1 -48,4 -70,10 -105,30 -175,128 -218,256 -47,136 -62,305 -59,465 3,157 25,305 54,406 7,26 -8,53 -34,60 -26,8 -53,-7 -60,-33 -31,-108 -54,-265 -57,-431 -4,-170 13,-351 63,-498 53,-157 143,-278 285,-319 29,-8 60,-12 94,-13 33,-1 64,2 93,9 145,34 241,153 301,309 57,148 82,330 85,502 4,162 -12,316 -37,423z"/>
   <path class="fil3" d="M5280 3331c-26,-8 -40,-36 -32,-61 8,-26 36,-40 61,-32 83,27 234,28 365,121 137,98 251,236 247,428 0,27 -23,48 -49,48 -27,-1 -49,-23 -48,-50 3,-152 -92,-265 -206,-347 -120,-85 -261,-82 -338,-107z"/>
   <ellipse class="fil4" cx="5627" cy="4991" rx="73" ry="128"/>
   <path class="fil3" d="M5627 4830c32,0 60,20 79,54 16,28 26,65 26,107 0,41 -10,78 -26,106 -19,34 -47,54 -79,54 -33,0 -61,-20 -80,-54 -16,-28 -26,-65 -26,-106 0,-42 10,-79 26,-107 19,-34 47,-54 80,-54zm23 86c-7,-13 -16,-21 -23,-21 -8,0 -16,8 -24,21 -10,18 -17,45 -17,75 0,29 7,56 17,74 8,13 16,21 24,21 7,0 16,-8 23,-21 10,-18 17,-45 17,-74 0,-30 -7,-57 -17,-75z"/>
   <ellipse class="fil4" cx="6214" cy="4975" rx="73" ry="128"/>
   <path class="fil3" d="M6214 4814c33,0 61,21 80,54 15,28 25,66 25,107 0,41 -10,79 -25,107 -19,33 -47,54 -80,54 -33,0 -61,-21 -80,-54 -16,-28 -25,-66 -25,-107 0,-41 9,-79 25,-107 19,-33 47,-54 80,-54zm23 86c-7,-13 -16,-21 -23,-21 -8,0 -16,8 -23,21 -11,19 -17,45 -17,75 0,30 6,56 17,75 7,13 15,21 23,21 7,0 16,-8 23,-21 11,-19 17,-45 17,-75 0,-30 -6,-56 -17,-75z"/>
   <polygon class="fil6" points="6977,1516 7060,2129 7673,2211 7060,2294 6977,2907 6894,2294 6281,2211 6894,2129 "/>
   <path class="fil3" d="M3937 3409c31,-4 59,18 63,49 4,30 -17,59 -48,63 -234,31 -384,186 -477,386 -148,316 -162,742 -150,997 2,31 -22,57 -53,58 -31,2 -58,-23 -59,-54 -13,-266 2,-712 160,-1048 109,-233 285,-413 564,-451z"/>
   <circle class="fil0" cx="3270" cy="4901" r="246"/>
   <path class="fil3" d="M3270 4617c78,0 149,31 201,83 51,51 83,122 83,201 0,78 -32,149 -83,200 -52,52 -123,84 -201,84 -79,0 -150,-32 -201,-84 -51,-51 -83,-122 -83,-200 0,-79 32,-150 83,-201 51,-52 122,-83 201,-83zm147 136c-37,-38 -90,-61 -147,-61 -58,0 -110,23 -148,61 -38,38 -61,90 -61,148 0,57 23,109 61,147 38,38 90,61 148,61 57,0 110,-23 147,-61 38,-38 61,-90 61,-147 0,-58 -23,-110 -61,-148z"/>
   <path class="fil3" d="M3270 4745c43,0 82,17 110,45 28,29 46,68 46,111 0,43 -18,82 -46,110 -1,1 -2,1 -2,2 -28,27 -66,44 -108,44 -43,0 -82,-18 -110,-46 -29,-28 -46,-67 -46,-110 0,-43 17,-82 46,-111 0,0 1,-1 2,-2 28,-27 66,-43 108,-43zm57 99c-15,-15 -35,-24 -57,-24 -22,0 -41,8 -56,22l-1 2c-15,14 -24,34 -24,57 0,22 9,42 24,57 14,14 35,23 57,23 21,0 41,-8 55,-22l2 -1c14,-15 23,-35 23,-57 0,-23 -9,-43 -23,-57z"/>
   <path class="fil0" d="M3208 1872l2002 743c351,130 1004,-777 507,-1523 533,396 731,-193 530,-564 -178,-326 -938,-402 -766,301 0,9 -739,-515 -1453,-237 -336,-245 -1468,383 -820,1280z"/>
   <g style="clip-path:url(#id3)">
    <g>
     <path id="1" class="fil7" d="M3249 2016l2002 742c351,130 1086,-777 589,-1522 533,395 649,-194 448,-564 -178,-327 -938,-402 -766,300 0,9 -739,-514 -1453,-237 -336,-245 -1468,384 -820,1281z"/>
    </g>
   </g>
   <path class="fil2" d="M3208 1872l2002 743c351,130 1004,-777 507,-1523 533,396 731,-193 530,-564 -178,-326 -938,-402 -766,301 0,9 -739,-515 -1453,-237 -336,-245 -1468,383 -820,1280z"/>
   <path class="fil3" d="M3232 1841l1991 738c67,25 149,4 232,-51 64,-43 128,-106 186,-184 58,-78 109,-171 147,-275l0 0 0 0c104,-281 112,-634 -102,-956 -12,-17 -7,-40 10,-52 13,-9 31,-8 43,1 130,96 236,131 319,123 55,-5 101,-29 136,-66 36,-38 62,-91 77,-152 32,-129 14,-289 -57,-421 -62,-114 -205,-195 -348,-215 -62,-9 -124,-6 -179,11 -53,16 -100,45 -134,91 -59,77 -81,203 -36,387 1,3 1,5 1,8 3,71 -25,53 -78,21 -123,-74 -773,-465 -1398,-222 -13,5 -27,2 -37,-5 -93,-67 -259,-58 -426,10 -107,44 -214,111 -304,199 -89,87 -161,194 -198,316 -59,195 -31,432 155,694zm1965 809l-2002 -742 0 -1c-6,-2 -13,-6 -17,-13 -208,-288 -239,-550 -173,-769 42,-135 120,-252 218,-348 96,-94 212,-167 327,-214 182,-75 367,-84 483,-13 591,-219 1190,87 1394,205 -25,-166 4,-286 66,-368 44,-58 104,-96 172,-117 66,-21 139,-24 212,-14 164,23 329,119 403,254 80,149 101,330 64,475 -18,73 -50,138 -96,186 -47,50 -108,82 -183,89 -70,6 -150,-10 -241,-56 150,307 132,629 35,891l0 0c-41,110 -96,210 -158,294 -63,85 -133,153 -204,201 -103,69 -209,94 -300,60z"/>
   <path class="fil0" d="M3768 3919c27,-148 83,-183 110,-331 47,-6 64,-140 111,-147l-54 -402c-180,10 -434,-50 -636,-235 -472,-435 209,-1700 467,-1790 114,233 621,1137 1255,989 47,-86 346,-218 418,-25 88,242 -46,482 -260,525l208 773c195,208 -13,479 -178,685 -228,283 -227,-194 -446,186l-402 330c-22,-115 -610,-383 -593,-558z"/>
   <g style="clip-path:url(#id4)">
    <g>
     <path id="1" class="fil1" d="M3955 3818l-22 -737c-168,51 -503,17 -757,-216 -472,-434 209,-1700 467,-1789 114,232 621,1136 1256,989 46,-86 346,-219 417,-25 88,241 -46,481 -260,524l193 763c791,470 1013,797 200,816 -227,283 -647,128 -866,508 -163,-299 -790,-543 -843,-827 -22,-115 197,169 215,-6z"/>
    </g>
   </g>
   <path class="fil2" d="M3768 3919c27,-148 83,-183 110,-331 47,-6 64,-140 111,-147l-54 -402c-180,10 -434,-50 -636,-235 -472,-435 209,-1700 467,-1790 114,233 621,1137 1255,989 47,-86 346,-218 418,-25 88,242 -46,482 -260,525l208 773c195,208 -13,479 -178,685 -228,283 -227,-194 -446,186l-402 330c-22,-115 -610,-383 -593,-558z"/>
   <path class="fil3" d="M3731 3911c15,-78 36,-125 58,-173 20,-43 40,-87 52,-156 3,-17 16,-29 32,-31l0 0c3,0 15,-26 26,-52 14,-30 28,-60 49,-79l-46 -342c-96,0 -207,-17 -320,-59 -106,-39 -212,-100 -308,-188 -64,-58 -108,-130 -136,-211 -81,-234 -27,-548 79,-838 106,-287 265,-553 395,-695 51,-56 100,-94 141,-108 19,-6 39,2 47,20 70,144 293,548 603,792 175,138 378,224 596,179 29,-38 89,-79 157,-104 37,-14 78,-23 117,-25 42,-2 82,5 117,24 36,20 66,52 84,100 9,24 16,49 21,74 21,107 4,212 -41,297 -46,87 -120,154 -212,188 -5,2 -11,4 -17,6l196 728c103,115 99,246 47,375 -50,125 -145,246 -230,351 -129,162 -201,114 -268,70 -41,-27 -79,-52 -174,112 -2,4 -5,8 -9,11l0 0 -402 329c-16,13 -40,11 -53,-5 -4,-5 -7,-12 -8,-18 -8,-34 -112,-105 -227,-184 -177,-122 -379,-261 -366,-384 0,-1 0,-3 0,-4zm126 -142c-19,43 -39,87 -52,155 -6,78 175,203 335,313 97,67 188,129 231,183l364 -298c132,-226 202,-180 277,-130 39,26 81,53 168,-55 81,-101 172,-217 218,-332 43,-105 46,-211 -37,-301 -5,-5 -9,-11 -11,-18l-207 -773 0 0 -1 -3c-4,-20 9,-40 30,-44 15,-3 29,-7 44,-13 74,-27 134,-82 171,-152 38,-71 52,-158 34,-248 -4,-20 -10,-40 -18,-62 -11,-29 -28,-48 -49,-60 -22,-12 -49,-16 -78,-15 -31,2 -63,9 -94,21 -61,22 -113,57 -127,84 -5,9 -14,17 -25,19 -249,58 -478,-36 -673,-190 -300,-236 -521,-615 -608,-785 -24,15 -52,40 -82,73 -124,135 -277,392 -379,670 -102,276 -154,572 -79,788 24,69 62,131 116,180 88,81 186,137 283,173 117,43 231,58 325,53l0 0c19,-1 36,13 39,32l54 401 0 1c3,21 -11,40 -32,42 -3,1 -15,27 -26,52 -16,34 -31,68 -57,85 -14,67 -34,111 -54,154z"/>
   <path class="fil0" d="M3934 3444c16,103 316,808 478,921 215,-162 987,-1069 993,-1071 -35,-22 96,-32 202,47 -41,425 -347,1070 -502,1272l-394 -337 -297 412 -271 -343c-136,20 -283,69 -436,185 16,-314 -37,-1034 227,-1086z"/>
   <g style="clip-path:url(#id5)">
    <g>
     <path id="1" class="fil4" d="M3912 3593c17,103 316,809 478,921 216,-162 988,-1068 994,-1070 -35,-23 96,-33 202,47 -41,425 -347,1069 -503,1272l-393 -338 -298 413 -270 -343c-137,19 -283,68 -436,185 15,-315 -37,-1034 226,-1087z"/>
    </g>
   </g>
   <path class="fil2" d="M3934 3444c16,103 316,808 478,921 215,-162 987,-1069 993,-1071 -35,-22 96,-32 202,47 -41,425 -347,1070 -502,1272l-394 -337 -297 412 -271 -343c-136,20 -283,69 -436,185 16,-314 -37,-1034 227,-1086z"/>
   <path class="fil3" d="M3971 3440c12,63 122,335 242,568 70,135 143,254 199,308 191,-159 688,-730 884,-955 1,0 1,-1 2,-2 27,-30 48,-55 64,-72 0,-21 12,-35 34,-42l0 0c8,-3 20,-4 33,-4 46,-1 129,16 201,70 11,9 16,21 15,34l0 0c-19,191 -89,424 -175,642 -110,277 -246,533 -336,649 -12,17 -36,20 -52,7l-2 -1 0 0 -362 -311 -274 379c-12,17 -35,21 -52,9 -3,-2 -6,-5 -8,-7l0 0 -257 -326c-59,10 -120,25 -182,50 -70,28 -142,68 -215,124 -17,13 -40,10 -53,-7 -6,-7 -8,-16 -8,-25 3,-58 4,-127 4,-203 3,-362 8,-869 253,-918 21,-4 41,9 45,30 0,1 0,2 0,3zm176 603c-107,-205 -206,-444 -239,-550 -153,83 -157,517 -160,832 0,47 0,91 -1,131 58,-38 115,-67 170,-89 76,-31 149,-48 220,-59 13,-2 27,3 36,14l239 304 268 -371c1,-1 2,-2 3,-4 13,-15 37,-17 53,-4l362 311c85,-122 204,-351 302,-599 81,-204 147,-421 168,-599 -49,-32 -100,-43 -132,-44 -4,6 -11,11 -18,14 -9,2 -20,28 -64,79 0,0 -1,1 -1,2 -205,234 -736,844 -916,982 -13,11 -32,13 -47,3 -70,-49 -160,-192 -243,-353z"/>
   <path class="fil3" d="M3941 3076c-20,3 -39,-12 -41,-32 -3,-21 12,-40 32,-42 192,-25 470,-100 724,-209 201,-87 384,-194 495,-315 14,-16 38,-17 53,-3 16,14 17,38 3,53 -119,130 -312,244 -521,334 -260,112 -547,189 -745,214z"/>
   <path class="fil3" d="M3553 1476c-16,-12 -20,-36 -7,-52 12,-17 36,-20 52,-8 18,14 36,30 53,48 17,17 34,38 51,61 7,9 9,20 6,30l0 0 -114 523 115 69c17,10 23,34 13,51 -11,18 -34,24 -52,13l-135 -81c-15,-8 -24,-25 -20,-42l116 -532c-11,-15 -22,-28 -34,-40 -15,-16 -29,-29 -44,-40z"/>
   <path class="fil3" d="M3264 1828c-18,-10 -24,-33 -14,-51 10,-19 33,-25 51,-15 19,11 49,17 85,15 32,-2 68,-10 105,-28 19,-8 41,-1 50,18 9,19 1,41 -18,50 -46,22 -92,33 -133,35 -51,3 -96,-8 -126,-24z"/>
   <path class="fil3" d="M3817 1809c-16,-14 -17,-38 -4,-53 14,-16 38,-17 53,-4 16,15 44,27 80,33 32,5 69,5 109,-5 20,-4 40,8 45,28 5,20 -8,41 -28,46 -50,11 -97,12 -138,5 -51,-8 -92,-28 -117,-50z"/>
   <path class="fil8" d="M3828 1023c-8,-19 0,-42 19,-50 19,-8 41,0 50,19 87,198 201,361 326,494 157,169 330,290 484,374 18,10 24,33 14,51 -10,19 -32,25 -51,15 -159,-87 -339,-213 -502,-389 -130,-139 -249,-309 -340,-514z"/>
   <path class="fil3" d="M4394 4956c0,-21 17,-38 37,-38 21,0 38,16 38,37 1,177 53,821 104,1457 19,229 37,456 53,666 2,21 -14,39 -34,41 -21,1 -39,-14 -41,-35 -15,-202 -34,-433 -53,-666 -51,-636 -102,-1280 -104,-1462z"/>
   <path class="fil3" d="M6711 5433c-3,-21 12,-40 33,-42 21,-2 39,13 41,33l188 1654c2,20 -13,39 -33,41 -21,2 -40,-13 -42,-33l-187 -1653z"/>
   <path class="fil3" d="M2817 5164c-2,-21 14,-39 35,-41 20,-1 38,15 40,35l106 1444c1,20 -14,38 -35,40 -21,1 -39,-14 -40,-35l-106 -1443z"/>
   <path class="fil0" d="M4782 2776c-105,-229 -114,-533 -61,-777 -31,-8 -62,-18 -92,-30 -289,51 -921,43 -1031,-54 -16,-14 -394,185 -437,207 -52,272 -29,528 138,682 203,186 458,245 638,235 284,-37 596,-141 845,-263z"/>
   <g style="clip-path:url(#id6)">
    <g>
     <path id="1" class="fil4" d="M4700 2858c-105,-229 -114,-533 -61,-777 -31,-8 -62,-18 -91,-30 -290,51 -922,43 -1032,-54 -16,-14 -394,184 -437,207 -52,272 -28,528 138,682 203,186 458,245 638,235 284,-37 596,-141 845,-263z"/>
    </g>
   </g>
   <path class="fil2" d="M4782 2776c-105,-229 -114,-533 -61,-777 -31,-8 -62,-18 -92,-30 -289,51 -921,43 -1031,-54 -16,-14 -394,185 -437,207 -52,272 -29,528 138,682 203,186 458,245 638,235 284,-37 596,-141 845,-263z"/>
   <path class="fil3" d="M4733 2758c-43,-105 -67,-223 -77,-342 -10,-133 -2,-268 21,-391 -5,-1 -10,-3 -14,-4 -12,-4 -25,-9 -37,-13 -160,26 -413,36 -630,25 -195,-10 -365,-39 -423,-89 -5,-5 -270,146 -365,196l-14 7c-23,133 -28,261 -5,374 20,101 63,189 136,255 88,81 187,137 284,173 117,43 232,58 325,52 134,-17 275,-50 412,-92 136,-43 268,-95 387,-151zm-2 -348c10,124 37,246 85,350l0 1c9,18 1,40 -17,49 -131,64 -279,123 -431,170 -141,44 -286,78 -424,96 -2,0 -4,0 -5,0 -103,6 -229,-9 -356,-56 -106,-39 -213,-100 -309,-189 -85,-77 -135,-179 -159,-296 -26,-127 -19,-272 9,-420 2,-11 9,-21 20,-27 5,-3 15,-8 29,-15 107,-55 416,-215 450,-186 43,39 196,62 377,71 217,11 469,1 623,-26l0 0c7,-1 14,-1 20,2 14,5 28,10 43,15 15,5 29,9 41,13l2 0c20,4 33,24 28,45 -26,124 -37,265 -26,403z"/>
   <path class="fil3" d="M3916 1506c-20,-5 -32,-26 -26,-46 5,-20 26,-32 46,-26l137 38c20,6 32,27 26,47 -5,20 -26,31 -46,26l-137 -39z"/>
   <path class="fil3" d="M3485 2511c-20,-5 -33,-26 -27,-46 5,-20 25,-32 45,-27 62,16 135,24 206,25 68,0 134,-7 185,-22 20,-6 41,5 47,25 6,20 -6,41 -26,47 -58,17 -131,25 -207,25 -77,-1 -156,-10 -223,-27z"/>
   <path class="fil3" d="M3545 2331c-20,-5 -33,-26 -27,-46 5,-20 25,-32 45,-27 43,11 94,17 143,17 48,0 93,-4 128,-15 20,-6 41,6 47,26 6,20 -6,40 -25,46 -43,13 -96,19 -150,18 -56,0 -113,-7 -161,-19z"/>
   <path class="fil3" d="M5284 1999c20,-4 41,8 45,29 5,20 -7,40 -28,45 -24,5 -53,34 -80,69 -30,41 -54,89 -59,123 -2,21 -21,35 -42,33 -20,-3 -35,-22 -32,-42 6,-48 36,-109 73,-159 36,-48 81,-88 123,-98z"/>
   <path class="fil3" d="M5327 2306c-3,21 -22,35 -43,32 -20,-3 -35,-22 -32,-43 7,-48 -4,-75 -21,-87 -4,-4 -10,-6 -15,-7 -5,-1 -10,-1 -15,1 -8,2 -14,7 -15,16 -3,20 -22,35 -43,32 -20,-3 -35,-21 -32,-42 6,-42 35,-70 72,-79 15,-4 31,-5 47,-2 16,3 31,10 46,20 36,27 62,78 51,159z"/>
   <path class="fil9" d="M5457 839c-18,-10 -25,-33 -15,-51 10,-19 33,-25 51,-16 42,23 138,89 216,183 51,61 95,134 114,216 5,20 -8,40 -28,45 -20,5 -40,-8 -45,-28 -17,-69 -55,-132 -99,-185 -71,-85 -156,-144 -194,-164z"/>
   <path class="fil0" d="M199 2962c576,-25 727,-126 910,-243 172,-170 236,-356 213,-518 191,-154 162,-534 15,-632 205,21 880,-97 585,-300 -119,-82 -862,-115 -1002,-70 -810,262 -1054,880 -766,1713 3,9 38,50 45,50z"/>
   <g style="clip-path:url(#id7)">
    <g>
     <path id="1" class="fil10" d="M50 3037c575,-25 727,-126 910,-244 171,-169 214,-366 192,-528 190,-154 215,-534 67,-632 206,21 848,-86 554,-289 -119,-82 -863,-40 -1003,5 -810,261 -1054,804 -766,1637 4,10 38,51 46,51z"/>
    </g>
   </g>
   <path class="fil2" d="M199 2962c576,-25 727,-126 910,-243 172,-170 236,-356 213,-518 191,-154 162,-534 15,-632 205,21 880,-97 585,-300 -119,-82 -862,-115 -1002,-70 -810,262 -1054,880 -766,1713 3,9 38,50 45,50z"/>
   <path class="fil2" d="M1322 2201c191,-154 162,-534 15,-632 205,21 880,-97 585,-300 -119,-82 -862,-115 -1002,-70 -810,262 -1054,880 -766,1713 3,9 38,50 45,50 576,-25 727,-126 910,-243"/>
   <path class="fil3" d="M1346 2230c-16,13 -40,11 -53,-6 -13,-16 -10,-39 6,-52 21,-18 40,-39 55,-62 48,-71 67,-165 65,-255 -3,-88 -28,-172 -70,-224 -10,-12 -21,-23 -33,-31 -17,-11 -22,-34 -11,-52 8,-12 23,-18 36,-16 107,10 342,-17 495,-75 45,-17 81,-36 103,-57 15,-14 22,-28 17,-42 -5,-16 -23,-36 -55,-58 -49,-34 -232,-59 -427,-73 -229,-16 -472,-15 -543,8 -14,5 -28,9 -40,13 -370,128 -612,335 -730,605 -119,271 -114,608 11,995 6,19 12,36 17,51 1,1 8,10 17,20 1,1 -1,2 -4,3l-3 2c559,-24 709,-121 884,-234l6 -3c17,-11 40,-6 52,11 11,18 6,41 -12,52l-5 4c-185,118 -343,220 -923,246 -16,0 -36,-14 -51,-31 -14,-15 -28,-35 -32,-45 -6,-19 -12,-36 -17,-53 -131,-405 -135,-760 -9,-1048 127,-290 384,-510 775,-646 15,-5 29,-9 41,-14 79,-25 334,-27 571,-11 206,14 403,44 464,86 47,33 74,65 85,96 15,46 -1,86 -38,121 -29,28 -74,52 -127,72 -127,48 -310,77 -438,81 41,64 66,153 69,245 3,104 -21,214 -77,299 -20,29 -43,56 -71,78zm-1144 692c-4,1 -10,3 -4,3l1 -1 3 -2z"/>
   <path class="fil7" d="M1927 2010l0 0zm56 777l169 -2c66,0 65,-101 -1,-100l-169 1c-1,-122 -1,-245 -2,-368 315,-35 271,-311 -53,-308 -332,4 -358,279 -48,309 2,221 3,442 5,663 0,28 23,50 51,50l211 -2c66,-1 65,-102 -1,-101l-161 2 -1 -144zm-53 -567l-133 -25c-46,-22 -46,-35 0,-57 33,-16 78,-27 130,-27l132 25c46,22 46,35 0,57 -32,16 -78,27 -129,27z"/>
   <path class="fil5" d="M1870 1982l0 0zm55 777l169 -2c66,-1 66,-102 -1,-101l-169 2c-1,-123 -1,-246 -2,-369 316,-35 272,-311 -52,-307 -332,3 -359,278 -48,308 2,221 2,442 4,663 1,28 23,50 51,50l212 -2c66,-1 65,-101 -1,-101l-161 2 -2 -143zm-53 -568l-132 -24c-46,-22 -46,-35 0,-58 32,-16 78,-26 130,-27l132 25c46,22 46,35 0,58 -32,16 -78,26 -130,26z"/>
   <path class="fil3" d="M2031 1656c0,32 -1,65 -2,98 -2,32 -4,63 -7,93l-75 -8c3,-28 5,-57 7,-89 1,-28 2,-60 2,-94l75 0zm-123 489c-45,0 -78,-59 -98,-153 -16,-79 -26,-186 -26,-304 0,-118 10,-225 26,-304 20,-94 53,-152 98,-152l0 75c-4,0 -13,35 -24,92 -15,74 -25,176 -25,289 0,114 10,216 25,289 11,57 20,92 24,92l0 76z"/>
   <path class="fil3" d="M1041 1706c-15,-15 -15,-38 0,-53 14,-15 38,-15 53,-1 30,30 57,63 79,97 46,72 73,152 75,228 1,79 -23,153 -80,211 -15,15 -33,29 -52,42 -18,11 -41,6 -52,-11 -11,-18 -6,-41 11,-52 15,-10 28,-21 39,-32 42,-42 60,-97 59,-156 -2,-62 -24,-128 -64,-189 -19,-30 -42,-58 -68,-84z"/>
   <path class="fil3" d="M786 1877c-13,-16 -11,-39 5,-52 16,-14 40,-11 53,5 155,191 135,337 80,430 -25,42 -57,74 -84,93 -45,33 -89,28 -99,8l0 0c-7,-12 -7,-25 1,-38 10,-18 33,-24 51,-14 5,3 9,6 12,10 -5,-10 -11,-25 -9,-26 20,-15 45,-39 64,-71 42,-72 55,-186 -74,-345z"/>
  </g>
 </g>
</svg>
