<?xml version="1.0" encoding="UTF-8"?>
<!DOCTYPE svg PUBLIC "-//W3C//DTD SVG 1.1//EN" "http://www.w3.org/Graphics/SVG/1.1/DTD/svg11.dtd">
<!-- Creator: CorelDRAW X7 -->
<svg xmlns="http://www.w3.org/2000/svg" xml:space="preserve" width="4.39712in" height="6.92621in" version="1.1" style="shape-rendering:geometricPrecision; text-rendering:geometricPrecision; image-rendering:optimizeQuality; fill-rule:evenodd; clip-rule:evenodd"
viewBox="0 0 17984 28328"
 xmlns:xlink="http://www.w3.org/1999/xlink">
 <defs>
  <style type="text/css">
   <![CDATA[
    .str4 {stroke:#1B1D4E;stroke-width:170.409;stroke-linecap:round;stroke-linejoin:round}
    .str6 {stroke:#F9E95E;stroke-width:170.409;stroke-linecap:round;stroke-linejoin:round}
    .str0 {stroke:#1B1D4E;stroke-width:113.601;stroke-linecap:round;stroke-linejoin:round}
    .str2 {stroke:#71D9FC;stroke-width:113.601;stroke-linecap:round;stroke-linejoin:round}
    .str3 {stroke:white;stroke-width:113.601;stroke-linecap:round;stroke-linejoin:round}
    .str5 {stroke:#1B1D4E;stroke-width:28.3881;stroke-linecap:round;stroke-linejoin:round}
    .str1 {stroke:#1B1D4E;stroke-width:28.4042;stroke-linecap:round;stroke-linejoin:round}
    .fil2 {fill:none}
    .fil4 {fill:#1B1D4E}
    .fil3 {fill:#71D9FC}
    .fil5 {fill:#7268FD}
    .fil1 {fill:#A2FFC8}
    .fil7 {fill:#F9E95E}
    .fil6 {fill:#F9E95E}
    .fil0 {fill:white}
   ]]>
  </style>
    <clipPath id="id0">
     <path d="M3600 2293l3570 -1628c408,-186 814,367 814,814l0 2750c0,448 -407,629 -814,815l-3570 1628c-407,186 -815,-366 -815,-814l0 -2750c0,-448 407,-629 815,-815z"/>
    </clipPath>
    <clipPath id="id1">
     <path d="M2472 1543l1069 -487c121,-56 243,110 243,243l0 139c0,134 -122,188 -243,244l-1069 487c-121,55 -243,-110 -243,-244l0 -138c0,-134 121,-188 243,-244z"/>
    </clipPath>
    <clipPath id="id2">
     <path d="M4440 6677l686 -313c78,-36 156,70 156,156l0 89c0,86 -78,121 -156,157l-686 313c-78,35 -156,-71 -156,-157l0 -89c0,-86 78,-121 156,-156z"/>
    </clipPath>
    <clipPath id="id3">
     <path d="M11373 2198c-390,-368 170,-744 313,-756 -88,-123 178,-679 640,-688 596,-11 443,-78 1064,143 248,-176 1663,-356 2138,2131 104,547 -389,1679 -1118,1720 -193,10 -327,-321 -505,-224 -6,-28 -669,-606 -749,-716 -168,-232 -1131,-1807 -1151,-1797 -211,113 -439,369 -632,187z"/>
    </clipPath>
    <clipPath id="id4">
     <path d="M11695 4970c-189,8 -1460,121 -1575,-72 -159,-265 62,-1776 223,-2161 780,-106 943,-244 1098,-664 624,-158 669,-233 1325,639 667,886 638,1010 1108,1718 64,96 -315,88 -165,369l231 555c-7,64 -1256,805 -1553,706l-692 -1090z"/>
    </clipPath>
    <clipPath id="id5">
     <path d="M6837 3447c534,-891 870,229 201,176 -222,-18 -496,379 -110,407 101,7 237,55 439,68 404,26 660,1086 835,817 88,-137 763,-806 771,-1009 7,-190 -44,76 -181,-441 -118,-445 -348,-1231 -734,-1392 -39,-16 -88,4 -136,17 -83,23 -160,-231 -531,-199 -140,-132 -384,-236 -378,-41 8,236 220,619 244,841 -16,-96 -515,-81 -612,408 -56,287 8,373 192,348z"/>
    </clipPath>
    <clipPath id="id6">
     <path d="M9167 4086l2468 3206c-389,227 -958,812 -1278,1194l-2072 -3270c75,-41 730,-811 882,-1130z"/>
    </clipPath>
    <clipPath id="id7">
     <path d="M11512 6697c-57,-161 -56,-284 41,-398 63,-74 172,-138 320,-220l1990 -1104c679,72 612,364 531,660 455,379 2310,2258 2754,3251 -1391,138 -2485,2377 -3168,2411 -2662,130 -1376,-2855 -4377,-2616 371,-1034 1753,-1881 1909,-1984z"/>
    </clipPath>
    <clipPath id="id8">
     <path d="M10120 4898c108,181 1956,144 1922,-63 -312,-297 -90,-1109 230,-1148 -571,-178 -1270,-481 -1635,-997 -87,17 -185,32 -294,47 -133,318 -397,1870 -223,2161z"/>
    </clipPath>
    <clipPath id="id9">
     <path d="M4288 3286c-337,280 -538,840 -608,1290 -70,449 -9,788 177,625 128,-112 266,-150 379,-248 113,-98 201,-255 228,-606 6,-81 11,-209 10,-341 -1,-132 -7,-267 -22,-362 -44,-276 -65,-440 -164,-358zm544 -269c336,-53 537,309 607,689 70,380 10,779 -176,800 -128,14 -267,113 -379,127 -113,14 -201,-57 -228,-381 -6,-74 -11,-198 -10,-331 0,-132 7,-274 22,-384 44,-319 65,-505 164,-520z"/>
    </clipPath>
    <clipPath id="id10">
     <path d="M8052 8465c-801,-1839 -2084,2917 -247,3129 366,42 741,118 741,116l647 -1077c444,0 1396,-112 1327,-674 -45,-362 -259,-638 -359,-1020 122,-153 224,-283 217,-392 -3,-34 -24,-73 -58,-116l-603 -690c-40,-126 -207,-844 -742,-653 -449,160 -881,1473 -923,1377z"/>
    </clipPath>
    <clipPath id="id11">
     <path d="M10018 8086c508,-347 460,-1067 -253,-1431 373,-42 552,69 595,57 477,-128 -563,-1097 -1596,-497 -771,-211 -1521,149 -2012,685 -842,920 -633,1816 -1197,2444 -763,848 -1562,615 -2255,863 -893,321 -1249,1070 -1248,1964 2,919 968,1585 1574,1542 442,-32 1195,-143 1560,-571 996,263 2363,250 2556,-1306 96,-779 -279,-1304 188,-1842 132,-151 0,-332 28,-386 -166,184 -988,157 -770,-678 69,-266 557,-568 891,-74 181,1040 920,-915 896,-1768 105,-72 1029,1008 1043,998z"/>
    </clipPath>
    <clipPath id="id12">
     <path d="M11840 8189l412 0c89,0 163,73 163,162l0 1467 210 0c27,0 50,23 50,50l0 223c0,27 -23,49 -50,49l-210 0 0 62c0,89 -74,163 -163,163l-412 0c-89,0 -163,-74 -163,-163l0 -62 -210 0c-27,0 -50,-22 -50,-49l0 -125c0,-28 23,-50 50,-50l210 0 0 -1565c0,-89 74,-162 163,-162z"/>
    </clipPath>
    <clipPath id="id13">
     <path d="M10663 12099c141,-475 253,-1713 322,-1855 90,-189 416,-668 603,-771 277,-72 625,-98 784,-6 79,45 78,152 20,222 -52,63 -245,114 -469,191 -187,65 -421,511 -397,587 121,-117 199,-177 363,-277 107,76 376,168 497,461 50,54 80,357 66,548 -14,198 -112,136 -216,430 -88,252 -164,500 -243,735 -220,60 -1375,-71 -1330,-265z"/>
    </clipPath>
    <clipPath id="id14">
     <path d="M11432 17181c-832,260 -1464,826 -1759,1428 -159,326 -215,324 -173,684 1367,21 2626,1472 3091,2612 540,1325 4355,2076 4660,213 77,-471 -87,-1319 -201,-1754 168,-58 600,-160 840,-293 -137,-897 -720,-1989 -1676,-2824 -154,-135 -859,-621 -2011,-549 -1124,71 -2337,347 -2771,483z"/>
    </clipPath>
    <clipPath id="id15">
     <path d="M10290 14833l3149 1168c552,205 1579,-1222 797,-2394 839,622 1151,-304 834,-888 -280,-513 -1475,-632 -1205,473 0,14 -1162,-809 -2285,-372 -529,-386 -2309,602 -1290,2013z"/>
    </clipPath>
    <clipPath id="id16">
     <path d="M11987 17797l-363 -1160c-265,81 -792,28 -1191,-339 -743,-683 328,-2674 734,-2814 179,365 977,1787 1975,1556 73,-136 544,-344 656,-40 140,380 -71,757 -408,825l798 1200c105,112 31,243 44,382 27,287 9,613 -223,902 -359,445 -1019,201 -1364,799 -256,-471 -559,-183 -644,-630 -34,-181 -41,-406 -14,-681z"/>
    </clipPath>
    <clipPath id="id17">
     <path d="M8353 18595c7,-85 252,-1486 490,-2063 145,-351 303,-331 419,154 134,-305 688,36 839,425 -68,158 -174,1248 -186,1444 -16,268 -63,382 -132,429 -246,170 -1451,-142 -1430,-389z"/>
    </clipPath>
    <clipPath id="id18">
     <path d="M11846 17346c25,162 586,1329 841,1506 339,-255 1506,-2150 1516,-2154 -55,12 151,-42 318,-6 -65,668 -487,2438 -495,2433l-666 -413 -741 649 -425 -540c-215,31 -537,132 -777,315 24,-495 180,-1631 429,-1790z"/>
    </clipPath>
    <clipPath id="id19">
     <path d="M14438 16922c-5,455 -19,1398 154,2360 741,-61 1266,-114 1772,-433 6,-4 -395,-1662 -445,-1830 -43,-148 -89,-270 -139,-353 -56,-91 -222,-48 -268,50 -11,-159 -580,-223 -885,-92 -180,77 -160,142 -189,298z"/>
    </clipPath>
    <clipPath id="id20">
     <path d="M16418 19135c-624,291 -977,401 -1712,427 147,769 478,2245 873,2844 320,484 695,845 1306,614 175,-66 358,-179 551,-352 472,-423 607,-1294 301,-2530 -197,70 -350,120 -509,168 -62,19 -125,38 -191,58 -114,-148 -533,-985 -619,-1229z"/>
    </clipPath>
    <clipPath id="id21">
     <path d="M12766 16255c-166,-360 -180,-838 -97,-1223 -48,-12 -96,-28 -143,-47 -456,80 -1450,69 -1623,-84 -26,-22 -619,290 -688,325 -81,427 -44,831 218,1072 319,294 720,386 1003,370 447,-57 938,-221 1330,-413z"/>
    </clipPath>
    <clipPath id="id22">
     <path d="M2157 22543c-2,-139 -4,-258 -1,-386 10,-477 -83,-954 303,-1452 148,-190 108,-508 -209,-481 -177,15 -326,305 -387,477 -9,-55 -337,-682 -451,-1155 -73,-304 -532,-231 -518,35 -114,-91 -870,723 -889,940 -61,716 442,1821 740,2644 454,1253 965,1604 1412,-622z"/>
    </clipPath>
    <clipPath id="id23">
     <path d="M4144 16869c1117,-129 2374,1758 3409,1111 799,-500 1078,-3201 -246,-2786 -158,-465 -558,-993 -944,-893 -366,96 -1061,463 -1407,556 -326,88 -708,2 -813,-294 -373,201 -315,498 -256,595 -409,-65 -785,702 -292,883 -708,45 -594,1107 549,828z"/>
    </clipPath>
    <clipPath id="id24">
     <path d="M6221 15822c139,271 616,1221 830,1633 209,-492 405,-782 695,-707 472,123 425,1055 -201,1216l676 1467c826,1792 -3241,2642 -2212,349l-174 -602c-2122,913 -1770,-1675 -1691,-2309 10,-82 2078,-941 2077,-1047z"/>
    </clipPath>
    <clipPath id="id25">
     <path d="M6319 21200c42,140 135,411 207,485 171,177 179,215 353,-10 50,-65 149,-326 162,-449 0,-3 -130,-412 -397,-379 -96,13 -180,116 -325,353z"/>
    </clipPath>
    <clipPath id="id26">
     <path d="M6364 22687l464 1133 365 -951 -314 -1194 -353 10 -162 1002z"/>
    </clipPath>
    <clipPath id="id27">
     <path d="M5996 19735c245,893 624,1022 648,1112 -264,325 -373,765 -410,790 -33,21 -293,-589 -408,-1495 -19,-154 -77,-170 170,-407z"/>
    </clipPath>
    <clipPath id="id28">
     <path d="M6644 20847c422,613 582,975 653,931 75,-46 881,-1574 1044,-2150 48,-168 -103,-376 -164,-293 -477,649 -938,1085 -1533,1512z"/>
    </clipPath>
    <clipPath id="id29">
     <path d="M7239 22515l3172 -191 155 2567c-464,-93 -900,-204 -1292,-338 -1,26 -1,52 -2,78 -14,521 -50,982 -137,1553 -18,120 -39,245 -62,377 18,18 39,37 62,56l-1643 99 -253 -4201z"/>
    </clipPath>
    <clipPath id="id30">
     <path d="M9165 24485c-262,-543 -1122,-785 -1657,-254 -56,45 -200,17 -234,71 -63,101 -77,187 -15,406 -22,363 41,918 110,1098 294,168 1285,331 1766,174 87,-519 123,-938 137,-1412 -32,-35 -68,-63 -107,-83z"/>
    </clipPath>
    <clipPath id="id31">
     <path d="M8791 21855c202,-12 376,142 388,344 1,3 1,7 1,10l372 -22 24 399 -1477 89 -24 -399 373 -23c-1,-3 -1,-7 -1,-10 -12,-202 142,-376 344,-388zm-117 385l280 -17c0,-4 0,-7 -1,-10 -4,-78 -71,-137 -148,-132 -78,4 -137,71 -132,148 0,4 0,7 1,11z"/>
    </clipPath>
 </defs>
 <g id="Layer_x0020_1">
  <metadata id="CorelCorpID_0Corel-Layer"/>
  <g id="_2057023126640">
   <path class="fil0" d="M3600 2293l3570 -1628c408,-186 814,367 814,814l0 2750c0,448 -407,629 -814,815l-3570 1628c-407,186 -815,-366 -815,-814l0 -2750c0,-448 407,-629 815,-815z"/>
   <g style="clip-path:url(#id0)">
    <g>
     <path id="1" class="fil1" d="M3860 2456l3571 -1628c407,-186 814,366 814,814l0 2750c0,448 -407,629 -814,815l-3571 1628c-407,186 -814,-366 -814,-814l0 -2750c0,-448 407,-629 814,-815z"/>
    </g>
   </g>
   <path class="fil2" d="M3600 2293l3570 -1628c408,-186 814,367 814,814l0 2750c0,448 -407,629 -814,815l-3570 1628c-407,186 -815,-366 -815,-814l0 -2750c0,-448 407,-629 815,-815z"/>
   <path class="fil2 str0" d="M7170 5044l-3570 1628c-407,186 -815,-366 -815,-814l0 -2750c0,-448 407,-629 815,-815l3570 -1628c408,-186 814,367 814,814"/>
   <path class="fil0" d="M2472 1543l1069 -487c121,-56 243,110 243,243l0 139c0,134 -122,188 -243,244l-1069 487c-121,55 -243,-110 -243,-244l0 -138c0,-134 121,-188 243,-244z"/>
   <g style="clip-path:url(#id1)">
    <g>
     <path id="1" class="fil1" d="M2686 1655l1068 -488c122,-55 244,110 244,244l0 139c0,134 -122,188 -244,243l-1068 488c-121,55 -243,-110 -243,-244l0 -139c0,-134 121,-188 243,-243z"/>
    </g>
   </g>
   <path class="fil2" d="M2472 1543l1069 -487c121,-56 243,110 243,243l0 139c0,134 -122,188 -243,244l-1069 487c-121,55 -243,-110 -243,-244l0 -138c0,-134 121,-188 243,-244z"/>
   <path class="fil0" d="M4440 6677l686 -313c78,-36 156,70 156,156l0 89c0,86 -78,121 -156,157l-686 313c-78,35 -156,-71 -156,-157l0 -89c0,-86 78,-121 156,-156z"/>
   <g style="clip-path:url(#id2)">
    <g>
     <path id="1" class="fil1" d="M4578 6748l685 -312c79,-36 157,70 157,156l0 89c0,86 -78,121 -157,156l-685 313c-78,36 -157,-70 -157,-156l0 -89c0,-86 78,-121 157,-157z"/>
    </g>
   </g>
   <path class="fil2" d="M4440 6677l686 -313c78,-36 156,70 156,156l0 89c0,86 -78,121 -156,157l-686 313c-78,35 -156,-71 -156,-157l0 -89c0,-86 78,-121 156,-156z"/>
   <path class="fil2 str0" d="M3018 1920l-546 249c-121,55 -243,-110 -243,-244l0 -138c0,-134 121,-188 243,-244l1069 -487c121,-56 243,110 243,243l0 139"/>
   <path class="fil2 str0" d="M4790 6919l-350 160c-78,35 -156,-71 -156,-157l0 -89c0,-86 78,-121 156,-156l686 -313c78,-36 156,70 156,156l0 89"/>
   <path class="fil1" d="M1841 1235l483 -220c55,-25 110,50 110,110l0 63c0,60 -55,85 -110,110l-483 220c-55,25 -110,-49 -110,-110l0 -63c0,-60 55,-85 110,-110z"/>
   <path class="fil1" d="M6769 225l483 -220c55,-25 110,50 110,110l0 63c0,60 -55,85 -110,110l-483 220c-55,25 -110,-49 -110,-110l0 -63c0,-60 55,-85 110,-110z"/>
   <path class="fil1" d="M3219 7173l483 -220c55,-26 110,49 110,110l0 62c0,61 -55,85 -110,110l-483 221c-55,25 -110,-50 -110,-110l0 -63c0,-61 55,-85 110,-110z"/>
   <path class="fil0" d="M11373 2198c-390,-368 170,-744 313,-756 -88,-123 178,-679 640,-688 596,-11 443,-78 1064,143 248,-176 1663,-356 2138,2131 104,547 -389,1679 -1118,1720 -193,10 -327,-321 -505,-224 -6,-28 -669,-606 -749,-716 -168,-232 -1131,-1807 -1151,-1797 -211,113 -439,369 -632,187z"/>
   <g style="clip-path:url(#id3)">
    <g>
     <path id="1" class="fil1" d="M11145 2410c-390,-368 170,-744 313,-756 -88,-124 178,-680 640,-688 596,-11 443,-78 1064,143 248,-176 1663,-356 2138,2130 104,548 -389,1680 -1118,1720 -193,11 -327,-321 -505,-223 -6,-29 -669,-606 -749,-717 -168,-232 -1131,-1807 -1151,-1796 -211,112 -439,368 -632,187z"/>
    </g>
   </g>
   <path class="fil2 str0" d="M11373 2198c-390,-368 170,-744 313,-756 -88,-123 178,-679 640,-688 596,-11 443,-78 1064,143 248,-176 1663,-356 2138,2131 104,547 -389,1679 -1118,1720 -193,10 -327,-321 -505,-224 -6,-28 -669,-606 -749,-716 -168,-232 -1131,-1807 -1151,-1797 -211,113 -439,369 -632,187z"/>
   <path class="fil0" d="M11695 4970c-189,8 -1460,121 -1575,-72 -159,-265 62,-1776 223,-2161 780,-106 943,-244 1098,-664 624,-158 669,-233 1325,639 667,886 638,1010 1108,1718 64,96 -315,88 -165,369l231 555c-7,64 -1256,805 -1553,706l-692 -1090z"/>
   <g style="clip-path:url(#id4)">
    <g>
     <path id="1" class="fil3" d="M11548 5100c-188,9 -1459,121 -1575,-72 -158,-265 62,-1776 223,-2161 781,-106 944,-244 1099,-663 -25,-137 -172,56 140,5 278,-45 535,-147 837,-61 -361,1134 252,1471 403,1608 -20,37 -47,161 31,325l468 500c2,4 195,217 355,252 4,28 14,59 33,96l232 556c-7,64 -1257,805 -1553,706l-693 -1091z"/>
    </g>
   </g>
   <path class="fil2 str0" d="M11695 4970c-189,8 -1460,121 -1575,-72 -159,-265 62,-1776 223,-2161 780,-106 943,-244 1098,-664 624,-158 669,-233 1325,639 667,886 638,1010 1108,1718 64,96 -315,88 -165,369l231 555c-7,64 -1256,805 -1553,706l-692 -1090z"/>
   <path class="fil4 str0" d="M12360 2291c-227,1115 392,1263 543,1400 -20,37 -130,71 -132,259l550 501c2,6 536,593 563,-26 1,-28 -1440,-2126 -1524,-2134z"/>
   <path class="fil0" d="M6837 3447c534,-891 870,229 201,176 -222,-18 -496,379 -110,407 101,7 237,55 439,68 404,26 660,1086 835,817 88,-137 763,-806 771,-1009 7,-190 -44,76 -181,-441 -118,-445 -348,-1231 -734,-1392 -39,-16 -88,4 -136,17 -83,23 -160,-231 -531,-199 -140,-132 -384,-236 -378,-41 8,236 220,619 244,841 -16,-96 -515,-81 -612,408 -56,287 8,373 192,348z"/>
   <g style="clip-path:url(#id5)">
    <g>
     <path id="1" class="fil5" d="M6798 4225c100,8 237,56 439,69 404,25 519,760 834,816 451,81 1427,-408 772,-1009 -140,-128 -44,77 -181,-441 -118,-444 -348,-1230 -734,-1392 -39,-16 -88,5 -137,18 -82,22 -159,-231 -530,-200 -140,-132 -384,-236 -378,-41 7,236 194,243 218,465 -16,-96 -490,296 -586,784 -56,287 -284,890 283,931z"/>
    </g>
   </g>
   <path class="fil2" d="M6837 3447c534,-891 870,229 201,176 -222,-18 -496,379 -110,407 101,7 237,55 439,68 404,26 660,1086 835,817 88,-137 763,-806 771,-1009 7,-190 -44,76 -181,-441 -118,-445 -348,-1231 -734,-1392 -39,-16 -88,4 -136,17 -83,23 -160,-231 -531,-199 -140,-132 -384,-236 -378,-41 8,236 220,619 244,841 -16,-96 -515,-81 -612,408 -56,287 8,373 192,348z"/>
   <path class="fil2 str0" d="M7391 1891c-140,-132 -384,-236 -378,-41 8,236 220,619 244,841 -16,-96 -515,-81 -612,408 -56,287 8,373 192,348 534,-891 870,229 201,176 -222,-18 -496,379 -110,407 101,7 237,55 439,68 404,26 660,1086 835,817 88,-137 763,-806 771,-1009 7,-190 -44,76 -181,-441 -83,-313 -221,-796 -431,-1110"/>
   <path class="fil0" d="M9167 4086l2468 3206c-389,227 -958,812 -1278,1194l-2072 -3270c75,-41 730,-811 882,-1130z"/>
   <g style="clip-path:url(#id6)">
    <g>
     <path id="1" class="fil3" d="M8972 4249l2468 3206c-390,227 -959,812 -1278,1193l-2073 -3269c75,-41 730,-811 883,-1130z"/>
    </g>
   </g>
   <path class="fil2 str0" d="M9167 4086l2468 3206c-389,227 -958,812 -1278,1194l-2072 -3270c75,-41 730,-811 882,-1130z"/>
   <path class="fil0" d="M11512 6697c-57,-161 -56,-284 41,-398 63,-74 172,-138 320,-220l1990 -1104c679,72 612,364 531,660 455,379 2310,2258 2754,3251 -1391,138 -2485,2377 -3168,2411 -2662,130 -1376,-2855 -4377,-2616 371,-1034 1753,-1881 1909,-1984z"/>
   <g style="clip-path:url(#id7)">
    <g>
     <path id="1" class="fil1" d="M11665 6825c-57,-161 -399,-93 -303,-207 63,-74 172,-138 320,-220l1991 -1104c679,72 611,365 530,660 455,379 2310,2258 2754,3251 -1391,139 -2485,2377 -3168,2411 -2662,130 -1376,-2854 -4377,-2616 371,-1034 2097,-2072 2253,-2175z"/>
    </g>
   </g>
   <path class="fil2" d="M11512 6697c-57,-161 -56,-284 41,-398 63,-74 172,-138 320,-220l1990 -1104c679,72 612,364 531,660 455,379 2310,2258 2754,3251 -1391,138 -2485,2377 -3168,2411 -2662,130 -1376,-2855 -4377,-2616 371,-1034 1753,-1881 1909,-1984z"/>
   <path class="fil2 str0" d="M9603 8681c371,-1034 1753,-1881 1909,-1984 -57,-161 -56,-284 41,-398 63,-74 172,-138 320,-220l1990 -1104c679,72 612,364 531,660 455,379 2310,2258 2754,3251"/>
   <path class="fil2 str0" d="M11788 2255c85,58 150,136 198,232"/>
   <path class="fil0" d="M10120 4898c108,181 1956,144 1922,-63 -312,-297 -90,-1109 230,-1148 -571,-178 -1270,-481 -1635,-997 -87,17 -185,32 -294,47 -133,318 -397,1870 -223,2161z"/>
   <g style="clip-path:url(#id8)">
    <g>
     <path id="1" class="fil1" d="M9892 4963c108,181 2070,177 2036,-30 -312,-297 -220,-1158 100,-1197 -571,-178 -1254,-514 -1619,-1030 -87,17 -185,81 -294,96 -133,318 -397,1870 -223,2161z"/>
    </g>
   </g>
   <path class="fil2 str0" d="M10120 4898c108,181 1956,144 1922,-63 -312,-297 -90,-1109 230,-1148 -571,-178 -1270,-481 -1635,-997 -87,17 -185,32 -294,47 -133,318 -397,1870 -223,2161z"/>
   <path class="fil3" d="M12771 3950c46,-181 251,-214 416,-106 190,125 265,702 -118,807 -168,46 -350,18 -448,-248l150 -453z"/>
   <path class="fil2 str0" d="M12771 3950c46,-181 316,-247 481,-138 190,124 200,783 -183,888 -168,46 -350,-31 -448,-297"/>
   <circle class="fil4 str1" cx="11507" cy="2685" r="69"/>
   <path class="fil2 str0" d="M4560 3277c0,-165 0,-331 0,-497m0 497c-86,114 -172,229 -258,343m258 -343c86,29 171,59 257,89"/>
   <path class="fil0" d="M4288 3286c-337,280 -538,840 -608,1290 -70,449 -9,788 177,625 128,-112 266,-150 379,-248 113,-98 201,-255 228,-606 6,-81 11,-209 10,-341 -1,-132 -7,-267 -22,-362 -44,-276 -65,-440 -164,-358zm544 -269c336,-53 537,309 607,689 70,380 10,779 -176,800 -128,14 -267,113 -379,127 -113,14 -201,-57 -228,-381 -6,-74 -11,-198 -10,-331 0,-132 7,-274 22,-384 44,-319 65,-505 164,-520z"/>
   <g style="clip-path:url(#id9)">
    <g>
     <path id="1" class="fil3" d="M4386 3546c-337,280 -538,840 -608,1290 -70,450 -10,788 176,626 128,-113 267,-151 380,-248 113,-98 201,-256 228,-606 6,-81 10,-209 10,-341 -1,-132 -7,-268 -22,-363 -44,-275 -65,-440 -164,-358zm543 -269c337,-53 538,309 608,690 70,379 10,779 -176,799 -128,15 -267,114 -380,128 -113,13 -200,-57 -227,-381 -7,-75 -11,-199 -11,-331 1,-133 7,-274 22,-384 45,-319 66,-505 164,-521z"/>
    </g>
   </g>
   <path class="fil2 str0" d="M4288 3286c-337,280 -538,840 -608,1290 -70,449 -9,788 177,625 128,-112 266,-150 379,-248 113,-98 201,-255 228,-606 6,-81 11,-209 10,-341 -1,-132 -7,-267 -22,-362 -44,-276 -65,-440 -164,-358zm544 -269c336,-53 537,309 607,689 70,380 10,779 -176,800 -128,14 -267,113 -379,127 -113,14 -201,-57 -228,-381 -6,-74 -11,-198 -10,-331 0,-132 7,-274 22,-384 44,-319 65,-505 164,-520z"/>
   <line class="fil2 str0" x1="5813" y1="3115" x2="6473" y2= "2814" />
   <line class="fil2 str0" x1="5813" y1="3548" x2="6399" y2= "3280" />
   <line class="fil2 str0" x1="5813" y1="3980" x2="6452" y2= "3688" />
   <line class="fil2 str0" x1="5813" y1="4413" x2="6449" y2= "4123" />
   <path class="fil2 str0" d="M7391 1891c1,3 228,452 263,798"/>
   <path class="fil2 str0" d="M7870 2083c1,2 139,275 216,559"/>
   <path class="fil2 str0" d="M10204 3359c18,7 238,86 400,152"/>
   <line class="fil2 str0" x1="10118" y1="3810" x2="10536" y2= "3907" />
   <path class="fil2 str0" d="M12272 3687c3,1 806,40 783,66"/>
   <path class="fil2 str0" d="M12042 4868c394,-134 438,-228 655,-290"/>
   <path class="fil2 str0" d="M11986 1595c-274,73 -160,313 -127,375"/>
   <path class="fil2 str0" d="M12186 5962c-32,244 103,337 170,358"/>
   <path class="fil2 str0" d="M12675 5674c-31,243 103,336 171,358"/>
   <path class="fil2 str0" d="M13132 5402c-31,243 103,336 171,357"/>
   <path class="fil2 str0" d="M13589 5178c-31,244 103,336 171,358"/>
   <path class="fil2 str0" d="M12645 1929c-301,-65 -369,295 -307,226"/>
   <path class="fil2 str0" d="M13099 2496c-185,-82 -312,60 -374,162"/>
   <path class="fil2 str0" d="M13506 3132c-270,-234 -491,191 -390,155"/>
   <path class="fil2 str0" d="M13108 4020c-98,23 -223,206 -238,317"/>
   <path class="fil2 str0" d="M13103 4394c33,-229 -185,-235 -200,-124"/>
   <polygon class="fil1" points="16853,11651 16853,11116 16395,11116 16395,10658 15861,10658 15861,11116 15402,11116 15402,11651 15861,11651 15861,12109 16395,12109 16395,11651 "/>
  </g>
  <g id="_2057023072784">
   <polygon class="fil5" points="14028,8031 14159,9006 15135,9138 14159,9269 14028,10245 13896,9269 12921,9138 13896,9006 "/>
   <polygon class="fil5" points="12145,6514 12253,7318 13057,7426 12253,7534 12145,8338 12037,7534 11233,7426 12037,7318 "/>
   <polygon class="fil5" points="13170,7629 13228,8059 13659,8117 13228,8175 13170,8606 13112,8175 12681,8117 13112,8059 "/>
   <path class="fil0" d="M8052 8465c-801,-1839 -2084,2917 -247,3129 366,42 741,118 741,116l647 -1077c444,0 1396,-112 1327,-674 -45,-362 -259,-638 -359,-1020 122,-153 224,-283 217,-392 -3,-34 -24,-73 -58,-116l-603 -690c-40,-126 -207,-844 -742,-653 -449,160 -881,1473 -923,1377z"/>
   <g style="clip-path:url(#id10)">
    <g>
     <path id="1" class="fil3" d="M9500 10934c478,-35 1160,-187 1101,-665 -44,-363 -258,-639 -359,-1021 72,-89 137,-171 177,-246 28,-52 43,-100 40,-145 -1,-19 -8,-40 -21,-62 -5,-11 -12,-22 -20,-33 -5,-7 -11,-14 -16,-21l-302 -345c-15,10 -893,-1017 -1034,-1002 -3,1 -6,2 -10,3 24,853 -562,2351 -895,1768 -335,-699 -823,-376 -892,75 -96,627 242,791 532,768 -11,-28 -17,-59 -17,-90 0,-141 115,-256 255,-256 141,0 256,66 256,207 0,120 -192,262 -284,386 -215,292 -58,881 -43,1478 39,83 125,-262 847,-25l459 -765c27,0 56,-1 87,-1 44,-2 90,-4 139,-8z"/>
    </g>
   </g>
   <path class="fil2 str0" d="M8052 8465c-801,-1839 -2084,2917 -247,3129 366,42 741,118 741,116l647 -1077c444,0 1396,-112 1327,-674 -45,-362 -259,-638 -359,-1020 122,-153 224,-283 217,-392 -3,-34 -24,-73 -58,-116l-603 -690c-40,-126 -207,-844 -742,-653 -449,160 -881,1473 -923,1377z"/>
   <path class="fil2 str0" d="M7572 8927c110,26 250,232 267,357"/>
   <path class="fil2 str0" d="M7578 9348c-38,-258 207,-265 224,-140"/>
   <path class="fil0" d="M7772 11527c644,-347 1170,-148 1488,248 0,0 1642,2080 1640,2088 -499,2449 -5408,2429 -6939,1377 -321,-220 -530,-933 -331,-1372 755,-1670 3849,-3188 4142,-2341z"/>
   <path class="fil2 str0" d="M3951 13333c1071,-1436 3559,-2561 3821,-1806 644,-347 1170,-148 1488,248 0,0 279,353 606,769"/>
   <path class="fil0" d="M10018 8086c508,-347 460,-1067 -253,-1431 373,-42 552,69 595,57 477,-128 -563,-1097 -1596,-497 -771,-211 -1521,149 -2012,685 -842,920 -633,1816 -1197,2444 -763,848 -1562,615 -2255,863 -893,321 -1249,1070 -1248,1964 2,919 968,1585 1574,1542 442,-32 1195,-143 1560,-571 996,263 2363,250 2556,-1306 96,-779 -279,-1304 188,-1842 132,-151 0,-332 28,-386 -166,184 -988,157 -770,-678 69,-266 557,-568 891,-74 181,1040 920,-915 896,-1768 105,-72 1029,1008 1043,998z"/>
   <g style="clip-path:url(#id11)">
    <g>
     <path id="1" class="fil4" d="M9683 8391c507,-347 655,-1149 284,-1512 373,-43 552,68 595,56 477,-128 -563,-1096 -1596,-497 -771,-210 -1521,149 -2012,686 -842,920 -633,1816 -1197,2443 -763,849 -1562,615 -2255,864 -893,321 -1331,1346 -1329,2240 2,919 1049,1732 1655,1689 442,-32 796,-425 1161,-853 997,263 2762,109 2955,-1448 97,-778 -279,-1304 188,-1841 132,-152 1,-333 28,-386 212,-666 -697,-496 -770,-678 -104,-255 273,-292 608,202 180,1041 1203,-1192 1179,-2045 105,-72 492,1090 506,1080z"/>
    </g>
   </g>
   <path class="fil2 str0" d="M10018 8086c508,-347 460,-1067 -253,-1431 373,-42 552,69 595,57 477,-128 -563,-1097 -1596,-497 -771,-211 -1521,149 -2012,685 -842,920 -633,1816 -1197,2444 -763,848 -1562,615 -2255,863 -893,321 -1249,1070 -1248,1964 2,919 968,1585 1574,1542 442,-32 1195,-143 1560,-571 996,263 2363,250 2556,-1306 96,-779 -279,-1304 188,-1842 132,-151 0,-332 28,-386 -166,184 -988,157 -770,-678 69,-266 557,-568 891,-74 181,1040 920,-915 896,-1768 105,-72 1029,1008 1043,998z"/>
   <path class="fil0" d="M12036 7961l411 0c90,0 163,73 163,162l0 1467 210 0c28,0 50,23 50,50l0 223c0,27 -22,49 -50,49l-210 0 0 62c0,89 -73,163 -163,163l-411 0c-90,0 -163,-74 -163,-163l0 -62 -211 0c-27,0 -49,-22 -49,-49l0 -125c0,-28 22,-50 49,-50l211 0 0 -1565c0,-89 73,-162 163,-162z"/>
   <path class="fil0" d="M11840 8189l412 0c89,0 163,73 163,162l0 1467 210 0c27,0 50,23 50,50l0 223c0,27 -23,49 -50,49l-210 0 0 62c0,89 -74,163 -163,163l-412 0c-89,0 -163,-74 -163,-163l0 -62 -210 0c-27,0 -50,-22 -50,-49l0 -125c0,-28 23,-50 50,-50l210 0 0 -1565c0,-89 74,-162 163,-162z"/>
   <g style="clip-path:url(#id12)">
    <g>
     <path id="1" class="fil1" d="M12036 8384l411 0c90,0 163,73 163,163l0 1467 210 0c28,0 50,22 50,49l0 223c0,27 -22,50 -50,50l-210 0 0 61c0,90 -73,163 -163,163l-411 0c-90,0 -163,-73 -163,-163l0 -61 -211 0c-27,0 -49,-22 -49,-50l0 -125c0,-27 22,-49 49,-49l211 0 0 -1565c0,-90 73,-163 163,-163z"/>
    </g>
   </g>
   <path class="fil2" d="M11840 8189l412 0c89,0 163,73 163,162l0 1467 210 0c27,0 50,23 50,50l0 223c0,27 -23,49 -50,49l-210 0 0 62c0,89 -74,163 -163,163l-412 0c-89,0 -163,-74 -163,-163l0 -62 -210 0c-27,0 -50,-22 -50,-49l0 -125c0,-28 23,-50 50,-50l210 0 0 -1565c0,-89 74,-162 163,-162z"/>
   <path class="fil2 str0" d="M11677 9036l0 -685c0,-89 74,-162 163,-162l412 0c89,0 163,73 163,162l0 878m210 589c27,0 50,23 50,50l0 223c0,27 -23,49 -50,49l-210 0 0 62"/>
   <line class="fil2 str0" x1="12046" y1="7509" x2="12046" y2= "8189" />
   <path class="fil0" d="M10663 12099c141,-475 253,-1713 322,-1855 90,-189 416,-668 603,-771 277,-72 625,-98 784,-6 79,45 78,152 20,222 -52,63 -245,114 -469,191 -187,65 -421,511 -397,587 121,-117 199,-177 363,-277 107,76 376,168 497,461 50,54 80,357 66,548 -14,198 -112,136 -216,430 -88,252 -164,500 -243,735 -220,60 -1375,-71 -1330,-265z"/>
   <g style="clip-path:url(#id13)">
    <g>
     <path id="1" class="fil5" d="M10826 12229c141,-475 253,-1713 321,-1855 91,-189 417,-667 604,-771 276,-72 624,-98 784,-6 79,45 78,152 20,222 -52,64 -245,114 -469,192 -187,64 -584,380 -560,456 199,-366 799,251 926,732 50,55 177,-60 163,131 -14,197 -112,135 -216,429 -88,252 -164,500 -243,735 -220,60 -1375,-70 -1330,-265z"/>
    </g>
   </g>
   <path class="fil2" d="M10663 12099c141,-475 253,-1713 322,-1855 90,-189 416,-668 603,-771 277,-72 625,-98 784,-6 79,45 78,152 20,222 -52,63 -245,114 -469,191 -187,65 -421,511 -397,587 121,-117 199,-177 363,-277 107,76 376,168 497,461 50,54 80,357 66,548 -14,198 -112,136 -216,430 -88,252 -164,500 -243,735 -220,60 -1375,-71 -1330,-265z"/>
   <path class="fil2 str0" d="M12452 11199c-14,198 -112,136 -216,430 -88,252 -164,500 -243,735 -220,60 -1375,-71 -1330,-265 141,-475 253,-1713 322,-1855 90,-189 416,-668 603,-771 277,-72 625,-98 784,-6 79,45 78,152 20,222"/>
   <circle class="fil6 str0" cx="7958" cy="9608" r="255"/>
   <circle class="fil6 str0" transform="matrix(0.20928 -0.1079 0.263194 0.510483 9843.26 8225.22)" r="397"/>
   <path class="fil2 str0" d="M9602 8391c-23,144 -232,222 -289,151"/>
   <path class="fil2 str0" d="M9319 7928c-44,48 -89,134 -125,244"/>
   <path class="fil2 str0" d="M9977 8057c-43,10 -62,70 -51,125"/>
   <path class="fil2 str0" d="M9563 9330c74,239 390,200 380,-21"/>
   <path class="fil2 str0" d="M8558 10326c224,201 456,340 861,299"/>
   <path class="fil2 str0" d="M12166 10365c-33,18 -289,217 -361,289"/>
   <path class="fil2 str0" d="M12351 10665c-4,4 -245,211 -309,285"/>
  </g>
  <g id="_2057023079632">
   <polygon class="fil7" points="16218,13308 16348,14272 17313,14402 16348,14532 16218,15497 16088,14532 15124,14402 16088,14272 "/>
   <path class="fil0" d="M11432 17181c-832,260 -1464,826 -1759,1428 -159,326 -215,324 -173,684 1367,21 2626,1472 3091,2612 540,1325 4355,2076 4660,213 77,-471 -87,-1319 -201,-1754 168,-58 600,-160 840,-293 -137,-897 -720,-1989 -1676,-2824 -154,-135 -859,-621 -2011,-549 -1124,71 -2337,347 -2771,483z"/>
   <g style="clip-path:url(#id14)">
    <g>
     <path id="1" class="fil1" d="M11174 17503c-832,260 -1464,826 -1758,1428 -87,177 -22,387 -66,603 -258,1267 637,2378 1550,3116 636,514 1871,1535 2641,1692 1485,303 3187,-280 3452,-1902 77,-471 -87,-1319 -201,-1754 168,-58 601,-160 840,-293 -136,-897 -720,-1989 -1675,-2824 -155,-135 -860,-621 -2012,-549 -1124,71 -2337,347 -2771,483z"/>
    </g>
   </g>
   <path class="fil2" d="M11432 17181c-832,260 -1464,826 -1759,1428 -159,326 -215,324 -173,684 1367,21 2626,1472 3091,2612 540,1325 4355,2076 4660,213 77,-471 -87,-1319 -201,-1754 168,-58 600,-160 840,-293 -137,-897 -720,-1989 -1676,-2824 -154,-135 -859,-621 -2011,-549 -1124,71 -2337,347 -2771,483z"/>
   <path class="fil2 str0" d="M17251 22118c77,-472 -87,-1319 -201,-1754 168,-58 600,-160 840,-293 -137,-897 -720,-1989 -1676,-2824 -154,-135 -859,-621 -2011,-549 -1124,71 -2337,347 -2771,483 -832,260 -1464,826 -1759,1428 -32,66 -43,137 -47,211"/>
   <path class="fil0" d="M14592 19282c18,233 23,264 114,280 455,173 1497,-231 1712,-427 129,10 28,-269 -54,-286 -234,129 -1219,476 -1772,433z"/>
   <polygon class="fil7" points="16890,14902 17020,15866 17984,15996 17020,16126 16890,17091 16759,16126 15795,15996 16759,15866 "/>
   <path class="fil0" d="M10290 14833l3149 1168c552,205 1579,-1222 797,-2394 839,622 1151,-304 834,-888 -280,-513 -1475,-632 -1205,473 0,14 -1162,-809 -2285,-372 -529,-386 -2309,602 -1290,2013z"/>
   <g style="clip-path:url(#id15)">
    <g>
     <path id="1" class="fil4" d="M10355 15059l3148 1168c552,204 1708,-1223 926,-2395 840,622 1022,-304 705,-887 -279,-514 -1474,-632 -1205,473 0,14 -1162,-810 -2285,-373 -528,-385 -2309,603 -1289,2014z"/>
    </g>
   </g>
   <path class="fil2 str0" d="M10290 14833l3149 1168c552,205 1579,-1222 797,-2394 839,622 1151,-304 834,-888 -280,-513 -1475,-632 -1205,473 0,14 -1162,-809 -2285,-372 -529,-386 -2309,602 -1290,2013z"/>
   <path class="fil0" d="M11987 17797l-363 -1160c-265,81 -792,28 -1191,-339 -743,-683 328,-2674 734,-2814 179,365 977,1787 1975,1556 73,-136 544,-344 656,-40 140,380 -71,757 -408,825l798 1200c105,112 31,243 44,382 27,287 9,613 -223,902 -359,445 -1019,201 -1364,799 -256,-471 -559,-183 -644,-630 -34,-181 -41,-406 -14,-681z"/>
   <g style="clip-path:url(#id16)">
    <g>
     <path id="1" class="fil3" d="M11794 17894l-363 -1160c-265,81 -792,28 -1191,-339 -743,-683 328,-2674 734,-2815 179,366 976,1788 1975,1556 73,-135 544,-344 656,-39 140,380 -71,757 -408,825l797 1199c323,345 167,855 -179,1284 -358,446 -1019,201 -1363,799 -257,-470 -559,-182 -644,-629 -35,-181 -42,-406 -14,-681z"/>
    </g>
   </g>
   <path class="fil2 str0" d="M11987 17797l-363 -1160c-265,81 -792,28 -1191,-339 -743,-683 328,-2674 734,-2814 179,365 977,1787 1975,1556 73,-136 544,-344 656,-40 140,380 -71,757 -408,825l798 1200c105,112 31,243 44,382 27,287 9,613 -223,902 -359,445 -1019,201 -1364,799 -256,-471 -559,-183 -644,-630 -34,-181 -41,-406 -14,-681z"/>
   <path class="fil0" d="M8353 18595c7,-85 252,-1486 490,-2063 145,-351 303,-331 419,154 134,-305 688,36 839,425 -68,158 -174,1248 -186,1444 -16,268 -63,382 -132,429 -246,170 -1451,-142 -1430,-389z"/>
   <g style="clip-path:url(#id17)">
    <g>
     <path id="1" class="fil5" d="M8160 18692c7,-85 251,-1486 490,-2064 145,-350 302,-330 419,155 134,-305 688,36 839,424 -68,159 -174,1248 -186,1445 -16,268 -64,381 -132,429 -246,170 -1451,-143 -1430,-389z"/>
    </g>
   </g>
   <path class="fil2" d="M8353 18595c7,-85 252,-1486 490,-2063 145,-351 303,-331 419,154 134,-305 688,36 839,425 -68,158 -174,1248 -186,1444 -16,268 -63,382 -132,429 -246,170 -1451,-142 -1430,-389z"/>
   <path class="fil2 str0" d="M10101 17111c-68,158 -174,1248 -186,1444 -16,268 -63,382 -132,429 -246,170 -1451,-142 -1430,-389 7,-85 252,-1486 490,-2063 145,-351 303,-331 419,154"/>
   <path class="fil0" d="M11846 17346c25,162 586,1329 841,1506 339,-255 1506,-2150 1516,-2154 -55,12 151,-42 318,-6 -65,668 -487,2438 -495,2433l-666 -413 -741 649 -425 -540c-215,31 -537,132 -777,315 24,-495 180,-1631 429,-1790z"/>
   <g style="clip-path:url(#id18)">
    <g>
     <path id="1" class="fil1" d="M11846 17636c25,162 586,1328 841,1506 339,-255 1506,-2150 1516,-2154 -55,12 151,-42 318,-6 -65,668 -487,2438 -495,2433l-666 -413 -741 649 -425 -540c-215,31 -537,131 -777,315 24,-495 180,-1632 429,-1790z"/>
    </g>
   </g>
   <path class="fil2" d="M11846 17346c25,162 586,1329 841,1506 339,-255 1506,-2150 1516,-2154 -55,12 151,-42 318,-6 -65,668 -487,2438 -495,2433l-666 -413 -741 649 -425 -540c-215,31 -537,132 -777,315 24,-495 180,-1631 429,-1790z"/>
   <path class="fil2 str0" d="M14229 18267c-106,477 -200,860 -203,858l-666 -413 -741 649 -425 -540c-215,31 -537,132 -777,315 24,-495 180,-1631 429,-1790 25,162 586,1329 841,1506 339,-255 1506,-2150 1516,-2154 -55,12 151,-42 318,-6"/>
   <path class="fil2 str0" d="M11436 16668c550,-71 1546,-398 1954,-843"/>
   <path class="fil2 str0" d="M10868 14163c51,38 101,91 151,159l-188 864 216 130"/>
   <path class="fil2 str0" d="M10407 14712c70,39 210,50 353,-19"/>
   <path class="fil2 str0" d="M11286 14689c60,53 194,94 349,57"/>
   <path class="fil2 str2" d="M11319 13473c316,718 859,1152 1300,1393"/>
   <path class="fil2 str0" d="M9302 16626c-18,29 -285,482 -268,718"/>
   <path class="fil2 str0" d="M9667 16675c-19,28 -310,530 -306,766"/>
   <path class="fil2 str0" d="M9958 16891c-17,25 -246,419 -297,673"/>
   <path class="fil2 str0" d="M12594 19812c3,250 -12,1380 83,2171"/>
   <path class="fil2 str0" d="M14437 20315c-279,-13 -829,50 -942,60l-2 -336c1,-12 643,-92 927,-80"/>
   <path class="fil0" d="M14438 16922c-5,455 -19,1398 154,2360 741,-61 1266,-114 1772,-433 6,-4 -395,-1662 -445,-1830 -43,-148 -89,-270 -139,-353 -56,-91 -222,-48 -268,50 -11,-159 -580,-223 -885,-92 -180,77 -160,142 -189,298z"/>
   <g style="clip-path:url(#id19)">
    <g>
     <path id="1" class="fil5" d="M14309 17147c-5,456 -19,1398 154,2360 741,-60 1266,-113 1772,-432 6,-4 -395,-1662 -444,-1831 -44,-147 -90,-269 -140,-352 -55,-92 -222,-48 -268,49 -10,-158 -579,-223 -884,-92 -71,31 -128,72 -160,125 -8,53 -18,111 -30,173z"/>
    </g>
   </g>
   <path class="fil2" d="M14438 16922c-5,455 -19,1398 154,2360 741,-61 1266,-114 1772,-433 6,-4 -395,-1662 -445,-1830 -43,-148 -89,-270 -139,-353 -56,-91 -222,-48 -268,50 -11,-159 -580,-223 -885,-92 -180,77 -160,142 -189,298z"/>
   <path class="fil2 str0" d="M14627 16624c-71,30 -127,71 -159,124 -9,54 -19,112 -30,174m0 0c-5,455 -19,1398 154,2360 741,-61 1266,-114 1772,-433 6,-4 -395,-1662 -445,-1830 -43,-148 -89,-270 -139,-353 -56,-91 -222,-48 -268,50"/>
   <path class="fil0" d="M16418 19135c-624,291 -977,401 -1712,427 147,769 478,2245 873,2844 320,484 695,845 1306,614 175,-66 358,-179 551,-352 472,-423 607,-1294 301,-2530 -197,70 -350,120 -509,168 -62,19 -125,38 -191,58 -114,-148 -533,-985 -619,-1229z"/>
   <g style="clip-path:url(#id20)">
    <g>
     <path id="1" class="fil3" d="M16224 19200c-623,290 -976,401 -1711,427 147,768 478,2245 873,2844 320,484 695,844 1306,613 174,-65 358,-179 550,-351 472,-424 608,-1294 302,-2531 -197,71 -350,120 -509,169 -62,18 -125,37 -191,57 -114,-148 -534,-985 -620,-1228z"/>
    </g>
   </g>
   <path class="fil2 str0" d="M16418 19135c-624,291 -977,401 -1712,427 147,769 478,2245 873,2844 320,484 695,845 1306,614 175,-66 358,-179 551,-352 472,-423 607,-1294 301,-2530 -197,70 -350,120 -509,168 -62,19 -125,38 -191,58 -114,-148 -533,-985 -619,-1229z"/>
   <path class="fil2 str0" d="M15512 16716c-2,15 -59,513 8,656"/>
   <path class="fil2 str0" d="M15153 16652c-3,16 -60,563 7,720"/>
   <path class="fil2 str0" d="M14801 16640c-3,17 -60,573 7,732"/>
   <path class="fil0" d="M12766 16255c-166,-360 -180,-838 -97,-1223 -48,-12 -96,-28 -143,-47 -456,80 -1450,69 -1623,-84 -26,-22 -619,290 -688,325 -81,427 -44,831 218,1072 319,294 720,386 1003,370 447,-57 938,-221 1330,-413z"/>
   <g style="clip-path:url(#id21)">
    <g>
     <path id="1" class="fil1" d="M12637 16384c-166,-360 -180,-838 -97,-1223 -48,-13 -96,-28 -143,-47 -456,80 -1450,69 -1623,-84 -26,-23 -619,290 -688,324 -80,428 -44,832 218,1073 319,294 720,386 1003,370 447,-58 938,-221 1330,-413z"/>
    </g>
   </g>
   <path class="fil2 str0" d="M12766 16255c-166,-360 -180,-838 -97,-1223 -48,-12 -96,-28 -143,-47 -456,80 -1450,69 -1623,-84 -26,-22 -619,290 -688,325 -81,427 -44,831 218,1072 319,294 720,386 1003,370 447,-57 938,-221 1330,-413z"/>
   <line class="fil2 str0" x1="11419" y1="14200" x2="11635" y2= "14261" />
   <path class="fil2 str0" d="M10740 15781c200,51 472,55 646,3"/>
   <path class="fil2 str0" d="M10834 15497c142,37 334,40 458,3"/>
   <path class="fil2 str0" d="M13569 15091c-109,26 -247,229 -264,353"/>
   <path class="fil2 str0" d="M13564 15507c37,-255 -206,-262 -222,-138"/>
   <path class="fil2 str3" d="M13856 13155c103,56 417,281 490,589"/>
   <path class="fil1" d="M8792 14800c1240,-458 562,-1778 0,-1016 -562,-762 -1240,558 0,1016z"/>
   <path class="fil2 str4" d="M11432 17181c-515,68 -597,1505 -565,2187"/>
   <circle class="fil0 str0" cx="10868" cy="19360" r="387"/>
   <circle class="fil2 str0" cx="10868" cy="19360" r="186"/>
  </g>
  <g id="_2057023091952">
   <path class="fil0" d="M2157 22543c-2,-139 -4,-258 -1,-386 10,-477 -83,-954 303,-1452 148,-190 108,-508 -209,-481 -177,15 -326,305 -387,477 -9,-55 -337,-682 -451,-1155 -73,-304 -532,-231 -518,35 -114,-91 -870,723 -889,940 -61,716 442,1821 740,2644 454,1253 965,1604 1412,-622z"/>
   <g style="clip-path:url(#id22)">
    <g>
     <path id="1" class="fil3" d="M2103 22839c-2,-139 -4,-258 -1,-386 10,-477 -83,-954 303,-1452 148,-190 189,-508 -128,-481 -177,15 -353,359 -414,531 -9,-55 -431,-736 -545,-1209 -73,-304 -492,-231 -478,35 -114,-91 -870,723 -889,940 -61,716 -120,1575 534,2187 31,28 127,134 253,251l1365 -416z"/>
    </g>
   </g>
   <path class="fil2" d="M2157 22543c-2,-139 -4,-258 -1,-386 10,-477 -83,-954 303,-1452 148,-190 108,-508 -209,-481 -177,15 -326,305 -387,477 -9,-55 -337,-682 -451,-1155 -73,-304 -532,-231 -518,35 -114,-91 -870,723 -889,940 -61,716 442,1821 740,2644 454,1253 965,1604 1412,-622z"/>
   <path class="fil2 str0" d="M58 21155c29,127 59,248 91,364l596 1646 1412 -622c-2,-139 -4,-258 -1,-386 10,-477 -83,-954 303,-1452 148,-190 108,-508 -209,-481 -177,15 -326,305 -387,477 -9,-55 -337,-585 -451,-1058 -39,-164 -190,-315 -319,-289"/>
   <path class="fil0" d="M2922 23613l-362 -1215c-87,-444 -1857,557 -1903,935l906 4292c165,489 888,747 1568,609 282,-57 1434,-1658 1637,-2156 31,485 49,945 130,1142 276,22 865,-131 2229,-38 652,44 2650,276 3132,-19 858,391 2211,450 2922,271 452,-114 653,-866 660,-1337 10,-708 -2034,-5404 -3207,-5945 -1109,-511 -1478,-559 -2508,-927 -214,-513 -2029,92 -2283,711 -470,18 -1368,621 -1734,1107l-1187 2570z"/>
   <path class="fil2 str0" d="M10259 27163c858,391 2211,450 2922,271 452,-114 653,-866 660,-1337 10,-708 -2034,-5404 -3207,-5945 -1109,-511 -1478,-559 -2508,-927 -214,-513 -2029,92 -2283,711 -470,18 -1368,621 -1734,1107l-1187 2570 -362 -1215c-87,-444 -1857,557 -1903,935l906 4292c165,489 888,747 1568,609 282,-57 1434,-1658 1637,-2156 31,485 49,945 130,1142"/>
   <path class="fil0" d="M4144 16869c1117,-129 2374,1758 3409,1111 799,-500 1078,-3201 -246,-2786 -158,-465 -558,-993 -944,-893 -366,96 -1061,463 -1407,556 -326,88 -708,2 -813,-294 -373,201 -315,498 -256,595 -409,-65 -785,702 -292,883 -708,45 -594,1107 549,828z"/>
   <g style="clip-path:url(#id23)">
    <g>
     <path id="1" class="fil4" d="M4015 17126c1117,-129 2374,1759 3409,1112 800,-500 1078,-3201 -245,-2787 -158,-464 -559,-928 -945,-827 -366,95 -1061,462 -1407,555 -326,88 -707,-127 -813,-423 -373,202 -25,499 34,595 -418,-64 -872,564 -309,819 -707,45 -867,1235 276,956z"/>
    </g>
   </g>
   <path class="fil2 str0" d="M4144 16869c1117,-129 2374,1758 3409,1111 799,-500 1078,-3201 -246,-2786 -158,-465 -558,-993 -944,-893 -366,96 -1061,463 -1407,556 -326,88 -708,2 -813,-294 -373,201 -315,498 -256,595 -409,-65 -785,702 -292,883 -708,45 -594,1107 549,828z"/>
   <path class="fil1" d="M7287 20742c-695,-30 -888,218 -944,588 -60,399 117,938 356,1423 161,325 25,591 190,808 312,-393 751,-879 935,-1177 1550,-2500 -810,-1732 -740,-1680 106,80 302,42 203,38z"/>
   <path class="fil2 str4" d="M10234 22340c135,-579 97,-2000 -653,-1984 -750,16 -723,1438 -562,2010"/>
   <path class="fil2 str4" d="M5036 20207c-160,463 -163,1837 -151,2413"/>
   <path class="fil2 str4" d="M8589 19417c265,86 969,353 958,930"/>
   <circle class="fil0 str0" cx="4885" cy="22612" r="387"/>
   <circle class="fil2 str0" cx="4885" cy="22612" r="186"/>
   <ellipse class="fil1 str0" cx="9140" cy="22366" rx="121" ry="215"/>
   <ellipse class="fil1 str0" cx="10114" cy="22340" rx="121" ry="215"/>
   <path class="fil0" d="M6221 15822c139,271 616,1221 830,1633 209,-492 405,-782 695,-707 472,123 425,1055 -201,1216l676 1467c826,1792 -3241,2642 -2212,349l-174 -602c-2122,913 -1770,-1675 -1691,-2309 10,-82 2078,-941 2077,-1047z"/>
   <g style="clip-path:url(#id24)">
    <g>
     <path id="1" class="fil3" d="M6076 16063c140,272 616,1141 830,1553l145 -80c184,-393 293,-661 550,-594 472,122 438,1009 -282,1094l757 1588c826,1792 -3240,2642 -2212,349l-174 -601c-2122,912 -2268,-2053 -1691,-2326l2077 -983z"/>
    </g>
   </g>
   <path class="fil2 str0" d="M6221 15822c139,271 616,1221 830,1633 209,-492 405,-782 695,-707 472,123 425,1055 -201,1216l676 1467c826,1792 -3241,2642 -2212,349l-174 -602c-2122,913 -1770,-1675 -1691,-2309 10,-82 2078,-941 2077,-1047z"/>
   <path class="fil0" d="M6319 21200c42,140 135,411 207,485 171,177 179,215 353,-10 50,-65 149,-326 162,-449 0,-3 -130,-412 -397,-379 -96,13 -180,116 -325,353z"/>
   <g style="clip-path:url(#id25)">
    <g>
     <path id="1" class="fil5" d="M6496 21361c42,140 135,411 207,485 172,177 179,215 353,-10 50,-65 149,-326 162,-449 0,-3 -129,-412 -396,-379 -97,13 -181,116 -326,353z"/>
    </g>
   </g>
   <path class="fil2 str0" d="M6319 21200c42,140 135,411 207,485 171,177 179,215 353,-10 50,-65 149,-326 162,-449 0,-3 -130,-412 -397,-379 -96,13 -180,116 -325,353z"/>
   <polygon class="fil0" points="6364,22687 6828,23820 7193,22869 6879,21675 6526,21685 "/>
   <g style="clip-path:url(#id26)">
    <g>
     <polygon id="1" class="fil5" points="6493,22800 6711,24178 7322,22982 7008,21787 6655,21798 "/>
    </g>
   </g>
   <polygon class="fil2" points="6364,22687 6828,23820 7193,22869 6879,21675 6526,21685 "/>
   <polyline class="fil2 str0" points="7017,22199 6879,21675 6526,21685 6364,22687 6828,23820 "/>
   <path class="fil0 str0" d="M5706 19953c-173,214 -295,363 -443,981 135,15 307,51 472,66 -30,99 -447,623 -447,730 138,247 1556,2137 1540,2090 -427,-1288 -1012,-2256 -932,-3983l-190 116z"/>
   <path class="fil0" d="M5996 19735c245,893 624,1022 648,1112 -264,325 -373,765 -410,790 -33,21 -293,-589 -408,-1495 -19,-154 -77,-170 170,-407z"/>
   <g style="clip-path:url(#id27)">
    <g>
     <path id="1" class="fil1" d="M5899 19896c246,893 624,1022 649,1112 -264,326 -373,765 -411,790 -33,21 -292,-589 -407,-1495 -20,-154 -77,-170 169,-407z"/>
    </g>
   </g>
   <path class="fil2 str0" d="M5996 19735c245,893 624,1022 648,1112 -264,325 -373,765 -410,790 -33,21 -293,-589 -408,-1495 -19,-154 -77,-170 170,-407z"/>
   <path class="fil0" d="M6644 20847c422,613 582,975 653,931 75,-46 881,-1574 1044,-2150 48,-168 -103,-376 -164,-293 -477,649 -938,1085 -1533,1512z"/>
   <g style="clip-path:url(#id28)">
    <g>
     <path id="1" class="fil1" d="M6870 20880c421,612 582,974 652,931 75,-47 881,-1574 1044,-2151 48,-168 -102,-376 -164,-293 -476,649 -938,1086 -1532,1513z"/>
    </g>
   </g>
   <path class="fil2 str0" d="M6644 20847c422,613 582,975 653,931 75,-46 881,-1574 1044,-2150 48,-168 -103,-376 -164,-293 -477,649 -938,1085 -1533,1512z"/>
   <path class="fil0" d="M8177 19335c52,1597 -1261,3770 -1349,4485 548,-674 1640,-2208 1777,-2350 -42,-443 -116,-408 -206,-645 118,-129 467,-106 652,-62 -94,-196 -413,-1133 -563,-1422l-397 -192c-4,60 90,109 86,186z"/>
   <path class="fil2 str0" d="M6977 23309c-79,209 -133,383 -149,511m1759 -2245c-47,-197 -127,-590 -188,-750 118,-129 467,-106 652,-62 -94,-196 -413,-1133 -563,-1422l-397 -192c-4,60 90,109 86,186 28,875 -353,1923 -718,2809"/>
   <path class="fil2 str0" d="M4777 24285c-75,596 -2,2391 121,2935"/>
   <path class="fil2 str0" d="M5664 19246c171,-68 424,-130 812,-395"/>
   <path class="fil0 str0" d="M5082 18464c44,285 456,355 710,36 396,-497 -364,-1238 -487,-321 -34,253 -286,140 -223,285z"/>
   <polyline class="fil2 str0" points="4844,16931 4731,18069 4966,18190 "/>
   <line class="fil2 str0" x1="5400" y1="16578" x2="5740" y2= "16597" />
   <path class="fil0" d="M7239 22515l3172 -191 155 2567c-464,-93 -900,-204 -1292,-338 -1,26 -1,52 -2,78 -14,521 -50,982 -137,1553 -18,120 -39,245 -62,377 18,18 39,37 62,56l-1643 99 -253 -4201z"/>
   <g style="clip-path:url(#id29)">
    <g>
     <path id="1" class="fil1" d="M7497 22724l3172 -191 154 2567c-464,-93 -899,-204 -1291,-338 -1,27 -2,53 -2,79 -15,521 -50,981 -137,1552 -19,120 -39,245 -63,377 19,18 40,37 63,57l-1643 99 -253 -4202z"/>
    </g>
   </g>
   <path class="fil2" d="M7239 22515l3172 -191 155 2567c-464,-93 -900,-204 -1292,-338 -1,26 -1,52 -2,78 -14,521 -50,982 -137,1553 -18,120 -39,245 -62,377 18,18 39,37 62,56l-1643 99 -253 -4201z"/>
   <path class="fil2 str0" d="M7313 23750l-74 -1235 3172 -191 129 2142m-1942 2184l-1106 66 -24 -404"/>
   <path class="fil0" d="M9165 24485c-262,-543 -1122,-785 -1657,-254 -56,45 -200,17 -234,71 -63,101 -77,187 -15,406 -22,363 41,918 110,1098 294,168 1285,331 1766,174 87,-519 123,-938 137,-1412 -32,-35 -68,-63 -107,-83z"/>
   <g style="clip-path:url(#id30)">
    <g>
     <path id="1" class="fil3" d="M9374 24617c-261,-543 -1122,-785 -1657,-254 -56,45 -200,17 -233,71 -63,101 -78,186 -16,406 -22,362 42,918 110,1098 294,168 1285,330 1766,174 88,-519 123,-938 137,-1412 -32,-35 -68,-63 -107,-83z"/>
    </g>
   </g>
   <path class="fil2" d="M9165 24485c-262,-543 -1122,-785 -1657,-254 -56,45 -200,17 -234,71 -63,101 -77,187 -15,406 -22,363 41,918 110,1098 294,168 1285,331 1766,174 87,-519 123,-938 137,-1412 -32,-35 -68,-63 -107,-83z"/>
   <path class="fil2 str0" d="M7369 25806c294,168 1285,331 1766,174 87,-519 123,-938 137,-1412 -32,-35 -68,-63 -107,-83 -262,-543 -1122,-785 -1657,-254 -56,45 -200,17 -234,71"/>
   <path class="fil0" d="M8791 21855c202,-12 376,142 388,344 1,3 1,7 1,10l372 -22 24 399 -1477 89 -24 -399 373 -23c-1,-3 -1,-7 -1,-10 -12,-202 142,-376 344,-388zm-117 385l280 -17c0,-4 0,-7 -1,-10 -4,-78 -71,-137 -148,-132 -78,4 -137,71 -132,148 0,4 0,7 1,11z"/>
   <g style="clip-path:url(#id31)">
    <g>
     <path id="1" class="fil5" d="M8888 21887c202,-12 376,142 388,344 0,4 0,7 0,10l373 -22 24 400 -1477 89 -24 -400 372 -23c0,-3 0,-6 -1,-10 -12,-202 142,-376 345,-388zm-118 385l280 -17c0,-3 0,-7 0,-10 -5,-78 -71,-137 -149,-132 -77,5 -136,71 -132,149 1,3 1,6 1,10z"/>
    </g>
   </g>
   <path class="fil2 str0" d="M8791 21855c202,-12 376,142 388,344 1,3 1,7 1,10l372 -22 24 399 -1477 89 -24 -399 373 -23c-1,-3 -1,-7 -1,-10 -12,-202 142,-376 344,-388zm-117 385l280 -17c0,-4 0,-7 -1,-10 -4,-78 -71,-137 -148,-132 -78,4 -137,71 -132,148 0,4 0,7 1,11z"/>
   <circle class="fil4 str5" cx="4519" cy="17172" r="79"/>
   <circle class="fil4 str5" cx="5456" cy="17123" r="79"/>
   <path class="fil2 str0" d="M7690 17174c-109,26 -247,230 -264,353"/>
   <path class="fil2 str0" d="M7685 17591c36,-255 -206,-262 -222,-139"/>
   <path class="fil2 str0" d="M2805 23220c201,691 533,2070 533,2044"/>
   <path class="fil2 str0" d="M894 19581c30,66 192,753 277,914"/>
   <path class="fil2 str0" d="M518 19886c1,7 123,543 288,827"/>
   <path class="fil2 str0" d="M206 20214c81,247 151,484 214,617"/>
   <path class="fil2 str0" d="M7259 24708c328,49 804,39 931,9"/>
   <path class="fil2 str0" d="M7508 24261c327,-5 514,-39 641,-9"/>
   <path class="fil2 str0" d="M7262 25113c133,46 585,106 865,22"/>
   <path class="fil2 str0" d="M7308 25541c251,96 502,119 753,68"/>
   <path class="fil2 str0" d="M12505 27531c-1339,53 -3028,-559 -3432,-970 139,-788 185,-1343 201,-2008 878,300 1977,485 3115,611"/>
   <line class="fil2 str6" x1="3061" y1="18144" x2="2104" y2= "17981" />
   <line class="fil2 str6" x1="2993" y1="18543" x2="2117" y2= "18962" />
   <line class="fil2 str6" x1="3100" y1="17802" x2="2411" y2= "17117" />
   <path class="fil2 str6" d="M3237 18960c-399,-145 -605,-586 -460,-985 97,-265 325,-445 584,-493"/>
  </g>
 </g>
</svg>
