<?xml version="1.0" encoding="UTF-8"?>
<!DOCTYPE svg PUBLIC "-//W3C//DTD SVG 1.1//EN" "http://www.w3.org/Graphics/SVG/1.1/DTD/svg11.dtd">
<!-- Creator: CorelDRAW X7 -->
<svg xmlns="http://www.w3.org/2000/svg" xml:space="preserve" width="4.82093in" height="7.13879in" version="1.1" style="shape-rendering:geometricPrecision; text-rendering:geometricPrecision; image-rendering:optimizeQuality; fill-rule:evenodd; clip-rule:evenodd"
viewBox="0 0 2348 3477"
 xmlns:xlink="http://www.w3.org/1999/xlink">
 <defs>
  <style type="text/css">
   <![CDATA[
    .str9 {stroke:#1B1D4E;stroke-width:20.2956}
    .str8 {stroke:white;stroke-width:20.2956}
    .str3 {stroke:#1B1D4E;stroke-width:13.5297}
    .str6 {stroke:#1B1D4E;stroke-width:13.5297;stroke-linejoin:round}
    .str7 {stroke:#1B1D4E;stroke-width:13.5297;stroke-linecap:round}
    .str2 {stroke:#1B1D4E;stroke-width:5.07245;stroke-linecap:round;stroke-linejoin:round}
    .str1 {stroke:#1B1D4E;stroke-width:20.2956;stroke-linecap:round;stroke-linejoin:round}
    .str0 {stroke:#1B1D4E;stroke-width:13.5297;stroke-linecap:round;stroke-linejoin:round}
    .str4 {stroke:#7268FD;stroke-width:13.5297;stroke-linecap:round;stroke-linejoin:round}
    .str5 {stroke:#1B1D4E;stroke-width:3.381;stroke-linecap:round;stroke-linejoin:round}
    .fil2 {fill:none}
    .fil7 {fill:#1B1D4E}
    .fil5 {fill:#1B1D4E}
    .fil8 {fill:#71D9FC}
    .fil4 {fill:#71D9FC}
    .fil9 {fill:#7268FD}
    .fil3 {fill:#7268FD}
    .fil0 {fill:#A2FFC8}
    .fil6 {fill:#F9E95E}
    .fil10 {fill:white}
    .fil1 {fill:white}
   ]]>
  </style>
    <clipPath id="id0">
     <path d="M724 168c-41,-59 11,-92 37,-86 3,1 187,-98 316,-71 60,13 111,82 136,181 15,57 42,218 46,256 16,-4 27,-12 35,-11 18,2 15,138 10,162 -8,47 -166,168 -207,164 -84,-8 -241,-157 -292,-180 7,-17 26,-41 23,-101 -1,-38 -73,-284 -120,-291 5,-12 14,-19 16,-23z"/>
    </clipPath>
    <clipPath id="id1">
     <path d="M646 419c35,109 232,59 290,35l25 -98c-5,-46 -56,-130 -97,-147 -49,-21 -112,-29 -156,-18 -27,38 -88,145 -62,228z"/>
    </clipPath>
    <clipPath id="id2">
     <path d="M1346 512c0,0 -14,-3 -20,-28 -10,-41 4,-97 31,-90 21,5 21,39 29,70 7,27 -18,45 -40,48z"/>
    </clipPath>
    <clipPath id="id3">
     <path d="M1423 489c56,60 98,127 121,178 -69,-10 -130,66 -134,94 -13,-28 -39,-76 -58,-88 -46,-32 -64,-51 -73,-125 -10,-79 92,-83 144,-59z"/>
    </clipPath>
    <clipPath id="id4">
     <path d="M1486 1168c-57,-21 -165,-138 -167,-236 -3,-98 65,-113 99,-121 46,-140 139,-132 263,-92 51,17 138,108 196,150 173,-80 124,181 -16,157 -65,-11 -122,-35 -177,-75 69,168 -134,239 -198,217z"/>
    </clipPath>
    <clipPath id="id5">
     <path d="M1542 1084c-12,-64 -111,-83 -103,6 6,63 44,63 73,44 -18,59 -59,111 -101,147 9,75 47,80 94,114 72,52 157,71 177,13l13 -93c35,8 95,-5 138,-59 18,-31 34,-121 34,-230 -114,-28 -130,-65 -192,-162 -42,53 -93,191 -133,220z"/>
    </clipPath>
    <clipPath id="id6">
     <path d="M1825 1451l215 291 35 10 0 -39 -212 -284c-17,-3 -30,10 -38,22z"/>
    </clipPath>
    <clipPath id="id7">
     <path d="M1677 1648c48,-46 70,-69 96,-86 32,-11 78,-19 157,-29 22,-2 88,45 81,82 -3,18 -24,26 -66,15 4,20 9,40 7,60 -2,16 -22,24 -36,12 -3,16 -24,23 -41,14 -1,0 -83,115 -141,120 -11,-5 -51,-96 -57,-188z"/>
    </clipPath>
    <clipPath id="id8">
     <path d="M1919 1788l-236 402 379 33 240 -384 -383 -51z"/>
    </clipPath>
    <clipPath id="id9">
     <path d="M2041 2078c-10,10 -7,25 7,24 -25,36 -23,60 -27,75 35,38 129,-1 129,-80 13,-8 34,-12 36,-25 3,-16 -6,-28 -33,-32 -35,-5 -91,13 -112,38z"/>
    </clipPath>
    <clipPath id="id10">
     <path d="M453 2413c82,6 119,5 159,-8 92,-32 122,-129 248,-141 38,-3 113,2 166,-112 28,-61 13,-166 44,-223 17,-6 -86,-105 -141,-120 -149,-24 -228,-91 -235,-108 -53,-13 -153,-73 -200,-81 -82,-13 -156,32 -222,92 -190,173 -253,443 -264,574 -29,353 361,155 445,127z"/>
    </clipPath>
    <clipPath id="id11">
     <path d="M457 2170c48,-42 75,-49 164,-60 25,-3 106,20 32,39 -24,6 -53,20 -60,22 -32,18 101,-9 135,-38 5,-4 22,-1 25,7 22,58 -29,121 -72,159 -31,27 -206,101 -243,118 -15,-47 -25,-147 -7,-209 6,-21 2,-34 26,-38z"/>
    </clipPath>
    <clipPath id="id12">
     <path d="M1136 1504c-4,120 27,127 23,217 -5,118 -161,77 -206,56l-39 51c12,18 31,28 22,64 -28,123 -262,67 -253,-177l21 -29c-9,-11 -17,-28 -21,-53 -5,-28 9,-47 26,-52 24,-114 131,-194 253,-185 35,3 155,18 174,108z"/>
    </clipPath>
    <clipPath id="id13">
     <path d="M885 1594c24,130 -9,157 -9,156 342,147 301,-55 270,-133 -4,6 -75,-28 -81,-37 -58,23 -138,22 -180,14z"/>
    </clipPath>
    <clipPath id="id14">
     <path d="M709 1581c34,-93 128,-181 253,-166 56,6 160,30 174,89 7,9 36,-13 25,-40 46,-82 -6,-239 -162,-257 -71,-9 -153,-1 -201,28 -119,-8 -205,105 -191,140 -116,88 -26,241 41,208 -13,23 12,39 35,30 3,-17 13,-28 26,-32z"/>
    </clipPath>
    <clipPath id="id15">
     <path d="M1219 1811c29,-56 82,-85 153,-94 70,-9 153,26 157,42 46,-10 138,15 152,76 14,62 -22,83 -45,77 -23,-7 -44,-20 -44,-20 -1,16 -47,64 -94,48 -8,-27 2,118 -75,74 -50,153 -154,-22 -224,-47 0,0 -31,-14 -54,7 -23,22 -24,68 -1,96 23,29 60,29 70,15l347 100c0,0 18,100 75,131 34,20 136,54 284,86 71,15 138,153 28,202 0,0 56,27 29,75 -27,47 -110,44 -110,44l-473 135 -643 -123c0,0 -72,-43 -87,-127 -23,-131 93,-297 231,-300 86,-2 173,-98 182,-174 12,-103 27,-288 142,-323z"/>
    </clipPath>
    <clipPath id="id16">
     <path d="M1164 2453c119,55 258,53 323,7 14,-32 24,-52 24,-52 -49,-46 -60,-101 -52,-166 18,1 35,-1 48,-6 26,-12 47,-33 62,-59 46,-78 50,-202 53,-270 -17,-6 -30,-15 -30,-15 -1,16 -47,64 -94,48 -18,-70 -65,-103 -100,-124 -49,153 -129,176 -199,151 0,0 -31,-14 -54,7 -23,22 -24,68 -1,96 19,24 47,28 63,21 9,141 -28,275 -77,319 0,0 13,17 34,43z"/>
    </clipPath>
    <clipPath id="id17">
     <path d="M1387 2801c3,-47 104,-317 119,-372 -34,40 -158,94 -342,24 78,92 210,283 223,348z"/>
    </clipPath>
    <clipPath id="id18">
     <path d="M1647 2828c33,24 55,4 58,-13 4,-16 -3,-45 -28,-44 -24,0 -33,16 -34,38 -1,20 -20,25 -38,8 -14,-13 -9,-38 -2,-55 22,-51 120,-72 139,0 -3,-67 -47,-116 -19,-139 17,-13 26,22 40,17 14,-5 35,0 45,5 58,24 81,239 88,283 -36,50 -195,70 -211,47 -5,-6 -2,-34 -7,-79 -2,-14 -32,7 -53,-27 -22,-36 17,-49 22,-41z"/>
    </clipPath>
    <clipPath id="id19">
     <path d="M1178 2915c0,0 173,-119 189,-109 15,11 77,52 113,83 14,30 -33,58 -58,39 21,47 27,77 25,87 -3,19 -37,24 -45,9 -12,28 -40,44 -53,9 0,0 5,27 -17,49 -22,23 -85,46 -85,46 -27,-22 -64,-148 -69,-213z"/>
    </clipPath>
 </defs>
 <g id="Layer_x0020_1">
  <metadata id="CorelCorpID_0Corel-Layer"/>
  <g id="_2057023108880">
   <path class="fil0" d="M1441 195c-67,-91 -148,66 0,121 147,-55 67,-212 0,-121z"/>
   <path class="fil1" d="M819 601c-80,36 -210,120 -238,230 -54,219 -69,354 -62,531 3,103 660,-4 755,-23 169,-35 240,-107 240,-292 0,-90 -116,-446 -231,-442 -139,6 -345,-47 -464,-4z"/>
   <path class="fil2 str0" d="M1412 729c-38,-71 -84,-126 -129,-124 -139,6 -345,-47 -464,-4 -80,36 -210,120 -238,230 -54,219 -69,354 -62,531"/>
   <path class="fil3" d="M950 886c14,-58 37,-118 60,-171 -29,-19 -59,-41 -86,-62 26,59 31,155 26,233z"/>
   <path class="fil1 str0" d="M1044 592c-31,83 -129,260 -125,394 1,1 29,-80 110,-182 199,-246 35,-163 15,-212z"/>
   <path class="fil1 str0" d="M814 737c16,-17 35,-35 48,-40 -8,41 -21,63 -22,83 26,32 49,88 79,206 22,-102 31,-414 -96,-385 -2,26 -7,87 -9,136z"/>
   <path class="fil2 str1" d="M1221 842c16,-69 12,-238 -77,-236 -90,1 -87,171 -67,239"/>
   <path class="fil1" d="M724 168c-41,-59 11,-92 37,-86 3,1 187,-98 316,-71 60,13 111,82 136,181 15,57 42,218 46,256 16,-4 27,-12 35,-11 18,2 15,138 10,162 -8,47 -166,168 -207,164 -84,-8 -241,-157 -292,-180 7,-17 26,-41 23,-101 -1,-38 -73,-284 -120,-291 5,-12 14,-19 16,-23z"/>
   <g style="clip-path:url(#id0)">
    <g>
     <path id="1" class="fil0" d="M753 185c-42,-59 11,-77 37,-70 2,0 146,-98 276,-71 59,12 97,82 122,181 15,57 42,212 46,250 16,-4 81,-22 89,-21 18,2 15,138 10,162 -9,48 -167,168 -207,165 -84,-9 -241,-158 -292,-180 7,-17 26,-41 23,-102 -1,-38 -73,-284 -120,-290 5,-13 14,-19 16,-24z"/>
    </g>
   </g>
   <path class="fil2 str0" d="M724 168c-41,-59 11,-92 37,-86 3,1 187,-98 316,-71 60,13 111,82 136,181 15,57 42,218 46,256 16,-4 27,-12 35,-11 18,2 15,138 10,162 -8,47 -166,168 -207,164 -84,-8 -241,-157 -292,-180 7,-17 26,-41 23,-101 -1,-38 -73,-284 -120,-291 5,-12 14,-19 16,-23z"/>
   <path class="fil1" d="M646 419c35,109 232,59 290,35l25 -98c-5,-46 -56,-130 -97,-147 -49,-21 -112,-29 -156,-18 -27,38 -88,145 -62,228z"/>
   <g style="clip-path:url(#id1)">
    <g>
     <path id="1" class="fil4" d="M661 438c35,109 232,59 290,35l25 -98c-5,-46 -56,-130 -97,-147 -49,-21 -112,-29 -156,-17 -27,37 -88,145 -62,227z"/>
    </g>
   </g>
   <path class="fil2 str0" d="M646 419c35,109 232,59 290,35l25 -98c-5,-46 -56,-130 -97,-147 -49,-21 -112,-29 -156,-18 -27,38 -88,145 -62,228z"/>
   <path class="fil1" d="M1346 512c0,0 -14,-3 -20,-28 -10,-41 4,-97 31,-90 21,5 21,39 29,70 7,27 -18,45 -40,48z"/>
   <g style="clip-path:url(#id2)">
    <g>
     <path id="1" class="fil4" d="M1335 533c0,0 -14,-3 -20,-28 -10,-41 3,-97 31,-90 21,5 21,40 29,70 7,27 -19,45 -40,48z"/>
    </g>
   </g>
   <path class="fil2 str0" d="M1346 512c0,0 -14,-3 -20,-28 -10,-41 4,-97 31,-90 21,5 21,39 29,70 7,27 -18,45 -40,48z"/>
   <path class="fil1" d="M1423 489c56,60 98,127 121,178 -69,-10 -130,66 -134,94 -13,-28 -39,-76 -58,-88 -46,-32 -64,-51 -73,-125 -10,-79 92,-83 144,-59z"/>
   <g style="clip-path:url(#id3)">
    <g>
     <path id="1" class="fil4" d="M1409 518c70,74 119,161 134,211 -31,0 -135,59 -145,65 -18,-36 -35,-76 -59,-92 -47,-33 -64,-51 -73,-125 -10,-79 91,-83 143,-59z"/>
    </g>
   </g>
   <path class="fil2" d="M1423 489c56,60 98,127 121,178 -69,-10 -130,66 -134,94 -13,-28 -39,-76 -58,-88 -46,-32 -64,-51 -73,-125 -10,-79 92,-83 144,-59z"/>
   <path class="fil2 str0" d="M1279 548c-10,-79 92,-83 144,-59 52,56 92,118 116,167m-145 75c-12,-25 -25,-47 -42,-58"/>
   <path class="fil2 str0" d="M735 785c-31,130 -63,204 7,370"/>
   <path class="fil2 str0" d="M919 986c1,32 10,104 22,160"/>
   <path class="fil2 str1" d="M807 606c-18,55 -18,186 -17,254"/>
   <circle class="fil1 str0" cx="790" cy="859" r="46"/>
   <circle class="fil2 str0" cx="790" cy="859" r="22"/>
   <ellipse class="fil0 str0" cx="1091" cy="845" rx="14" ry="26"/>
   <ellipse class="fil0 str0" cx="1207" cy="842" rx="14" ry="26"/>
   <path class="fil2 str0" d="M1277 765c7,7 26,48 30,71"/>
   <polygon class="fil0" points="1111,953 1174,953 1174,1007 1228,1007 1228,1070 1174,1070 1174,1123 1111,1123 1111,1070 1057,1070 1057,1007 1111,1007 "/>
   <polygon class="fil0" points="439,576 501,576 501,630 555,630 555,693 501,693 501,747 439,747 439,693 385,693 385,630 439,630 "/>
   <path class="fil2 str0" d="M732 237c-7,14 -56,106 -51,111 3,4 21,18 34,15"/>
   <path class="fil2 str0" d="M755 266c20,19 46,0 50,-7"/>
   <path class="fil2 str0" d="M760 370c23,7 35,-21 42,-38"/>
   <path class="fil2 str0" d="M690 253c3,2 5,2 8,2"/>
   <path class="fil2 str0" d="M785 211c1,0 28,14 30,13"/>
   <path class="fil2 str0" d="M707 210c6,-1 12,-1 16,-1"/>
   <path class="fil2 str0" d="M724 168c33,-51 64,-27 112,5"/>
   <path class="fil2 str0" d="M987 205c-6,120 -51,249 -66,298"/>
   <path class="fil2 str0" d="M1259 448c-20,20 -88,80 -147,122"/>
   <path class="fil2 str0" d="M1279 548c66,-44 96,-25 105,-20"/>
   <path class="fil2 str0" d="M1285 584c43,-28 88,-21 103,-15"/>
   <path class="fil2 str0" d="M1298 621c11,-11 70,-18 88,-12"/>
   <circle class="fil5 str2" cx="821" cy="307" r="4"/>
   <circle class="fil5 str2" cx="850" cy="295" r="4"/>
   <circle class="fil5 str2" cx="846" cy="331" r="4"/>
  </g>
  <g id="_2057023119824">
   <polyline class="fil2 str0" points="2048,2190 2287,1806 1904,1755 1747,2022 "/>
   <path class="fil1" d="M1486 1168c-57,-21 -165,-138 -167,-236 -3,-98 65,-113 99,-121 46,-140 139,-132 263,-92 51,17 138,108 196,150 173,-80 124,181 -16,157 -65,-11 -122,-35 -177,-75 69,168 -134,239 -198,217z"/>
   <g style="clip-path:url(#id4)">
    <g>
     <path id="1" class="fil5" d="M1509 1189c-57,-21 -165,-138 -167,-236 -3,-98 65,-113 99,-120 46,-141 139,-133 263,-93 51,17 138,109 196,151 173,-81 124,180 -16,156 -65,-11 -122,-35 -177,-75 69,168 -134,239 -198,217z"/>
    </g>
   </g>
   <path class="fil2 str0" d="M1486 1168c-57,-21 -165,-138 -167,-236 -3,-98 65,-113 99,-121 46,-140 139,-132 263,-92 51,17 138,108 196,150 173,-80 124,181 -16,157 -65,-11 -122,-35 -177,-75 69,168 -134,239 -198,217z"/>
   <path class="fil1" d="M1231 1328c92,24 163,-33 205,-72 -10,70 253,88 254,94 64,123 160,74 121,396 -9,70 -29,100 -58,122 -398,313 -605,-463 -522,-540z"/>
   <path class="fil2 str0" d="M1231 1328c92,24 163,-33 205,-72 -10,70 253,88 254,94 64,123 160,74 121,396"/>
   <path class="fil3" d="M1677 1618c3,-73 14,-266 13,-268 -17,125 -69,101 -162,45 8,26 14,54 19,82 12,64 12,127 9,192 54,23 63,-7 121,-51z"/>
   <path class="fil1" d="M1542 1084c-12,-64 -111,-83 -103,6 6,63 44,63 73,44 -18,59 -59,111 -101,147 9,75 47,80 94,114 72,52 157,71 177,13l13 -93c35,8 95,-5 138,-59 18,-31 34,-121 34,-230 -114,-28 -130,-65 -192,-162 -42,53 -93,191 -133,220z"/>
   <g style="clip-path:url(#id5)">
    <g>
     <path id="1" class="fil4" d="M1544 1083c-27,-44 -95,-50 -87,26 6,64 55,25 72,40 -18,60 -59,115 -101,151 10,75 47,80 94,114 72,52 157,71 178,13l12 -93c35,8 95,-5 138,-58 19,-32 34,-122 34,-230 -114,-29 -136,-45 -198,-142 -35,45 -73,149 -117,188 -19,17 -15,8 -25,-9z"/>
    </g>
   </g>
   <path class="fil2 str0" d="M1542 1084c-12,-64 -111,-83 -103,6 6,63 44,63 73,44 -18,59 -59,111 -101,147 9,75 47,80 94,114 72,52 157,71 177,13l13 -93c35,8 95,-5 138,-59 18,-31 34,-121 34,-230 -114,-28 -130,-65 -192,-162 -42,53 -93,191 -133,220z"/>
   <path class="fil1 str0" d="M1493 1030c78,-31 329,-40 389,13l-3 86c-3,7 -7,15 -12,15l-31 -4c-10,-8 -20,-27 -33,-41l-36 33 -107 -4c-10,-14 -21,-30 -31,-73 -11,-5 -81,3 -94,8l-1 0c-9,-16 -24,-27 -39,-31l0 0c-1,-1 -1,-1 -2,-2z"/>
   <path class="fil2 str1" d="M1748 1431c18,28 32,83 24,130"/>
   <path class="fil1 str0" d="M1691 1349c-5,54 -12,201 -16,320 5,16 9,46 18,77 21,-94 46,-208 54,-229 0,-16 -27,-51 -38,-66 3,-9 44,19 51,26 4,-21 -35,-116 -69,-128z"/>
   <path class="fil2 str0" d="M1600 1705c3,-4 40,-23 77,-57 10,128 55,186 76,220"/>
   <path class="fil1" d="M1825 1451l215 291 35 10 0 -39 -212 -284c-17,-3 -30,10 -38,22z"/>
   <g style="clip-path:url(#id6)">
    <g>
     <path id="1" class="fil0" d="M1848 1455l215 291 35 10 0 -40 -212 -283c-17,-4 -30,10 -38,22z"/>
    </g>
   </g>
   <path class="fil2 str0" d="M1825 1451l215 291 35 10 0 -39 -212 -284c-17,-3 -30,10 -38,22z"/>
   <path class="fil1" d="M1677 1648c48,-46 70,-69 96,-86 32,-11 78,-19 157,-29 22,-2 88,45 81,82 -3,18 -24,26 -66,15 4,20 9,40 7,60 -2,16 -22,24 -36,12 -3,16 -24,23 -41,14 -1,0 -83,115 -141,120 -11,-5 -51,-96 -57,-188z"/>
   <g style="clip-path:url(#id7)">
    <g>
     <path id="1" class="fil4" d="M1700 1665c48,-45 70,-68 96,-86 32,-11 78,-19 157,-28 22,-3 88,44 81,82 -3,17 -24,25 -66,15 4,19 9,39 7,59 -2,16 -22,24 -36,12 -3,17 -24,23 -41,14 -1,1 -83,115 -141,120 -11,-5 -51,-96 -57,-188z"/>
    </g>
   </g>
   <path class="fil2" d="M1677 1648c48,-46 70,-69 96,-86 32,-11 78,-19 157,-29 22,-2 88,45 81,82 -3,18 -24,26 -66,15 4,20 9,40 7,60 -2,16 -22,24 -36,12 -3,16 -24,23 -41,14 -1,0 -83,115 -141,120 -11,-5 -51,-96 -57,-188z"/>
   <path class="fil2 str0" d="M1851 1746c-27,27 -90,87 -117,90 -11,-5 -51,-96 -57,-188 48,-46 70,-69 96,-86 32,-11 78,-19 157,-29 22,-2 88,45 81,82 -3,18 -24,26 -66,15 4,20 9,40 7,60"/>
   <polygon class="fil1" points="1919,1788 1683,2190 2062,2223 2302,1839 "/>
   <g style="clip-path:url(#id8)">
    <g>
     <polygon id="1" class="fil0" points="1930,1815 1694,2217 2074,2250 2313,1866 "/>
    </g>
   </g>
   <polygon class="fil2" points="1919,1788 1683,2190 2062,2223 2302,1839 "/>
   <polyline class="fil2 str0" points="1796,2200 2062,2223 2302,1839 1919,1788 1713,2139 "/>
   <path class="fil1" d="M2041 2078c-10,10 -7,25 7,24 -25,36 -23,60 -27,75 35,38 129,-1 129,-80 13,-8 34,-12 36,-25 3,-16 -6,-28 -33,-32 -35,-5 -91,13 -112,38z"/>
   <g style="clip-path:url(#id9)">
    <g>
     <path id="1" class="fil4" d="M2060 2089c-10,11 -7,26 8,24 -26,37 -24,61 -28,76 35,38 129,-2 129,-80 14,-8 34,-12 36,-25 3,-16 -6,-28 -32,-32 -36,-6 -91,13 -113,37z"/>
    </g>
   </g>
   <path class="fil2" d="M2041 2078c-10,10 -7,25 7,24 -25,36 -23,60 -27,75 35,38 129,-1 129,-80 13,-8 34,-12 36,-25 3,-16 -6,-28 -33,-32 -35,-5 -91,13 -112,38z"/>
   <path class="fil2 str0" d="M2021 2177c35,38 129,-1 129,-80 13,-8 34,-12 36,-25 3,-16 -6,-28 -33,-32 -35,-5 -91,13 -112,38 -10,10 -7,25 7,24"/>
   <path class="fil1 str0" d="M1904 1755c227,-6 153,221 85,264l292 32c69,-67 95,-205 -10,-306l-251 -30c-81,3 -117,40 -116,40z"/>
   <path class="fil2 str0" d="M1557 1212c18,39 109,108 158,105"/>
   <path class="fil2 str0" d="M1678 1171c13,33 28,49 54,45"/>
   <path class="fil2 str0" d="M1805 1047c-5,81 0,68 13,99 0,1 -20,28 -41,30"/>
   <path class="fil2 str0" d="M1900 1617c1,1 19,15 16,85"/>
   <path class="fil2 str0" d="M1931 1599c0,1 17,25 20,61"/>
   <path class="fil2 str0" d="M1867 1643c10,35 10,56 8,73"/>
   <path class="fil2 str0" d="M2054 2102c31,2 65,-4 71,-6"/>
   <path class="fil2 str0" d="M2033 2128c22,5 63,6 80,-2"/>
   <path class="fil2 str0" d="M2028 2162c39,5 65,1 78,-6"/>
   <path class="fil2 str1" d="M1381 1654c16,-69 12,-238 -77,-237 -90,2 -87,172 -67,240"/>
   <path class="fil2 str1" d="M1311 1415c4,-85 39,-87 90,-129"/>
   <path class="fil2 str0" d="M1713 1096c10,-6 37,-12 47,-10"/>
   <path class="fil2 str0" d="M1831 1092c9,-3 21,7 22,8"/>
   <path class="fil2 str0" d="M1696 1040c5,-17 43,-34 46,-31"/>
   <path class="fil1" d="M1394 1295c-12,35 -16,170 -5,160 1,-6 63,-35 81,-27 -16,24 -59,60 -59,109 62,109 84,253 100,301 18,-69 37,-225 13,-361 -16,-95 -50,-181 -88,-221 13,-7 -25,13 -42,39z"/>
   <path class="fil2 str0" d="M1533 1689c4,-66 4,-142 -9,-212 -16,-95 -50,-181 -88,-221 13,-7 -25,13 -42,39 -12,35 -16,170 -5,160 1,-6 63,-35 81,-27 -16,24 -59,60 -59,109 23,42 42,89 56,134"/>
   <path class="fil2 str0" d="M1483 1064c13,3 29,27 31,42"/>
   <path class="fil2 str0" d="M1484 1113c-5,-30 24,-31 26,-16"/>
   <rect class="fil0" x="2042" y="1070" width="76.278" height="76.278"/>
   <rect class="fil0" x="2042" y="1203" width="76.278" height="76.278"/>
   <rect class="fil0" x="2042" y="1337" width="76.278" height="76.278"/>
   <rect class="fil2 str3" x="2024" y="1054" width="76.278" height="76.278"/>
   <rect class="fil2 str3" x="2024" y="1187" width="76.278" height="76.278"/>
   <rect class="fil2 str3" x="2024" y="1321" width="76.278" height="76.278"/>
   <polyline class="fil2 str4" points="2062,1075 2091,1104 2140,1042 "/>
   <polyline class="fil2 str4" points="2062,1209 2091,1238 2140,1175 "/>
   <polyline class="fil2 str4" points="2062,1342 2091,1371 2140,1309 "/>
   <line class="fil2 str0" x1="2172" y1="1070" x2="2301" y2= "1070" />
   <line class="fil2 str0" x1="2172" y1="1204" x2="2301" y2= "1204" />
   <line class="fil2 str0" x1="2172" y1="1337" x2="2301" y2= "1337" />
   <line class="fil2 str0" x1="2172" y1="1114" x2="2301" y2= "1114" />
   <line class="fil2 str0" x1="2172" y1="1247" x2="2301" y2= "1247" />
   <line class="fil2 str0" x1="2172" y1="1380" x2="2301" y2= "1380" />
   <ellipse class="fil0 str3" cx="1252" cy="1657" rx="16" ry="26"/>
   <ellipse class="fil0 str3" cx="1368" cy="1657" rx="16" ry="26"/>
  </g>
  <g id="_2057023065680">
   <polygon class="fil6" points="303,1205 319,1320 433,1336 319,1351 303,1466 288,1351 173,1336 288,1320 "/>
   <polygon class="fil6" points="237,1393 253,1508 368,1524 253,1539 237,1654 222,1539 107,1524 222,1508 "/>
   <path class="fil1" d="M453 2413c82,6 119,5 159,-8 92,-32 122,-129 248,-141 38,-3 113,2 166,-112 28,-61 13,-166 44,-223 17,-6 -86,-105 -141,-120 -149,-24 -228,-91 -235,-108 -53,-13 -153,-73 -200,-81 -82,-13 -156,32 -222,92 -190,173 -253,443 -264,574 -29,353 361,155 445,127z"/>
   <g style="clip-path:url(#id10)">
    <g>
     <path id="1" class="fil0" d="M490 2466c82,5 119,5 159,-8 92,-32 122,-129 248,-141 38,-3 113,2 166,-112 28,-61 13,-166 44,-223 17,-6 -86,-105 -141,-120 -173,198 -314,9 -303,-141 -52,-13 -84,-40 -132,-48 -82,-13 -155,32 -222,92 -190,173 -253,443 -264,574 -28,353 361,154 445,127z"/>
    </g>
   </g>
   <path class="fil2" d="M453 2413c82,6 119,5 159,-8 92,-32 122,-129 248,-141 38,-3 113,2 166,-112 28,-61 13,-166 44,-223 17,-6 -86,-105 -141,-120 -149,-24 -228,-91 -235,-108 -53,-13 -153,-73 -200,-81 -82,-13 -156,32 -222,92 -190,173 -253,443 -264,574 -29,353 361,155 445,127z"/>
   <path class="fil1" d="M457 2170c48,-42 75,-49 164,-60 25,-3 106,20 32,39 -24,6 -53,20 -60,22 -32,18 101,-9 135,-38 5,-4 22,-1 25,7 22,58 -29,121 -72,159 -31,27 -206,101 -243,118 -15,-47 -25,-147 -7,-209 6,-21 2,-34 26,-38z"/>
   <g style="clip-path:url(#id11)">
    <g>
     <path id="1" class="fil3" d="M438 2209c47,-42 75,-62 164,-75 13,-2 41,1 55,8 12,7 11,7 -24,21 -23,9 -53,12 -60,14 -37,40 101,22 135,-6 5,-5 23,-2 26,6 21,58 -30,107 -73,146 -31,27 -205,101 -243,118 -15,-48 -24,-132 -7,-194 6,-21 3,-34 27,-38z"/>
    </g>
   </g>
   <path class="fil2" d="M457 2170c48,-42 75,-49 164,-60 25,-3 106,20 32,39 -24,6 -53,20 -60,22 -32,18 101,-9 135,-38 5,-4 22,-1 25,7 22,58 -29,121 -72,159 -31,27 -206,101 -243,118 -15,-47 -25,-147 -7,-209 6,-21 2,-34 26,-38z"/>
   <path class="fil2 str0" d="M1070 1929c17,-6 -86,-105 -141,-120 -149,-24 -228,-91 -235,-108 -53,-13 -153,-73 -200,-81 -82,-13 -156,32 -222,92 -190,173 -253,443 -264,574 -29,353 361,155 445,127"/>
   <path class="fil1" d="M1136 1504c-4,120 27,127 23,217 -5,118 -161,77 -206,56l-39 51c12,18 31,28 22,64 -28,123 -262,67 -253,-177l21 -29c-9,-11 -17,-28 -21,-53 -5,-28 9,-47 26,-52 24,-114 131,-194 253,-185 35,3 155,18 174,108z"/>
   <g style="clip-path:url(#id12)">
    <g>
     <path id="1" class="fil4" d="M1160 1520c-4,119 27,127 23,217 -5,118 -161,77 -207,56l-38 50c12,19 30,29 22,65 -29,123 -263,66 -253,-178l21 -28c-10,-11 -18,-28 -22,-53 -4,-28 9,-47 26,-53 25,-114 131,-194 254,-184 34,2 155,17 174,108z"/>
     <path class="fil1" d="M917 1430c-22,18 -57,45 -69,74 -14,59 -17,115 -20,121 -6,12 -23,12 -29,6l0 0c-9,-22 -27,-41 -37,-50 -10,-9 -24,-11 -35,-7 -55,-34 93,-237 180,-157 5,5 7,14 10,13z"/>
    </g>
   </g>
   <path class="fil2 str0" d="M1136 1504c-4,120 27,127 23,217 -5,118 -161,77 -206,56l-39 51c12,18 31,28 22,64 -28,123 -262,67 -253,-177l21 -29c-9,-11 -17,-28 -21,-53 -5,-28 9,-47 26,-52 24,-114 131,-194 253,-185 35,3 155,18 174,108z"/>
   <path class="fil5 str0" d="M881 1420c-21,21 -52,51 -62,81 -8,60 -5,116 -7,122 -5,12 -22,14 -29,8l0 0c-11,-20 -31,-38 -41,-45 -12,-8 -25,-9 -36,-4 -58,-28 69,-245 163,-174 6,4 9,14 12,12z"/>
   <path class="fil1" d="M885 1594c24,130 -9,157 -9,156 342,147 301,-55 270,-133 -4,6 -75,-28 -81,-37 -58,23 -138,22 -180,14z"/>
   <g style="clip-path:url(#id13)">
    <g>
     <path id="1" class="fil0" d="M907 1612c23,130 -15,154 -15,154 342,147 301,-49 270,-127 -4,5 -95,-34 -101,-44 -58,23 -113,24 -154,17z"/>
    </g>
   </g>
   <path class="fil2 str0" d="M885 1594c24,130 -9,157 -9,156 342,147 301,-55 270,-133 -4,6 -75,-28 -81,-37 -58,23 -138,22 -180,14z"/>
   <path class="fil2 str0" d="M885 1594c-1,0 -74,-1 -137,-3"/>
   <path class="fil2 str0" d="M876 1750c-76,-26 -131,-52 -116,-49"/>
   <path class="fil1" d="M438 2417c-15,-47 -25,-147 -7,-209 3,-11 3,-19 6,-26 -6,2 -15,3 -31,7 -3,14 -8,31 -12,52 -6,34 -8,78 4,141 3,14 7,30 12,48l28 -13z"/>
   <path class="fil2 str0" d="M681 2299c-31,27 -206,101 -243,118 -15,-47 -25,-147 -7,-209 6,-21 2,-34 26,-38 48,-42 75,-49 164,-60 25,-3 106,20 32,39 -24,6 -53,20 -60,22 -32,18 101,-9 135,-38 5,-4 22,-1 25,7"/>
   <path class="fil2 str0" d="M132 2297c20,-92 143,-107 222,-93 22,4 4,-27 55,-27 -8,40 -41,105 1,253 4,8 -143,56 -211,61"/>
   <path class="fil2 str0" d="M401 1944c-59,72 -65,162 -68,176"/>
   <path class="fil2 str0" d="M349 2257c16,-17 32,-20 45,-15"/>
   <path class="fil2 str0" d="M349 2324c20,-20 28,-17 40,-13"/>
   <path class="fil2 str0" d="M365 2398c10,-13 26,-18 31,-16"/>
   <path class="fil2 str0" d="M645 1726c14,-20 43,-6 36,-9"/>
   <path class="fil2 str0" d="M652 1797c27,9 32,-7 34,-11"/>
   <path class="fil2 str0" d="M681 1876c28,1 29,-16 30,-20"/>
   <path class="fil2 str0" d="M773 1969c27,-7 23,-23 23,-27"/>
   <path class="fil2 str0" d="M881 1978c24,-15 16,-29 14,-33"/>
   <path class="fil2 str0" d="M958 1909c1,-29 -16,-29 -20,-31"/>
   <path class="fil2 str0" d="M1037 1662c20,9 71,10 80,2"/>
   <path class="fil2 str0" d="M1046 1699c12,9 61,19 68,-1"/>
   <path class="fil2 str0" d="M1064 1512c-4,15 -4,57 1,68"/>
   <path class="fil2 str0" d="M936 1513c18,-18 32,-25 51,-29"/>
   <path class="fil2 str0" d="M1097 1501c8,1 16,5 24,11"/>
   <circle class="fil5 str5" cx="988" cy="1558" r="10"/>
   <circle class="fil5 str5" cx="1100" cy="1563" r="10"/>
   <path class="fil1" d="M709 1581c34,-93 128,-181 253,-166 56,6 160,30 174,89 7,9 36,-13 25,-40 46,-82 -6,-239 -162,-257 -71,-9 -153,-1 -201,28 -119,-8 -205,105 -191,140 -116,88 -26,241 41,208 -13,23 12,39 35,30 3,-17 13,-28 26,-32z"/>
   <g style="clip-path:url(#id14)">
    <g>
     <path id="1" class="fil0" d="M747 1607c33,-94 128,-183 254,-169 38,5 111,-5 150,22 18,12 20,49 25,68 6,8 35,-14 24,-40 46,-82 -5,-240 -161,-258 -71,-8 -154,-1 -201,29 -120,-9 -206,104 -192,140 -116,88 -26,241 41,208 -19,32 42,52 60,0z"/>
    </g>
   </g>
   <path class="fil2 str0" d="M709 1581c34,-93 128,-181 253,-166 56,6 160,30 174,89 7,9 36,-13 25,-40 46,-82 -6,-239 -162,-257 -71,-9 -153,-1 -201,28 -119,-8 -205,105 -191,140 -116,88 -26,241 41,208 -13,23 12,39 35,30 3,-17 13,-28 26,-32z"/>
   <path class="fil2 str0" d="M762 1700c-27,11 -68,3 -79,-67 -7,-45 31,-66 59,-47 11,8 32,27 43,49m-5 53c-4,5 -11,9 -18,12"/>
   <path class="fil2 str0" d="M729 1616c13,3 30,28 32,43"/>
   <path class="fil2 str0" d="M730 1667c-5,-31 25,-32 27,-17"/>
   <path class="fil2 str0" d="M817 1225c-22,9 -44,30 -53,57"/>
   <path class="fil2 str0" d="M758 2161c-28,15 -93,50 -132,52"/>
   <path class="fil2 str0" d="M751 2195c-24,14 -73,44 -110,55"/>
   <path class="fil2 str0" d="M735 2238c-23,14 -58,36 -89,47"/>
   <path class="fil2 str0" d="M798 1412c15,9 17,21 16,34"/>
   <path class="fil2 str0" d="M732 1468c16,5 21,16 22,29"/>
   <path class="fil2 str0" d="M686 1537c17,2 24,12 28,24"/>
   <path class="fil2 str0" d="M889 1376c13,11 13,24 9,36"/>
   <path class="fil2 str0" d="M983 1378c10,13 7,25 1,37"/>
   <path class="fil2 str0" d="M1072 1398c8,15 3,27 -6,37"/>
   <path class="fil2 str0" d="M1136 1437c4,16 -3,26 -13,35"/>
  </g>
  <g id="_2057023078128">
   <path class="fil1" d="M1219 1811c29,-56 82,-85 153,-94 70,-9 153,26 157,42 46,-10 138,15 152,76 14,62 -22,83 -45,77 -23,-7 -44,-20 -44,-20 -1,16 -47,64 -94,48 -8,-27 2,118 -75,74 -50,153 -154,-22 -224,-47 0,0 -31,-14 -54,7 -23,22 -24,68 -1,96 23,29 60,29 70,15l347 100c0,0 18,100 75,131 34,20 136,54 284,86 71,15 138,153 28,202 0,0 56,27 29,75 -27,47 -110,44 -110,44l-473 135 -643 -123c0,0 -72,-43 -87,-127 -23,-131 93,-297 231,-300 86,-2 173,-98 182,-174 12,-103 27,-288 142,-323z"/>
   <g style="clip-path:url(#id15)">
    <g>
     <path id="1" class="fil7 str3" d="M1236 1856c28,-54 79,-82 147,-90 68,-9 148,17 151,32 45,-9 133,22 147,82 13,59 -21,79 -43,73 -22,-6 -43,-18 -43,-18 -1,15 -45,61 -90,46 -8,-26 2,113 -73,71 -47,147 -147,-22 -215,-45 0,0 -30,-14 -52,7 -22,20 -17,30 5,57 22,27 34,28 44,14l331 131c0,0 38,106 92,136 34,19 131,52 274,82 68,15 132,138 26,186 0,0 55,26 29,71 -27,46 -106,43 -106,43l-455 129 -619 -118c0,0 -69,-41 -84,-122 -22,-126 90,-286 223,-289 82,-1 174,-94 182,-167 12,-98 19,-277 129,-311z"/>
    </g>
   </g>
   <path class="fil2 str3" d="M1219 1811c29,-56 82,-85 153,-94 70,-9 153,26 157,42 46,-10 138,15 152,76 14,62 -22,83 -45,77 -23,-7 -44,-20 -44,-20 -1,16 -47,64 -94,48 -8,-27 2,118 -75,74 -50,153 -154,-22 -224,-47 0,0 -31,-14 -54,7 -23,22 -24,68 -1,96 23,29 60,29 70,15l347 100c0,0 18,100 75,131 34,20 136,54 284,86 71,15 138,153 28,202 0,0 56,27 29,75 -27,47 -110,44 -110,44l-473 135 -643 -123c0,0 -72,-43 -87,-127 -23,-131 93,-297 231,-300 86,-2 173,-98 182,-174 12,-103 27,-288 142,-323z"/>
   <path class="fil1" d="M1207 2091c38,-3 283,122 252,151 0,0 -9,74 8,102 13,20 24,60 88,94 88,46 182,66 248,153 70,92 129,557 134,689 3,90 -196,146 -268,37 -56,-85 -507,26 -652,55 -22,16 -180,97 -233,98 -50,3 -170,6 -168,-151 2,-157 104,-528 139,-584 32,-51 49,-128 148,-184 56,-32 129,-54 227,-141 49,-44 86,-178 77,-319z"/>
   <path class="fil2 str0" d="M1017 3372c-22,16 -180,97 -233,98 -50,3 -170,6 -168,-151 2,-157 104,-528 139,-584 32,-51 49,-128 148,-184 56,-32 129,-54 227,-141 49,-44 86,-178 77,-319 38,-3 283,122 252,151 0,0 -9,74 8,102 13,20 24,60 88,94 88,46 182,66 248,153 70,92 129,557 134,689 3,90 -196,146 -268,37"/>
   <path class="fil1" d="M1164 2453c119,55 258,53 323,7 14,-32 24,-52 24,-52 -49,-46 -60,-101 -52,-166 18,1 35,-1 48,-6 26,-12 47,-33 62,-59 46,-78 50,-202 53,-270 -17,-6 -30,-15 -30,-15 -1,16 -47,64 -94,48 -18,-70 -65,-103 -100,-124 -49,153 -129,176 -199,151 0,0 -31,-14 -54,7 -23,22 -24,68 -1,96 19,24 47,28 63,21 9,141 -28,275 -77,319 0,0 13,17 34,43z"/>
   <g style="clip-path:url(#id16)">
    <g>
     <path id="1" class="fil8" d="M1191 2460c119,56 258,54 322,8 15,-32 25,-53 25,-53 -49,-45 -60,-101 -53,-166 19,1 36,0 48,-6 27,-11 48,-32 63,-59 46,-77 50,-201 53,-269 -17,-7 -31,-15 -31,-15 -1,16 -61,81 -118,48 -18,-70 -40,-103 -75,-124 -49,153 -129,176 -199,151 0,0 -31,-14 -54,7 -23,21 -22,70 -1,96 21,26 47,12 62,6 10,140 -27,303 -76,347 0,0 13,3 34,29z"/>
    </g>
   </g>
   <path class="fil2 str3" d="M1164 2453c119,55 258,53 323,7 14,-32 24,-52 24,-52 -49,-46 -60,-101 -52,-166 18,1 35,-1 48,-6 26,-12 47,-33 62,-59 46,-78 50,-202 53,-270 -17,-6 -30,-15 -30,-15 -1,16 -47,64 -94,48 -18,-70 -65,-103 -100,-124 -49,153 -129,176 -199,151 0,0 -31,-14 -54,7 -23,22 -24,68 -1,96 19,24 47,28 63,21 9,141 -28,275 -77,319 0,0 13,17 34,43z"/>
   <path class="fil1" d="M1387 2801c3,-47 104,-317 119,-372 -34,40 -158,94 -342,24 78,92 210,283 223,348z"/>
   <g style="clip-path:url(#id17)">
    <g>
     <path id="1" class="fil9" d="M1395 2805c5,-47 127,-328 145,-383 -36,39 -166,114 -293,74 75,96 138,243 148,309z"/>
    </g>
   </g>
   <path class="fil2 str3" d="M1387 2801c3,-47 104,-317 119,-372 -34,40 -158,94 -342,24 78,92 210,283 223,348z"/>
   <path class="fil10 str0" d="M1130 2410c70,42 289,371 269,418 0,0 -222,-162 -244,-171 -23,-9 29,-104 29,-104 0,0 -64,-2 -76,18 -14,-22 -22,-126 -22,-126l44 -35z"/>
   <path class="fil10 str0" d="M1511 2408c0,0 -117,304 -112,420 78,-94 115,-161 133,-177 17,-15 -28,-109 -28,-109l76 14 -25 -117 -44 -31z"/>
   <path class="fil2 str6" d="M782 3140c0,0 330,-177 396,-225 6,49 38,237 127,256 0,0 -358,287 -521,299"/>
   <path class="fil2 str7" d="M1896 2930c-76,54 -186,80 -268,25 0,0 15,281 31,304"/>
   <path class="fil5 str3" d="M1301 3060c-26,9 -54,68 -54,68 16,22 35,38 58,43 7,-7 1,-84 -4,-111z"/>
   <path class="fil5 str3" d="M1688 2926c4,28 5,50 5,50 -27,-4 -50,-8 -66,-25 -2,-16 38,-20 61,-25z"/>
   <path class="fil1" d="M1647 2828c33,24 55,4 58,-13 4,-16 -3,-45 -28,-44 -24,0 -33,16 -34,38 -1,20 -20,25 -38,8 -14,-13 -9,-38 -2,-55 22,-51 120,-72 139,0 -3,-67 -47,-116 -19,-139 17,-13 26,22 40,17 14,-5 35,0 45,5 58,24 81,239 88,283 -36,50 -195,70 -211,47 -5,-6 -2,-34 -7,-79 -2,-14 -32,7 -53,-27 -22,-36 17,-49 22,-41z"/>
   <g style="clip-path:url(#id18)">
    <g>
     <path id="1" class="fil4" d="M1621 2839c33,23 76,13 80,-5 3,-16 6,-18 -19,-18 -24,1 -42,4 -61,23 -14,13 -17,26 -35,9 -14,-14 -9,-38 -2,-55 22,-51 122,-87 161,-20 -3,-67 -69,-108 -41,-130 17,-14 26,21 39,16 15,-5 36,1 46,5 58,24 81,250 88,294 -36,51 -195,70 -211,48 -5,-7 -2,-34 -7,-79 -2,-14 -32,6 -53,-27 -22,-36 10,-70 15,-61z"/>
    </g>
   </g>
   <path class="fil2" d="M1647 2828c33,24 55,4 58,-13 4,-16 -3,-45 -28,-44 -24,0 -33,16 -34,38 -1,20 -20,25 -38,8 -14,-13 -9,-38 -2,-55 22,-51 120,-72 139,0 -3,-67 -47,-116 -19,-139 17,-13 26,22 40,17 14,-5 35,0 45,5 58,24 81,239 88,283 -36,50 -195,70 -211,47 -5,-6 -2,-34 -7,-79 -2,-14 -32,7 -53,-27 -22,-36 17,-49 22,-41z"/>
   <path class="fil2 str0" d="M1808 2645c58,24 81,239 88,283 -36,50 -195,70 -211,47 -5,-6 -2,-34 -7,-79 -2,-14 -32,7 -53,-27 -22,-36 17,-49 22,-41 33,24 55,4 58,-13 4,-16 -3,-45 -28,-44 -24,0 -33,16 -34,38 -1,20 -20,25 -38,8 -14,-13 -9,-38 -2,-55 22,-51 120,-72 139,0 -3,-67 -47,-116 -19,-139"/>
   <path class="fil2 str0" d="M1622 1907c-4,91 -10,282 -115,329 -32,14 -98,3 -128,-15 -54,-32 -111,-93 -118,-113"/>
   <path class="fil2 str0" d="M1475 1915c-4,91 15,112 36,109 50,-8 27,36 8,54"/>
   <path class="fil2 str0" d="M1367 1989c30,19 61,4 71,-6"/>
   <path class="fil2 str0" d="M1526 1975c30,10 41,7 61,-7"/>
   <path class="fil2 str0" d="M1422 2089c20,24 45,27 62,14"/>
   <path class="fil2 str0" d="M1375 1912c11,-7 22,-12 34,-15"/>
   <path class="fil2 str8" d="M1598 2132l0 113c0,271 -454,271 -454,0l0 -200 41 0"/>
   <path class="fil2 str1" d="M1591 2135l0 105c0,265 -439,265 -439,0l0 -197 40 0"/>
   <ellipse class="fil0 str3" cx="1189" cy="2035" rx="14" ry="26"/>
   <path class="fil1 str3" d="M1459 2880c0,-48 17,-67 35,-56 14,-1 4,109 -1,114 -14,11 -33,-3 -34,-58z"/>
   <ellipse class="fil1 str0" cx="1494" cy="2880" rx="12" ry="56"/>
   <path class="fil2 str9" d="M1399 2437l0 502 0 161c0,25 18,46 44,46 25,0 44,-21 44,-46l0 -161"/>
   <path class="fil1" d="M1178 2915c0,0 173,-119 189,-109 15,11 77,52 113,83 14,30 -33,58 -58,39 21,47 27,77 25,87 -3,19 -37,24 -45,9 -12,28 -40,44 -53,9 0,0 5,27 -17,49 -22,23 -85,46 -85,46 -27,-22 -64,-148 -69,-213z"/>
   <g style="clip-path:url(#id19)">
    <g>
     <path id="1" class="fil4" d="M1184 2945c0,0 173,-119 189,-109 16,10 77,52 113,82 -25,43 -34,30 -42,34 -6,3 35,89 33,99 -3,19 -61,18 -69,2 -12,29 -40,44 -53,10 0,0 5,27 -17,49 -22,23 -85,46 -85,46 -27,-22 -64,-148 -69,-213z"/>
    </g>
   </g>
   <path class="fil2" d="M1178 2915c0,0 173,-119 189,-109 15,11 77,52 113,83 14,30 -33,58 -58,39 21,47 27,77 25,87 -3,19 -37,24 -45,9 -12,28 -40,44 -53,9 0,0 5,27 -17,49 -22,23 -85,46 -85,46 -27,-22 -64,-148 -69,-213z"/>
   <path class="fil2 str3" d="M1422 2928c21,47 27,77 25,87m-98 18c0,0 5,27 -17,49 -22,23 -85,46 -85,46 -27,-22 -64,-148 -69,-213 0,0 173,-119 189,-109 15,11 77,52 113,83 5,11 2,22 -5,30"/>
   <path class="fil2 str0" d="M1329 2969c10,8 16,38 20,64"/>
   <path class="fil2 str0" d="M1382 2954c10,13 16,41 20,67"/>
   <path class="fil2 str0" d="M1755 2639c21,27 35,94 37,124"/>
   <path class="fil2 str0" d="M1798 2641c17,28 27,74 33,116"/>
   <path class="fil2 str0" d="M955 2803c-37,85 -2,196 -2,166"/>
   <polygon class="fil0" points="590,2692 590,2629 536,2629 536,2576 474,2576 474,2629 420,2629 420,2692 474,2692 474,2746 536,2746 536,2692 "/>
   <polygon class="fil0" points="519,2995 519,2891 430,2891 430,2802 326,2802 326,2891 236,2891 236,2995 326,2995 326,3085 430,3085 430,2995 "/>
  </g>
 </g>
</svg>
