<?xml version="1.0" encoding="UTF-8"?>
<!DOCTYPE svg PUBLIC "-//W3C//DTD SVG 1.1//EN" "http://www.w3.org/Graphics/SVG/1.1/DTD/svg11.dtd">
<!-- Creator: CorelDRAW X7 -->
<svg xmlns="http://www.w3.org/2000/svg" xml:space="preserve" width="9.20489in" height="7.48032in" version="1.1" style="shape-rendering:geometricPrecision; text-rendering:geometricPrecision; image-rendering:optimizeQuality; fill-rule:evenodd; clip-rule:evenodd"
viewBox="0 0 9205 7480"
 xmlns:xlink="http://www.w3.org/1999/xlink">
 <defs>
  <style type="text/css">
   <![CDATA[
    .fil2 {fill:none}
    .fil5 {fill:#1B1D4E}
    .fil4 {fill:#71D9FC}
    .fil6 {fill:#7268FD}
    .fil1 {fill:#A2FFC8}
    .fil7 {fill:#F9E95E}
    .fil0 {fill:white}
    .fil3 {fill:#1B1D4E;fill-rule:nonzero}
   ]]>
  </style>
    <clipPath id="id0">
     <path d="M111 2522c-134,423 -125,1049 114,1293 331,339 4586,-491 4680,-634 168,-257 88,-1152 -233,-1340 -264,-154 -4547,655 -4561,681z"/>
    </clipPath>
    <clipPath id="id1">
     <path d="M6993 1069c-266,-278 -537,-463 -420,-765 16,-43 173,-409 273,-235 80,-62 314,-56 455,40 227,155 248,326 193,593 -9,44 58,118 41,153 -83,169 -417,344 -542,214z"/>
    </clipPath>
    <clipPath id="id2">
     <path d="M5198 3450c-132,-31 -132,-131 -133,-155 -38,169 -299,260 -328,-98 -36,-443 547,-878 899,-704 105,-105 517,-55 617,116 257,-54 648,409 815,543 122,99 516,221 636,472 233,490 -488,431 -466,704 15,189 -221,400 -399,346 -118,53 -603,496 -706,545 -140,67 -289,-206 -437,-200 -622,84 -877,437 -945,561 -208,-101 -582,-643 309,-1525 100,-100 -41,-561 138,-605z"/>
    </clipPath>
    <clipPath id="id3">
     <path d="M5139 3435c114,733 459,922 653,964 77,138 15,524 -47,574 -221,282 504,638 806,540 301,-97 588,-444 455,-810 -377,21 -435,-832 -450,-985 147,27 212,-474 -77,-433 -71,10 -86,48 -124,65 -359,-45 -585,-365 -651,-559 -270,98 -410,449 -334,642 -67,40 -185,11 -231,2z"/>
    </clipPath>
    <clipPath id="id4">
     <path d="M3014 3617l555 3164c22,325 -242,212 -268,26l-540 -3146c85,-14 169,-29 253,-44z"/>
    </clipPath>
    <clipPath id="id5">
     <path d="M3940 5713c-83,-147 -229,-440 -259,-615 -18,-104 113,-467 -16,-495 -98,-22 -164,144 -208,205 -65,-92 -176,-115 -254,-113 -67,19 -123,50 -257,42 -129,72 -63,608 60,651 72,25 224,-7 309,-53l129 731c91,-79 322,-269 496,-353z"/>
    </clipPath>
    <clipPath id="id6">
     <path d="M5776 5127c-119,625 251,801 778,967 516,-333 422,-838 317,-1307 -124,427 -749,723 -1095,340z"/>
    </clipPath>
    <clipPath id="id7">
     <path d="M5376 1194c7,66 -1,165 17,155 39,-23 145,-130 441,-262 51,-23 63,-46 -13,-77 -132,-54 -389,89 -445,184z"/>
    </clipPath>
    <clipPath id="id8">
     <path d="M1148 5062c68,-64 168,-67 330,91 60,58 166,364 7,200 -5,-5 -337,-291 -337,-291z"/>
    </clipPath>
 </defs>
 <g id="Layer_x0020_1">
  <metadata id="CorelCorpID_0Corel-Layer"/>
  <g id="_2049578214080">
   <path class="fil0" d="M111 2522c-134,423 -125,1049 114,1293 331,339 4586,-491 4680,-634 168,-257 88,-1152 -233,-1340 -264,-154 -4547,655 -4561,681z"/>
   <g style="clip-path:url(#id0)">
    <g>
     <path id="1" class="fil1" d="M41 2675c-134,422 -125,1048 114,1293 331,338 4586,-492 4680,-635 168,-257 88,-1151 -233,-1339 -264,-155 -4547,654 -4561,681z"/>
    </g>
   </g>
   <path class="fil2" d="M111 2522c-134,423 -125,1049 114,1293 331,339 4586,-491 4680,-634 168,-257 88,-1152 -233,-1340 -264,-154 -4547,655 -4561,681z"/>
   <path class="fil2" d="M1988 3779c940,-129 1935,-320 2482,-458m490 -910c-46,-252 -142,-484 -288,-570 -159,-93 -1775,163 -3038,388m-273 49c-102,18 -134,24 -229,42m-234 43c-466,87 -784,152 -787,159 -134,423 -125,1049 114,1293"/>
   <path class="fil3" d="M1992 3803c-14,2 -26,-7 -27,-21 -2,-13 7,-25 20,-26 451,-62 914,-139 1335,-216 455,-84 860,-170 1144,-243 13,-3 26,5 29,18 3,13 -4,26 -17,29 -284,72 -690,158 -1147,243 -422,78 -886,154 -1337,216zm2991 -1397c3,13 -6,26 -19,28 -13,2 -25,-6 -28,-19 -23,-131 -61,-256 -112,-357 -45,-89 -100,-158 -164,-196 -64,-37 -401,-11 -864,48 -611,78 -1441,215 -2158,342 -13,3 -26,-6 -28,-19 -2,-13 7,-26 20,-28 716,-127 1546,-265 2160,-343 473,-60 820,-85 894,-41 73,43 134,119 183,215 53,105 92,235 116,370zm-3626 -152c13,-2 26,6 28,19 2,13 -6,26 -19,28 -86,16 -123,22 -197,36l-33 6c-13,3 -25,-6 -28,-19 -2,-13 6,-26 19,-28l33 -6c69,-13 104,-19 197,-36zm-464 85c13,-2 26,7 28,20 3,13 -6,25 -19,28 -230,43 -423,80 -559,108 -130,26 -203,35 -211,38 -69,220 -99,496 -77,743 19,218 79,412 187,522 9,10 9,25 0,34 -10,10 -25,9 -34,0 -117,-119 -181,-324 -201,-552 -22,-254 9,-539 81,-765l0 0c0,-1 1,-3 1,-4 6,-10 95,-33 245,-63 139,-28 333,-66 559,-109z"/>
   <path class="fil0" d="M6993 1069c-266,-278 -537,-463 -420,-765 16,-43 173,-409 273,-235 80,-62 314,-56 455,40 227,155 248,326 193,593 -9,44 58,118 41,153 -83,169 -417,344 -542,214z"/>
   <g style="clip-path:url(#id1)">
    <g>
     <path id="1" class="fil4" d="M7049 1180c-266,-279 -536,-463 -420,-765 16,-44 173,-409 273,-235 80,-62 314,-57 455,40 227,155 248,326 193,593 -9,44 58,118 41,153 -83,169 -417,344 -542,214z"/>
    </g>
   </g>
   <path class="fil2" d="M6993 1069c-266,-278 -537,-463 -420,-765 16,-43 173,-409 273,-235 80,-62 314,-56 455,40 227,155 248,326 193,593 -9,44 58,118 41,153 -83,169 -417,344 -542,214z"/>
   <path class="fil2" d="M7301 109c227,155 248,326 193,593 -9,44 58,118 41,153 -83,169 -417,344 -542,214 -266,-278 -537,-463 -420,-765 16,-43 173,-409 273,-235"/>
   <path class="fil3" d="M7288 128c-10,-7 -12,-21 -5,-31 7,-10 20,-13 31,-6 118,81 182,166 210,267 28,99 20,212 -9,349 -2,14 10,39 21,63 16,34 32,67 19,95 -18,36 -47,73 -82,107 -61,58 -142,109 -223,138 -83,30 -166,37 -228,7 -17,-8 -32,-19 -45,-33 -43,-45 -87,-88 -129,-129 -221,-218 -399,-392 -296,-659 9,-23 55,-131 111,-209 23,-31 48,-57 74,-72 30,-18 61,-21 91,0 13,9 26,23 37,43 6,11 3,24 -8,31 -11,6 -24,2 -30,-9 -8,-14 -17,-23 -25,-29 -13,-9 -28,-7 -43,2 -20,12 -40,34 -60,61 -54,73 -97,177 -106,198 -92,239 77,405 287,611 42,42 86,85 129,130 10,10 20,18 32,24 50,24 121,17 194,-9 75,-27 150,-74 207,-129 31,-30 57,-62 73,-94 4,-8 -8,-32 -19,-56 -15,-31 -30,-63 -24,-91 27,-130 35,-237 10,-328 -26,-90 -85,-168 -194,-242z"/>
   <path class="fil0" d="M9155 2801c116,822 -173,1836 -482,2559 -50,117 -375,878 -307,1654 19,224 -490,325 -558,320 -1204,-83 -2582,251 -3539,112 -618,-89 -1023,-1189 -955,-1257 205,-206 453,-395 626,-476l502 791c53,-168 263,-931 393,-1067 277,-293 417,-267 684,-378 181,123 1951,-1309 2076,-1579 188,-402 241,-631 118,-1019 -140,-446 -570,-1034 -762,-1349 65,-81 664,-591 787,-435 389,492 1330,1512 1417,2124z"/>
   <path class="fil2" d="M3577 6881c-198,-317 -300,-655 -263,-692 205,-206 453,-395 626,-476l502 791c53,-168 263,-931 393,-1067 277,-293 417,-267 684,-378 181,123 1951,-1309 2076,-1579 188,-402 241,-631 118,-1019 -140,-446 -570,-1034 -762,-1349 65,-81 664,-591 787,-435 389,492 1330,1512 1417,2124 116,822 -173,1836 -482,2559 -50,117 -375,878 -307,1654"/>
   <path class="fil3" d="M3597 6868c7,11 4,26 -7,33 -11,7 -26,4 -33,-8 -90,-143 -161,-291 -207,-414 -61,-158 -80,-280 -53,-306 103,-105 218,-204 328,-288 111,-84 217,-153 305,-194 11,-5 24,-1 30,9l0 0 474 747c6,-19 13,-42 20,-67 82,-276 250,-840 363,-960 210,-221 342,-264 508,-317 57,-18 117,-38 185,-66 8,-3 17,-2 23,3l1 0c90,42 538,-260 992,-613 459,-356 920,-765 1031,-928 7,-11 13,-21 17,-29 93,-199 152,-355 173,-508 21,-152 4,-303 -56,-494 -107,-337 -381,-758 -590,-1078 -65,-100 -124,-190 -170,-266 -5,-9 -4,-20 2,-27l0 0c23,-29 108,-107 215,-192 99,-79 218,-163 324,-218 113,-59 214,-85 270,-40 5,4 10,9 15,15 69,88 157,193 253,309 447,537 1096,1317 1168,1827 53,370 24,777 -52,1180 -94,499 -260,990 -431,1392l0 0c-50,117 -373,872 -305,1642 1,13 -9,25 -22,26 -13,1 -25,-9 -26,-22 -69,-781 258,-1546 308,-1665l0 0 1 0c170,-399 334,-887 428,-1382 75,-398 103,-800 52,-1165 -70,-496 -715,-1270 -1157,-1802 -97,-117 -185,-222 -255,-310 -2,-3 -4,-6 -7,-8 -38,-31 -121,-5 -218,45 -103,54 -219,137 -316,214 -91,72 -165,138 -197,171 44,71 99,156 160,250 211,323 487,747 595,1090 63,197 80,355 59,514 -22,159 -83,319 -178,522 -5,11 -12,23 -20,35 -114,168 -580,581 -1042,940 -460,358 -920,661 -1036,620 -66,27 -125,46 -179,63 -159,52 -287,93 -488,305 -105,111 -271,669 -352,941 -15,51 -27,92 -35,118l0 0c-2,5 -5,10 -10,13 -12,7 -26,3 -34,-8l-490 -773c-81,40 -177,103 -277,179 -108,82 -221,181 -323,283 -14,14 10,116 64,256 46,121 114,266 202,406z"/>
   <path class="fil0" d="M5198 3450c-132,-31 -132,-131 -133,-155 -38,169 -299,260 -328,-98 -36,-443 547,-878 899,-704 105,-105 517,-55 617,116 257,-54 648,409 815,543 122,99 516,221 636,472 233,490 -488,431 -466,704 15,189 -221,400 -399,346 -118,53 -603,496 -706,545 -140,67 -289,-206 -437,-200 -622,84 -877,437 -945,561 -208,-101 -582,-643 309,-1525 100,-100 -41,-561 138,-605z"/>
   <g style="clip-path:url(#id2)">
    <g>
     <path id="1" class="fil5" d="M5240 3561c-132,-32 -131,-131 -133,-155 -38,169 -299,260 -328,-99 -36,-442 547,-877 899,-703 105,-105 517,-55 617,116 257,-55 648,409 815,543 122,99 516,221 636,472 233,490 -488,431 -466,704 15,189 -221,400 -399,346 -118,53 -603,496 -706,545 -140,67 -289,-206 -437,-200 -622,84 -877,437 -945,561 -208,-101 -582,-643 309,-1525 100,-100 -41,-561 138,-605z"/>
    </g>
   </g>
   <path class="fil2" d="M5198 3450c-132,-31 -132,-131 -133,-155 -38,169 -299,260 -328,-98 -36,-443 547,-878 899,-704 105,-105 517,-55 617,116 257,-54 648,409 815,543 122,99 516,221 636,472 233,490 -488,431 -466,704 15,189 -221,400 -399,346 -118,53 -603,496 -706,545 -140,67 -289,-206 -437,-200 -622,84 -877,437 -945,561 -208,-101 -582,-643 309,-1525 100,-100 -41,-561 138,-605z"/>
   <path class="fil3" d="M5139 3455c-45,-22 -69,-53 -82,-82 -20,32 -48,58 -80,74 -27,14 -56,22 -85,20 -31,-1 -60,-12 -87,-34 -46,-39 -82,-113 -92,-235 -9,-105 16,-210 64,-307 61,-122 159,-232 273,-314 114,-82 243,-135 367,-145 75,-6 148,4 215,33 5,-4 11,-8 17,-11 66,-39 180,-48 293,-31 114,17 228,61 295,128 11,10 20,21 28,32 209,-28 484,236 676,420 56,54 105,101 142,131 35,28 95,59 165,95 169,87 391,202 477,385 149,312 -60,415 -249,508 -115,57 -221,109 -214,204 3,33 -1,67 -11,99 -22,71 -69,138 -129,189 -59,51 -132,86 -203,92 -26,2 -52,0 -77,-6 -65,33 -223,164 -373,289 -140,116 -274,227 -325,252 -90,43 -176,-26 -262,-97 -63,-51 -126,-103 -184,-101 -235,32 -417,103 -555,185 -221,131 -330,289 -371,363 -6,12 -20,16 -31,11l0 0c-33,-16 -70,-42 -105,-78 -70,-71 -137,-182 -159,-330 -22,-147 -1,-329 104,-545 87,-181 234,-385 462,-611 36,-36 34,-140 33,-249 -2,-133 -4,-273 63,-334zm-50 -158c1,24 5,104 115,130 8,2 15,9 17,18 3,13 -5,25 -17,29 -84,20 -82,171 -80,314 1,120 3,234 -47,284 -224,222 -368,422 -453,598 -100,206 -120,379 -100,517 21,136 82,238 146,304 24,24 49,43 72,57 50,-85 165,-236 376,-361 144,-85 332,-159 575,-192l0 0c1,0 2,0 3,0 75,-3 146,55 217,112 74,61 147,121 210,91 45,-22 177,-131 316,-246 158,-131 324,-270 390,-299 5,-3 11,-3 17,-2 22,7 46,9 69,7 61,-5 124,-35 176,-80 53,-45 95,-105 114,-166 8,-28 12,-55 9,-82 -10,-127 111,-187 241,-251 169,-83 355,-175 227,-445 -80,-168 -293,-278 -456,-362 -72,-38 -134,-70 -173,-101 -39,-31 -88,-79 -145,-133 -190,-182 -464,-445 -650,-405l0 0c-10,2 -20,-2 -26,-11 -7,-13 -17,-26 -29,-37 -59,-60 -163,-99 -268,-115 -104,-15 -206,-8 -262,25 -8,4 -14,9 -20,15 -7,7 -18,10 -28,5 -62,-31 -132,-41 -204,-35 -115,9 -236,59 -343,136 -108,77 -200,181 -258,297 -44,89 -67,185 -59,282 9,107 38,170 75,201 18,15 38,22 58,23 20,2 42,-4 61,-14 41,-22 75,-64 87,-115 2,-10 11,-19 22,-19 13,-1 24,9 25,23l0 3 0 0 0 0z"/>
   <path class="fil0" d="M5139 3435c114,733 459,922 653,964 77,138 15,524 -47,574 -221,282 504,638 806,540 301,-97 588,-444 455,-810 -377,21 -435,-832 -450,-985 147,27 212,-474 -77,-433 -71,10 -86,48 -124,65 -359,-45 -585,-365 -651,-559 -270,98 -410,449 -334,642 -67,40 -185,11 -231,2z"/>
   <g style="clip-path:url(#id3)">
    <g>
     <path id="1" class="fil4" d="M5069 3505c114,733 458,921 653,964 76,137 15,523 -47,574 -221,281 504,637 806,539 301,-97 588,-444 455,-809 -377,21 -435,-832 -450,-985 147,27 212,-475 -77,-434 -71,10 -86,48 -124,65 -359,-45 -585,-365 -651,-558 -270,98 -410,448 -334,641 -68,40 -185,11 -231,3z"/>
    </g>
   </g>
   <path class="fil2" d="M5139 3435c114,733 459,922 653,964 77,138 15,524 -47,574 -221,282 504,638 806,540 301,-97 588,-444 455,-810 -377,21 -435,-832 -450,-985 147,27 212,-474 -77,-433 -71,10 -86,48 -124,65 -359,-45 -585,-365 -651,-559 -270,98 -410,449 -334,642 -67,40 -185,11 -231,2z"/>
   <path class="fil3" d="M5168 3465c47,279 129,475 222,612 136,202 297,275 407,299 8,2 14,7 17,13 36,67 43,183 34,295 -11,136 -48,271 -85,306 -26,34 -37,68 -35,103 3,57 39,115 96,169 59,56 139,107 227,148 171,80 370,120 492,80 7,-2 14,-4 20,-7 140,-50 274,-155 359,-289 85,-134 122,-297 68,-464l-1 -2c-365,-5 -435,-769 -454,-979 -1,-10 -2,-19 -3,-28 -1,-13 9,-25 22,-26 2,-1 4,-1 7,0 28,5 54,-23 72,-65 15,-35 23,-79 24,-123 1,-44 -6,-88 -24,-123 -25,-52 -73,-87 -151,-76 -39,6 -59,22 -77,37 -12,10 -24,19 -40,27 -4,2 -9,2 -13,2 -159,-20 -292,-92 -397,-182 -132,-114 -222,-258 -265,-369 -118,50 -208,152 -262,265 -55,115 -71,240 -38,330l0 1 2 5c4,11 0,23 -10,29l0 0 0 0c-62,37 -155,24 -214,12zm182 639c-100,-148 -187,-360 -235,-664 0,-3 0,-6 0,-9 2,-13 15,-22 28,-19 9,1 11,2 14,2 45,9 128,26 183,6 -30,-100 -13,-232 45,-353 60,-126 163,-240 299,-294 3,-1 7,-2 11,-4l1 0c13,-5 26,2 31,15 36,107 124,256 259,371 98,84 220,150 365,170 8,-4 16,-11 24,-17 23,-19 48,-40 101,-47 103,-15 167,32 200,102 21,43 30,94 29,145 -1,50 -11,100 -28,140 -22,51 -54,87 -95,94l1 3c18,203 87,953 422,934l0 0c10,0 20,6 24,16 2,7 4,13 7,20 59,183 19,360 -73,504 -91,144 -234,256 -383,310 -7,2 -15,5 -22,7 -134,43 -346,2 -528,-82 -92,-43 -176,-98 -239,-158 -65,-62 -107,-131 -111,-201 -2,-46 11,-92 46,-136 1,-1 2,-3 4,-4 29,-24 59,-147 70,-275 8,-100 4,-201 -24,-260 -118,-28 -285,-108 -426,-316z"/>
   <path class="fil0" d="M3014 3617l555 3164c22,325 -242,212 -268,26l-540 -3146c85,-14 169,-29 253,-44z"/>
   <g style="clip-path:url(#id4)">
    <g>
     <path id="1" class="fil6" d="M2923 3617l555 3164c22,325 -242,212 -268,26l-540 -3146c85,-14 169,-29 253,-44z"/>
    </g>
   </g>
   <path class="fil2" d="M3014 3617l555 3164c22,325 -242,212 -268,26l-540 -3146c85,-14 169,-29 253,-44z"/>
   <path class="fil2" d="M3319 5355l250 1426c22,325 -242,212 -268,26l-211 -1228m-173 -1006l-156 -912c85,-14 169,-29 253,-44l158 899"/>
   <path class="fil3" d="M3295 5359c-2,-13 7,-26 20,-28 13,-2 25,7 28,20l250 1426c0,1 0,2 0,3 7,108 -17,173 -54,205l0 0c-19,17 -42,25 -67,26 -23,0 -47,-6 -70,-18 -59,-31 -113,-100 -125,-182l0 0 -210 -1227c-3,-14 6,-26 19,-28 13,-2 26,6 28,19l211 1228 0 0 0 0c9,67 52,123 99,148 16,8 32,12 47,12 13,0 26,-5 37,-14l0 0 0 0c26,-23 43,-75 37,-165l-250 -1425zm-354 -790c2,13 -7,25 -20,27 -13,2 -25,-6 -27,-19l-157 -912c-2,-13 7,-26 20,-28l1 0c39,-7 82,-14 126,-21 39,-7 81,-15 126,-22 13,-3 25,6 28,19l157 899c3,13 -6,25 -19,28 -13,2 -26,-7 -28,-20l-154 -875c-32,6 -66,12 -102,18 -33,6 -67,11 -103,17l152 889z"/>
   <path class="fil0" d="M3940 5713c-83,-147 -229,-440 -259,-615 -18,-104 113,-467 -16,-495 -98,-22 -164,144 -208,205 -65,-92 -176,-115 -254,-113 -67,19 -123,50 -257,42 -129,72 -63,608 60,651 72,25 224,-7 309,-53l129 731c91,-79 322,-269 496,-353z"/>
   <g style="clip-path:url(#id5)">
    <g>
     <path id="1" class="fil4" d="M3856 5796c-83,-147 -229,-440 -259,-615 -18,-103 113,-466 -16,-495 -98,-22 -164,144 -208,205 -65,-91 -176,-114 -254,-113 -67,19 -123,50 -257,42 -105,72 -49,608 60,651 71,28 224,-7 309,-53l129 731c91,-78 321,-269 496,-353z"/>
    </g>
   </g>
   <path class="fil2" d="M3940 5713c-83,-147 -229,-440 -259,-615 -18,-104 113,-467 -16,-495 -98,-22 -164,144 -208,205 -65,-92 -176,-115 -254,-113 -67,19 -123,50 -257,42 -129,72 -63,608 60,651 72,25 224,-7 309,-53l129 731c91,-79 322,-269 496,-353z"/>
   <path class="fil2" d="M3006 5388c72,25 224,-7 309,-53l129 731c91,-79 322,-269 496,-353 -83,-147 -229,-440 -259,-615 -18,-104 113,-467 -16,-495 -98,-22 -164,144 -208,205 -65,-92 -176,-115 -254,-113 -67,19 -123,50 -257,42"/>
   <g>
    <path class="fil3" d="M2999 5411c-13,-5 -19,-18 -15,-31 4,-12 18,-19 30,-15 31,11 79,9 131,1 57,-10 117,-30 159,-52 12,-7 26,-2 33,9 1,3 2,5 2,8l0 0 121 689c60,-50 150,-123 245,-191 67,-48 137,-93 202,-126 -48,-86 -110,-210 -162,-332 -41,-97 -74,-194 -87,-269 -7,-39 4,-106 17,-181 22,-129 48,-281 -15,-295 -60,-13 -112,77 -151,143 -12,21 -22,39 -32,53 -8,11 -23,13 -34,6 -2,-2 -4,-4 -5,-6 -26,-36 -60,-61 -96,-77 -45,-20 -95,-27 -135,-26 -12,3 -24,7 -36,11 -55,18 -114,37 -227,31 -13,-1 -23,-12 -22,-25 0,-14 12,-24 25,-23 103,6 158,-12 209,-29 13,-4 26,-8 41,-12l0 0c2,-1 4,-1 6,-1 46,-1 105,6 159,31 34,15 66,36 93,65 4,-7 8,-14 13,-22 46,-79 108,-187 203,-166 107,24 77,201 51,350 -12,70 -23,134 -17,165 12,72 45,164 84,258 55,131 124,265 172,349l0 0 0 2c6,12 1,26 -11,32 -67,32 -143,81 -217,133 -112,80 -217,167 -272,215 -4,3 -8,6 -13,7 -13,2 -26,-7 -28,-20l-123 -700c-42,19 -94,34 -144,43 -59,10 -116,11 -154,-2zm439 -589c-6,-8 -6,-19 0,-28l0 28z"/>
   </g>
   <path class="fil0" d="M5776 5127c-119,625 251,801 778,967 516,-333 422,-838 317,-1307 -124,427 -749,723 -1095,340z"/>
   <g style="clip-path:url(#id6)">
    <g id="_2049578227872">
     <path id="1" class="fil6" d="M5745 4973c-118,625 28,1102 555,1267 384,-332 399,-965 413,-1433 -124,427 -622,549 -968,166z"/>
    </g>
   </g>
   <path class="fil2" d="M5776 5127c-119,625 251,801 778,967 516,-333 422,-838 317,-1307 -124,427 -749,723 -1095,340z"/>
   <path class="fil3" d="M5792 5178c-44,277 17,458 148,588 138,137 355,221 610,302 245,-161 345,-362 372,-579 24,-198 -12,-409 -56,-616 -42,93 -106,177 -183,248 -91,82 -201,145 -317,179 -116,34 -238,39 -352,6 -80,-23 -155,-65 -222,-128zm114 622c-149,-149 -215,-356 -154,-677l0 0c1,-5 4,-10 8,-13 10,-9 25,-8 34,1 68,76 148,124 233,149 105,30 218,25 326,-6 109,-32 212,-92 297,-169 93,-84 165,-189 198,-303 2,-9 9,-16 18,-18 13,-3 26,5 29,18 53,236 103,482 75,712 -29,234 -138,449 -403,620 -6,4 -13,5 -20,3 -267,-84 -494,-171 -641,-317z"/>
   <path class="fil0" d="M5519 5099c-51,274 -34,339 -26,386 26,-18 171,-115 224,-83 2,75 -61,257 -61,388 160,158 682,346 898,304 -185,-41 -865,-820 -782,-1127 -122,38 -163,63 -253,132z"/>
   <path class="fil3" d="M5541 5113c-37,201 -36,284 -30,331 20,-12 46,-28 73,-41 52,-25 110,-43 145,-22 8,4 12,12 12,20l0 0c1,37 -11,92 -25,155l0 0 0 0c-16,73 -34,156 -36,224 83,77 251,160 426,219 129,44 260,74 359,77 -112,-76 -277,-243 -421,-430 -172,-224 -315,-479 -302,-644 -40,13 -70,26 -97,40 -33,18 -64,40 -104,71zm-73 368c-8,-48 -21,-122 28,-386l0 0c1,-6 4,-11 9,-15 46,-35 79,-60 117,-80 38,-20 79,-36 142,-56 4,-1 9,-2 14,0 13,3 20,16 17,29 -1,3 -1,6 -2,7 -32,147 113,407 289,636 177,231 384,429 474,454l2 0c10,2 18,9 20,19 2,13 -6,26 -19,28 -110,22 -292,-12 -469,-72 -184,-63 -364,-153 -450,-236 -5,-5 -8,-12 -8,-19 0,-75 20,-165 37,-244l0 0c11,-50 21,-96 24,-127 -22,-1 -55,11 -88,27 -43,21 -83,48 -97,57 -3,3 -7,4 -11,5 -13,2 -25,-6 -28,-19l-1 -7 0 -1z"/>
   <path class="fil0" d="M6839 4678c-5,331 -160,1197 -285,1416 388,-333 526,-554 590,-721 -22,-55 -118,-181 -152,-248 70,-44 134,-63 249,-106 -31,-79 -169,-369 -207,-372 -97,-9 -169,-7 -195,31z"/>
   <path class="fil3" d="M6863 4686c-4,180 -49,506 -109,804 -40,200 -88,389 -134,514 149,-134 255,-248 331,-347 86,-112 135,-204 167,-284 -14,-28 -43,-73 -73,-118 -29,-43 -58,-87 -75,-119 -5,-12 -1,-25 9,-32l0 0c59,-36 112,-55 191,-84 13,-5 26,-10 40,-15 -25,-57 -74,-161 -118,-240 -30,-53 -55,-94 -61,-95 -46,-4 -86,-6 -118,-2 -23,3 -40,9 -50,18zm-156 794c60,-299 106,-626 108,-802 0,-5 2,-10 5,-14 17,-25 47,-38 87,-43 35,-5 79,-3 129,2 24,2 61,53 97,119 52,93 111,220 131,268l0 0 0 1c4,12 -2,26 -14,30 -26,10 -46,17 -64,24 -67,24 -114,42 -162,69 16,27 38,61 61,95 34,52 68,103 81,135l0 0c2,6 2,12 0,17 -33,86 -84,185 -177,305 -91,119 -223,258 -418,425 -8,7 -19,9 -29,4 -11,-7 -15,-22 -9,-33 57,-100 121,-340 174,-602z"/>
   <path class="fil3" d="M3919 5724c-7,-11 -2,-26 10,-32 11,-6 26,-2 32,10 44,83 144,242 256,415 209,322 462,693 482,721 7,11 5,26 -6,33 -11,8 -26,5 -33,-5 -20,-28 -274,-400 -483,-723 -113,-174 -214,-334 -258,-419z"/>
   <path class="fil3" d="M5352 6507c0,-13 11,-23 25,-23 13,1 23,12 23,25 -4,101 -7,285 7,451 10,106 26,205 55,266 5,12 0,26 -12,32 -12,5 -26,0 -32,-12 -31,-67 -49,-171 -58,-282 -15,-167 -12,-354 -8,-457z"/>
   <path class="fil3" d="M2876 4871c-11,-7 -13,-22 -5,-33 8,-11 23,-13 34,-5 67,50 135,72 196,71 65,-1 121,-28 160,-74 9,-10 24,-11 34,-3 10,9 11,24 3,34 -48,56 -117,90 -197,91 -70,1 -149,-23 -225,-81z"/>
   <path class="fil3" d="M2871 5026c-10,-9 -11,-24 -2,-34 9,-10 24,-11 34,-2 16,14 32,26 48,36 69,42 140,47 200,35 59,-11 107,-40 131,-68 4,-4 7,-8 9,-12 7,-11 21,-15 33,-8 11,7 14,22 8,33 -4,7 -9,13 -14,19 -30,34 -88,69 -158,83 -70,14 -153,8 -234,-41 -19,-12 -37,-25 -55,-41z"/>
   <path class="fil3" d="M2903 5235c-11,-8 -13,-23 -6,-34 8,-11 23,-13 34,-6 6,5 13,9 20,13 57,32 126,43 190,33 63,-10 120,-40 155,-90 4,-5 7,-10 10,-16 6,-11 21,-15 33,-9 11,7 15,21 9,33 -4,6 -8,13 -12,19 -43,62 -113,98 -188,110 -74,12 -154,-1 -220,-38 -8,-5 -16,-10 -25,-15z"/>
   <path class="fil3" d="M6823 77c-4,-12 2,-26 15,-30 12,-5 26,2 30,14 46,124 6,203 -21,257 -7,14 -13,26 -16,35 -2,10 5,18 38,27 226,60 229,226 231,336 1,14 1,27 2,40 1,13 -9,25 -23,26 -13,1 -24,-9 -25,-23 -1,-11 -1,-26 -2,-42 -1,-96 -4,-240 -195,-291 -70,-19 -83,-45 -72,-85 4,-13 11,-28 19,-44 23,-47 58,-115 19,-220z"/>
   <path class="fil3" d="M6859 77c-12,-6 -17,-20 -12,-32 6,-12 20,-17 32,-12 6,3 11,6 17,9 60,35 122,111 161,192 41,83 59,174 29,237 -2,5 -4,8 -6,12 -6,11 -21,15 -32,8 -12,-6 -16,-21 -9,-32 1,-3 3,-5 4,-8 22,-49 6,-125 -29,-196 -36,-74 -90,-141 -142,-172 -4,-2 -9,-4 -13,-6z"/>
   <path class="fil3" d="M7069 55c-12,-5 -19,-19 -14,-31 4,-13 18,-19 30,-15 6,3 12,5 18,9 44,26 100,98 137,181 37,83 57,178 30,252 -3,10 -8,20 -13,29 -7,11 -22,15 -33,9 -11,-7 -15,-22 -9,-33 4,-7 8,-14 10,-21 22,-61 4,-143 -29,-217 -33,-74 -81,-137 -117,-159 -4,-2 -7,-3 -10,-4z"/>
   <path class="fil3" d="M7286 128c-10,-8 -12,-23 -4,-33 8,-11 23,-13 34,-5 36,29 84,95 112,175 20,61 30,129 16,196 -3,13 -15,21 -28,18 -13,-2 -22,-15 -19,-28 12,-57 4,-117 -15,-170 -24,-71 -65,-129 -96,-153z"/>
   <path class="fil3" d="M5555 3343c-6,-11 -2,-26 10,-32 12,-6 26,-1 32,10 46,89 75,160 92,217 17,59 20,103 14,136 -7,37 -26,60 -52,74 -6,3 -13,5 -20,7 -31,9 -50,19 -59,30 -5,6 -6,12 -5,18 2,9 8,18 17,28 26,27 68,50 102,61 12,4 19,18 15,30 -4,13 -17,20 -30,16 -40,-13 -91,-42 -122,-74 -14,-16 -25,-33 -29,-51 -4,-21 0,-41 16,-60 15,-17 41,-32 82,-44 4,-1 7,-2 11,-4 13,-7 23,-19 27,-40 5,-26 1,-63 -13,-114 -16,-54 -44,-122 -88,-208z"/>
   <path class="fil3" d="M6010 3396c7,-12 21,-15 33,-8 11,7 15,21 8,33 -30,47 -70,75 -111,90 -60,22 -122,17 -152,6 -13,-4 -19,-18 -15,-30 4,-13 18,-20 31,-15 23,8 71,12 120,-6 32,-11 63,-33 86,-70z"/>
   <path class="fil3" d="M5488 3582c9,-9 25,-8 33,1 9,10 9,25 -1,34 -44,41 -77,63 -112,73 -36,11 -70,9 -115,1 -14,-2 -22,-15 -20,-28 2,-13 15,-22 28,-19 38,6 66,8 93,0 27,-8 55,-27 94,-62z"/>
   <path class="fil3" d="M5982 3802c3,-13 16,-20 29,-17 13,3 21,16 17,29 -14,55 -41,96 -75,122 -38,29 -84,39 -129,32 -13,-3 -22,-15 -20,-28 3,-13 15,-22 28,-20 32,6 65,-2 92,-22 26,-20 47,-52 58,-96z"/>
   <path class="fil3" d="M5893 3150c13,2 23,14 21,27 -1,13 -13,23 -26,21 -22,-2 -44,-3 -64,-3 -21,1 -41,3 -60,6 -13,2 -25,-7 -27,-20 -2,-13 7,-25 20,-27 21,-4 43,-6 66,-7 23,0 46,1 70,3z"/>
   <path class="fil3" d="M5790 4423c-13,-1 -23,-13 -22,-26 2,-13 13,-23 26,-21 99,9 243,-36 367,-145 95,-85 178,-209 217,-378 3,-13 16,-21 29,-18 13,3 21,16 18,29 -42,179 -130,312 -232,402 -134,119 -293,167 -403,157z"/>
   <path class="fil3" d="M330 2881c-5,-26 11,-52 37,-57 26,-5 52,11 57,37l1 5c8,37 67,319 102,441 26,-93 65,-235 89,-319 4,-16 9,-33 15,-53 16,-54 43,-72 81,-45 2,2 3,3 5,5l0 0 0 0c6,5 10,12 12,19l4 11c23,57 104,258 151,356 3,-36 5,-81 7,-129 7,-127 13,-273 15,-338 1,-26 23,-47 49,-46 27,1 48,23 47,49 -2,67 -9,214 -15,339 -4,92 -9,173 -13,206 -5,52 -29,73 -67,69 -57,-6 -155,-214 -216,-357 -32,115 -74,269 -89,324 -13,51 -40,68 -76,58 -80,-20 -184,-517 -195,-571l-1 -4z"/>
   <path class="fil3" d="M1477 2713c27,-2 50,18 52,44 2,27 -18,50 -45,52 -70,5 -119,11 -151,21 -14,4 -21,7 -21,10 -4,31 8,160 26,279 13,92 29,174 40,192 24,38 89,11 134,-8 12,-5 23,-10 34,-13 25,-9 52,4 61,29 9,25 -4,52 -29,61 -8,3 -18,7 -29,11 -77,32 -184,77 -251,-28 -20,-30 -40,-127 -55,-230 -19,-126 -31,-266 -27,-305 6,-44 33,-72 88,-90 39,-12 96,-19 173,-25z"/>
   <path class="fil3" d="M4527 2233c27,-2 50,18 51,45 2,26 -18,49 -44,51 -70,5 -120,11 -151,21 -15,5 -21,8 -22,10 -3,31 9,161 27,280 13,91 29,174 40,192 24,37 88,10 134,-9 12,-5 23,-9 34,-13 25,-9 52,4 61,29 9,25 -5,53 -30,62 -8,2 -17,6 -28,11 -77,32 -184,77 -252,-29 -19,-30 -39,-126 -54,-230 -19,-125 -32,-266 -27,-304 5,-45 33,-73 88,-90 39,-13 95,-20 173,-26z"/>
   <path class="fil3" d="M1304 3125c-24,10 -52,-2 -62,-26 -10,-25 1,-53 26,-63 16,-6 73,-26 131,-45 44,-14 90,-29 120,-37 26,-7 52,8 59,33 7,26 -8,52 -33,59 -25,7 -70,21 -116,36 -56,19 -111,37 -125,43z"/>
   <path class="fil3" d="M4354 2646c-25,10 -53,-2 -63,-27 -10,-24 2,-52 27,-62 16,-7 73,-27 130,-45 44,-15 91,-30 121,-38 26,-7 52,8 59,34 7,25 -8,52 -34,58 -24,7 -70,22 -116,37 -56,18 -110,37 -124,43z"/>
   <path class="fil3" d="M1722 2687c4,-26 29,-43 55,-38 26,4 44,29 39,55 -4,20 -23,187 -14,327 3,46 9,87 19,118 7,19 13,31 17,31 0,0 1,0 1,0 35,-2 80,-9 121,-17 43,-8 81,-17 96,-24 24,-11 53,0 63,25 11,24 0,52 -25,63 -21,9 -67,21 -116,31 -45,8 -94,16 -133,18 -8,1 -16,0 -23,-1 -45,-8 -74,-44 -91,-95 -14,-39 -21,-89 -25,-143 -9,-148 12,-328 16,-350z"/>
   <path class="fil3" d="M2531 2610c19,18 20,48 2,68 -18,19 -49,20 -68,2 -17,-16 -33,-25 -49,-29 -18,-4 -36,0 -53,10 -21,13 -40,36 -55,65 -26,48 -42,113 -41,187 1,79 16,143 42,189 19,35 44,59 72,72 28,12 59,14 93,5 37,-11 78,-35 118,-75 19,-18 49,-18 68,1 18,19 18,49 -1,68 -52,51 -107,83 -160,98 -56,16 -109,12 -157,-10 -47,-21 -87,-59 -117,-113 -33,-59 -53,-138 -54,-235 -1,-90 19,-171 52,-232 23,-44 54,-79 89,-101 38,-24 82,-33 126,-22 32,7 63,24 93,52z"/>
   <path class="fil3" d="M3102 2606c-18,-3 -34,-5 -50,-6 -48,-2 -87,10 -116,34 -30,25 -50,63 -60,111 -3,18 -6,38 -7,58 -4,95 28,153 71,180 17,10 37,15 56,16 21,1 42,-3 62,-12 54,-25 101,-87 108,-183 4,-59 -4,-107 -18,-142 -14,-33 -32,-53 -46,-56zm-46 -102c21,1 42,4 65,9 44,9 89,48 115,113 20,47 31,110 26,185 -10,136 -81,225 -165,263 -33,15 -69,22 -104,21 -36,-2 -71,-11 -102,-30 -72,-43 -123,-131 -117,-266 1,-26 4,-50 8,-73 15,-70 46,-127 92,-166 47,-39 109,-59 182,-56z"/>
   <path class="fil3" d="M3596 3054c1,26 -19,49 -46,50 -26,1 -49,-19 -50,-46 -2,-49 -6,-96 -9,-141 -8,-119 -15,-222 -8,-391 2,-42 24,-60 61,-58 32,1 71,31 116,65 35,27 75,57 106,71 6,3 5,19 7,13 4,-7 79,-134 128,-205 11,-16 21,-30 29,-39 29,-34 57,-41 85,-13 3,3 5,6 7,10 3,5 5,11 6,17 5,32 9,68 14,108 13,119 30,272 81,367 12,24 3,53 -20,65 -23,13 -53,4 -65,-20 -58,-108 -76,-266 -90,-392 -41,64 -85,136 -87,141 -27,60 -77,62 -135,36 -39,-18 -84,-52 -124,-82l-25 -19c-3,128 3,218 10,320 3,43 6,87 9,143z"/>
   <path class="fil0" d="M5376 1194c7,66 -1,165 17,155 39,-23 145,-130 441,-262 51,-23 63,-46 -13,-77 -132,-54 -389,89 -445,184z"/>
   <g style="clip-path:url(#id7)">
    <g id="_2049578220384">
     <path id="1" class="fil7" d="M5404 1263c7,66 -1,165 17,155 39,-22 145,-130 441,-262 51,-23 63,-46 -13,-77 -132,-54 -389,90 -445,184z"/>
    </g>
   </g>
   <path class="fil2" d="M5376 1194c7,66 -1,165 17,155 39,-23 145,-130 441,-262 51,-23 63,-46 -13,-77 -132,-54 -389,89 -445,184z"/>
   <path class="fil3" d="M5400 1200c3,23 3,50 4,74 0,14 0,27 1,37l12 -9c59,-45 175,-134 407,-237 17,-8 27,-13 27,-13 0,-3 -12,-9 -39,-20 -53,-22 -131,-6 -206,25 -90,37 -173,96 -206,143zm-44 75c-1,-26 -1,-54 -4,-78l0 0c-1,-6 0,-11 3,-16 33,-55 130,-126 232,-169 86,-35 177,-51 243,-24 48,19 69,40 69,63 0,24 -21,42 -56,57 -226,101 -339,188 -397,232 -18,14 -31,24 -42,30 -16,9 -29,5 -38,-10 0,-1 0,-1 -1,-2 -8,-14 -8,-46 -9,-83z"/>
   <path class="fil0" d="M1148 5062c68,-64 168,-67 330,91 60,58 166,364 7,200 -5,-5 -337,-291 -337,-291z"/>
   <g style="clip-path:url(#id8)">
    <g id="_2049578217632">
     <path id="1" class="fil7" d="M1120 5131c68,-64 168,-67 330,91 60,58 166,365 7,201 -5,-5 -337,-292 -337,-292z"/>
    </g>
   </g>
   <path class="fil2" d="M1148 5062c68,-64 168,-67 330,91 60,58 166,364 7,200 -5,-5 -337,-291 -337,-291z"/>
   <path class="fil3" d="M1133 5043c39,-36 88,-55 150,-42 58,12 127,52 211,135 35,33 82,138 95,205 3,20 4,38 1,51 -5,23 -19,36 -43,33 -19,-3 -45,-19 -80,-55 -4,-4 -333,-289 -334,-290 -10,-9 -11,-24 -3,-34 1,-1 2,-2 3,-3zm140 5c-34,-7 -63,-1 -87,15 74,64 311,269 316,274 19,20 33,32 42,37 0,-7 -1,-15 -3,-24 -11,-60 -51,-152 -80,-180 -77,-75 -139,-112 -188,-122z"/>
   <path class="fil3" d="M7851 5471c-5,20 -24,32 -43,27 -20,-4 -32,-24 -27,-43 17,-75 28,-182 26,-295 -3,-120 -20,-246 -59,-346 -36,-94 -91,-165 -171,-184 -17,-4 -34,-6 -51,-5 -19,0 -36,3 -52,7 -78,22 -129,95 -161,189 -34,101 -46,225 -43,344 2,115 18,225 39,300 5,19 -6,39 -25,44 -19,5 -39,-6 -44,-25 -23,-80 -40,-196 -42,-318 -3,-126 10,-259 47,-368 39,-116 105,-205 210,-235 21,-6 44,-10 69,-10 25,-1 48,2 69,7 107,25 178,113 222,228 42,109 61,243 63,370 3,120 -8,234 -27,313z"/>
   <path class="fil3" d="M5497 5040c6,-19 27,-29 45,-23 19,7 29,28 22,46 -64,184 -54,660 -48,928 0,19 1,37 1,56 1,20 -15,36 -35,36 -20,1 -36,-15 -37,-35 0,-15 0,-35 -1,-56 -5,-272 -16,-757 53,-952z"/>
   <path class="fil3" d="M7072 4209c-19,-6 -29,-26 -23,-45 6,-19 26,-30 45,-23 61,19 173,60 269,128 101,72 185,175 183,316 -1,20 -17,36 -37,35 -20,0 -35,-16 -35,-36 2,-112 -68,-196 -152,-256 -89,-63 -193,-101 -250,-119z"/>
   <ellipse class="fil0" cx="5482" cy="6044" rx="173" ry="171"/>
   <path class="fil3" d="M5482 5849c54,0 103,22 139,57 35,35 57,84 57,138 0,54 -22,102 -57,138 -36,35 -85,57 -139,57 -54,0 -104,-22 -139,-57 -36,-36 -58,-84 -58,-138 0,-54 22,-103 58,-138 35,-35 85,-57 139,-57zm105 91c-27,-26 -64,-43 -105,-43 -41,0 -79,17 -105,43 -27,27 -44,63 -44,104 0,40 17,77 44,104 26,26 64,43 105,43 41,0 78,-17 105,-43 27,-27 43,-64 43,-104 0,-41 -16,-77 -43,-104z"/>
   <path class="fil3" d="M5482 5938c29,0 56,12 75,31l0 0c20,19 32,45 32,75 0,29 -12,56 -32,75 0,0 -1,1 -1,1 -20,19 -46,30 -74,30 -30,0 -56,-12 -76,-31l0 0c-19,-19 -31,-46 -31,-75 0,-29 12,-56 31,-75 20,-19 46,-31 76,-31zm41 65c-10,-11 -25,-17 -41,-17 -17,0 -31,6 -42,17 -11,10 -17,25 -17,41 0,16 7,30 17,41l0 0 0 0c11,10 25,17 42,17 16,0 30,-6 40,-16l1 -1c11,-11 18,-25 18,-41 0,-16 -7,-31 -18,-41l0 0 0 0z"/>
   <ellipse class="fil1" cx="7328" cy="5474" rx="54" ry="95"/>
   <path class="fil3" d="M7328 5355c24,0 45,16 59,40 12,21 19,49 19,79 0,31 -7,59 -19,79 -14,25 -35,40 -59,40 -24,0 -45,-15 -59,-40 -11,-20 -19,-48 -19,-79 0,-30 8,-58 19,-79 14,-24 35,-40 59,-40zm18 64c-6,-10 -12,-15 -18,-15 -5,0 -11,5 -17,15 -8,14 -12,33 -12,55 0,22 4,42 12,56 6,9 12,15 17,15 6,0 12,-6 18,-15 7,-14 12,-34 12,-56 0,-22 -5,-41 -12,-55z"/>
   <ellipse class="fil1" cx="7762" cy="5463" rx="54" ry="95"/>
   <path class="fil3" d="M7762 5344c24,0 45,15 59,40 12,21 19,49 19,79 0,30 -7,58 -19,79 -14,25 -35,40 -59,40 -24,0 -45,-15 -59,-40 -12,-21 -19,-49 -19,-79 0,-30 7,-58 19,-79 14,-25 35,-40 59,-40zm17 64c-5,-10 -11,-16 -17,-16 -6,0 -12,6 -17,16 -8,13 -13,33 -13,55 0,22 5,42 13,55 5,10 11,16 17,16 6,0 12,-6 17,-16 8,-13 13,-33 13,-55 0,-22 -5,-42 -13,-55z"/>
   <path class="fil3" d="M6515 3400c11,-8 26,-5 33,6 8,11 5,25 -5,33 -8,6 -15,22 -20,40 -6,22 -9,46 -6,62 3,13 -5,25 -18,28 -13,3 -26,-5 -28,-18 -5,-23 -3,-56 5,-84 8,-29 22,-55 39,-67z"/>
   <path class="fil3" d="M6591 3532c3,13 -5,25 -18,28 -13,3 -26,-6 -29,-19 -3,-19 -10,-28 -16,-30 -2,0 -3,0 -4,0 -1,0 -2,1 -3,1 -1,1 -2,2 -1,4 2,13 -6,26 -19,28 -13,3 -26,-5 -28,-18 -5,-22 5,-42 21,-53 6,-5 14,-8 22,-9 9,-2 17,-1 26,2 21,6 41,26 49,66z"/>
  </g>
 </g>
</svg>
