<?xml version="1.0" encoding="UTF-8"?>
<!DOCTYPE svg PUBLIC "-//W3C//DTD SVG 1.1//EN" "http://www.w3.org/Graphics/SVG/1.1/DTD/svg11.dtd">
<!-- Creator: CorelDRAW X7 -->
<svg xmlns="http://www.w3.org/2000/svg" xml:space="preserve" width="9.16252in" height="7.48032in" version="1.1" style="shape-rendering:geometricPrecision; text-rendering:geometricPrecision; image-rendering:optimizeQuality; fill-rule:evenodd; clip-rule:evenodd"
viewBox="0 0 9163 7480"
 xmlns:xlink="http://www.w3.org/1999/xlink">
 <defs>
  <style type="text/css">
   <![CDATA[
    .str0 {stroke:#1B1D4E;stroke-width:27.7756;stroke-linecap:round;stroke-linejoin:round}
    .fil2 {fill:none}
    .fil5 {fill:#1B1D4E}
    .fil9 {fill:#71D9FC}
    .fil1 {fill:#7268FD}
    .fil3 {fill:#A2FFC8}
    .fil7 {fill:#F9E95E}
    .fil0 {fill:white}
    .fil4 {fill:#1B1D4E;fill-rule:nonzero}
    .fil8 {fill:#F9E95E;fill-rule:nonzero}
    .fil6 {fill:white;fill-rule:nonzero}
   ]]>
  </style>
    <clipPath id="id0">
     <path d="M70 2523c-133,423 41,1672 280,1917 331,338 4474,-629 4567,-772 169,-257 34,-1637 -287,-1825 -264,-155 -4545,654 -4560,680z"/>
    </clipPath>
    <clipPath id="id1">
     <path d="M9112 2802c117,822 -173,1835 -482,2559 -50,117 -374,877 -307,1653 20,224 -489,325 -557,320 -1203,-83 -2582,251 -3538,112 -618,-89 -1023,-1189 -956,-1256 206,-207 454,-396 627,-476l501 791c54,-169 264,-931 393,-1068 277,-293 417,-266 685,-377 181,122 1950,-1309 2075,-1579 188,-402 241,-631 118,-1019 -110,-350 -439,-860 -651,-1184 267,-229 543,-397 570,-420 62,-52 117,53 173,214 266,93 1271,1010 1349,1730z"/>
    </clipPath>
    <clipPath id="id2">
     <path d="M3069 4163l459 2618c22,325 -242,212 -268,26l-445 -2591c85,-17 170,-35 254,-53z"/>
    </clipPath>
    <clipPath id="id3">
     <path d="M3819 5563c-75,-151 -157,-338 -179,-464 -18,-104 113,-467 -16,-496 -98,-22 -164,145 -208,206 -65,-92 -176,-115 -254,-113 -67,18 -123,49 -257,42 -129,72 -63,607 61,650 71,25 223,-7 308,-53l96 546c124,-136 277,-250 449,-318z"/>
    </clipPath>
    <clipPath id="id4">
     <path d="M1108 5062c67,-64 167,-66 329,91 60,59 166,365 7,201 -5,-5 -336,-292 -336,-292z"/>
    </clipPath>
    <clipPath id="id5">
     <path d="M6951 1070c-266,-278 -536,-462 -420,-764 17,-44 173,-409 273,-235 81,-62 314,-57 455,40 227,155 248,326 193,593 -9,43 58,65 22,76 -138,42 -409,207 -523,290z"/>
    </clipPath>
    <clipPath id="id6">
     <path d="M5156 3451c-131,-32 -131,-131 -132,-155 -39,169 -299,260 -328,-98 -36,-443 547,-878 898,-703 105,-106 517,-55 617,116 257,-55 648,408 815,542 122,99 516,221 636,472 233,490 -488,431 -466,703 16,189 -220,401 -398,347 -118,52 -514,-180 -616,-131 -140,67 -380,470 -527,476 -622,84 -878,436 -945,560 -209,-101 -582,-642 308,-1524 101,-100 -41,-561 138,-605z"/>
    </clipPath>
    <clipPath id="id7">
     <path d="M5097 3436c115,733 459,921 654,964 76,137 14,523 -47,574 288,245 962,12 1103,-320 -237,-183 -280,-806 -293,-935 147,27 212,-474 -77,-434 -71,11 -85,49 -124,66 -359,-45 -585,-365 -651,-559 -270,98 -410,449 -334,642 -67,39 -185,11 -231,2z"/>
    </clipPath>
    <clipPath id="id8">
     <path d="M5334 1195c8,66 -1,165 17,155 40,-22 145,-130 441,-262 51,-23 63,-45 -13,-77 -132,-54 -388,90 -445,184z"/>
    </clipPath>
 </defs>
 <g id="Layer_x0020_1">
  <metadata id="CorelCorpID_0Corel-Layer"/>
  <g id="_2049582992480">
   <path class="fil0" d="M70 2523c-133,423 41,1672 280,1917 331,338 4474,-629 4567,-772 169,-257 34,-1637 -287,-1825 -264,-155 -4545,654 -4560,680z"/>
   <g style="clip-path:url(#id0)">
    <g>
     <path id="1" class="fil1" d="M-7 2703c-133,422 41,1671 280,1916 331,338 4474,-628 4568,-772 168,-256 33,-1637 -287,-1825 -265,-155 -4546,654 -4561,681z"/>
    </g>
   </g>
   <path class="fil2" d="M70 2523c-133,423 41,1672 280,1917 331,338 4474,-629 4567,-772 169,-257 34,-1637 -287,-1825 -264,-155 -4545,654 -4560,680z"/>
   <path class="fil0" d="M9112 2802c117,822 -173,1835 -482,2559 -50,117 -374,877 -307,1653 20,224 -489,325 -557,320 -1203,-83 -2582,251 -3538,112 -618,-89 -1023,-1189 -956,-1256 206,-207 454,-396 627,-476l501 791c54,-169 264,-931 393,-1068 277,-293 417,-266 685,-377 181,122 1950,-1309 2075,-1579 188,-402 241,-631 118,-1019 -110,-350 -439,-860 -651,-1184 267,-229 543,-397 570,-420 62,-52 117,53 173,214 266,93 1271,1010 1349,1730z"/>
   <g style="clip-path:url(#id1)">
    <g>
     <path id="1" class="fil3" d="M8895 2802c116,822 -173,1835 -482,2559 -50,117 -375,801 -307,1577 -368,1008 -3734,561 -4096,508 -617,-89 -1023,-1189 -955,-1256 206,-207 454,-396 626,-476l502 791c97,147 179,126 217,0 89,-291 86,-973 176,-1068 276,-293 417,-266 684,-377 181,122 1950,-1309 2076,-1579 188,-402 240,-631 118,-1019 -110,-350 -440,-860 -651,-1184 267,-229 542,-397 569,-420 62,-52 118,53 174,214 265,93 1271,1010 1349,1730z"/>
    </g>
   </g>
   <path class="fil2" d="M9112 2802c117,822 -173,1835 -482,2559 -50,117 -374,877 -307,1653 20,224 -489,325 -557,320 -1203,-83 -2582,251 -3538,112 -618,-89 -1023,-1189 -956,-1256 206,-207 454,-396 627,-476l501 791c54,-169 264,-931 393,-1068 277,-293 417,-266 685,-377 181,122 1950,-1309 2075,-1579 188,-402 241,-631 118,-1019 -110,-350 -439,-860 -651,-1184 267,-229 543,-397 570,-420 62,-52 117,53 173,214 266,93 1271,1010 1349,1730z"/>
   <path class="fil2" d="M3536 6881c-198,-317 -300,-655 -264,-691 206,-207 454,-396 627,-476l501 791c54,-169 264,-931 393,-1068 277,-293 417,-266 685,-377 181,122 1950,-1309 2075,-1579 188,-402 241,-631 118,-1019 -140,-446 -463,-864 -654,-1180 45,-56 350,-322 573,-424 97,-44 160,198 173,214 670,413 1269,1160 1349,1730 117,822 -173,1835 -482,2559 -50,117 -374,877 -307,1653"/>
   <path class="fil4" d="M3556 6868c7,11 4,26 -7,33 -12,7 -26,4 -33,-7 -90,-144 -161,-292 -207,-414 -61,-159 -80,-281 -53,-307 103,-104 218,-204 328,-288 110,-84 217,-152 305,-193 11,-5 24,-1 30,9l0 0 474 747c6,-20 12,-43 20,-68 82,-275 250,-840 363,-959 209,-222 342,-264 508,-318 56,-18 116,-37 185,-65 8,-4 16,-2 23,2l1 1c90,42 537,-260 991,-613 459,-357 920,-765 1031,-928 7,-11 13,-21 17,-29 93,-199 152,-355 173,-508 21,-152 4,-303 -56,-494 -106,-334 -316,-654 -494,-926 -57,-87 -111,-169 -159,-248 -5,-9 -4,-20 2,-28l0 0c28,-34 152,-147 294,-252 95,-70 198,-137 288,-179 73,-33 127,45 162,122 13,27 23,53 30,73l9 24c339,210 660,505 905,819 241,310 410,639 450,925 52,369 23,777 -53,1180 -93,498 -259,989 -431,1391l0 0 0 0 0 1 0 1c-52,121 -372,873 -305,1640 2,13 -8,25 -21,26 -14,1 -25,-9 -26,-22 -69,-778 256,-1541 308,-1663l0 -1 0 -1 0 0c171,-399 335,-886 428,-1381 75,-398 104,-800 53,-1165 -40,-277 -204,-598 -441,-902 -243,-311 -561,-603 -897,-811 -2,-1 -4,-3 -6,-5 -5,-6 -10,-20 -18,-39 -7,-19 -17,-45 -28,-70 -26,-56 -62,-115 -99,-98 -87,40 -187,105 -279,173 -125,93 -235,190 -275,232 43,70 95,149 149,231 180,275 392,598 499,939 63,197 80,355 58,514 -21,159 -82,319 -177,522 -5,11 -12,22 -20,35 -114,168 -580,581 -1041,940 -460,357 -921,661 -1037,620 -66,27 -124,45 -179,63 -159,51 -286,92 -487,304 -105,112 -271,669 -352,941 -15,51 -28,92 -36,118l0 0c-1,5 -5,10 -10,13 -11,7 -26,4 -33,-7l-490 -774c-81,41 -177,103 -277,179 -108,83 -221,181 -324,284 -13,13 11,115 65,255 46,121 114,266 202,406z"/>
   <path class="fil0" d="M3069 4163l459 2618c22,325 -242,212 -268,26l-445 -2591c85,-17 170,-35 254,-53z"/>
   <g style="clip-path:url(#id2)">
    <g>
     <path id="1" class="fil5" d="M2882 3618l555 3163c22,325 -242,212 -268,26l-540 -3145c85,-15 169,-29 253,-44z"/>
    </g>
   </g>
   <path class="fil2" d="M3069 4163l459 2618c22,325 -242,212 -268,26l-445 -2591c85,-17 170,-35 254,-53z"/>
   <path class="fil4" d="M3092 4159l460 2618c0,1 0,2 0,4 7,107 -17,172 -54,204 -19,17 -43,25 -67,26 -23,0 -47,-6 -70,-18 -59,-30 -113,-100 -125,-182l0 0 -445 -2591c-2,-13 7,-26 20,-28l1 0c36,-7 79,-16 125,-26 40,-8 82,-17 127,-26 13,-3 25,5 28,18l0 1 0 0zm412 2625l-455 -2592c-32,7 -66,14 -102,21 -31,7 -66,14 -104,22l441 2568 0 0 0 0c9,67 52,123 99,148 16,8 32,12 47,12 13,0 26,-5 37,-14 26,-23 43,-75 37,-165z"/>
   <path class="fil0" d="M3819 5563c-75,-151 -157,-338 -179,-464 -18,-104 113,-467 -16,-496 -98,-22 -164,145 -208,206 -65,-92 -176,-115 -254,-113 -67,18 -123,49 -257,42 -129,72 -63,607 61,650 71,25 223,-7 308,-53l96 546c124,-136 277,-250 449,-318z"/>
   <g style="clip-path:url(#id3)">
    <g>
     <path id="1" class="fil1" d="M3815 5797c-83,-147 -229,-441 -259,-615 -18,-104 113,-467 -16,-496 -98,-22 -164,145 -208,206 -65,-92 -176,-115 -254,-113 -67,19 -123,49 -257,42 -105,72 -49,608 61,651 70,27 223,-8 308,-54l129 731c90,-78 321,-269 496,-352z"/>
    </g>
   </g>
   <path class="fil2" d="M3819 5563c-75,-151 -157,-338 -179,-464 -18,-104 113,-467 -16,-496 -98,-22 -164,145 -208,206 -65,-92 -176,-115 -254,-113 -67,18 -123,49 -257,42 -129,72 -63,607 61,650 71,25 223,-7 308,-53l96 546c124,-136 277,-250 449,-318z"/>
   <path class="fil2" d="M2966 5388c71,25 223,-7 308,-53l96 542c66,-83 389,-306 449,-315 -75,-150 -157,-338 -179,-463 -18,-104 113,-467 -16,-496 -98,-22 -164,145 -208,206 -65,-92 -176,-115 -254,-113 -67,18 -123,49 -257,42"/>
   <g>
    <path class="fil4" d="M2958 5411c-13,-4 -19,-18 -15,-30 4,-13 18,-20 30,-15 31,10 79,9 131,0 57,-10 117,-29 159,-52 12,-6 26,-2 33,10 1,2 2,5 2,7l0 0 87 496c45,-43 117,-98 189,-149 81,-56 163,-108 211,-129 -38,-77 -76,-163 -108,-245 -28,-73 -50,-143 -60,-201 -7,-39 4,-107 17,-181 22,-129 48,-281 -15,-295 -60,-14 -113,77 -151,143 -12,20 -22,39 -32,53 -8,10 -23,13 -34,5 -2,-1 -4,-3 -5,-6 -26,-36 -60,-60 -96,-76 -45,-20 -95,-27 -135,-27 -12,4 -24,8 -36,12 -55,18 -114,37 -227,30 -13,0 -23,-12 -22,-25 0,-13 12,-23 25,-22 103,5 158,-12 209,-29 13,-4 26,-8 41,-12l0 0c2,-1 4,-1 6,-1 46,-1 105,6 159,30 33,15 66,36 93,66 4,-7 8,-14 13,-22 45,-79 108,-187 203,-166 107,24 77,200 51,350 -12,70 -23,133 -17,165 9,54 31,122 58,192 34,88 77,182 118,264l0 0c1,3 2,5 2,8 2,13 -7,25 -20,27 -27,4 -123,63 -220,132 -92,63 -181,134 -213,173 -3,5 -9,9 -15,10 -13,2 -26,-6 -28,-20l-90 -510c-42,18 -94,34 -144,42 -59,10 -116,11 -154,-2zm439 -589c-6,-8 -6,-19 0,-27l0 27z"/>
   </g>
   <path class="fil4" d="M2835 4872c-11,-8 -13,-23 -5,-33 8,-11 23,-13 34,-5 67,50 135,72 196,71 65,-2 121,-29 160,-75 9,-10 24,-11 34,-2 10,8 11,23 3,33 -48,57 -117,90 -196,92 -71,1 -150,-24 -226,-81z"/>
   <path class="fil4" d="M2830 5027c-10,-9 -11,-24 -2,-34 9,-10 24,-11 34,-3 16,15 32,27 48,36 69,42 140,48 200,36 59,-12 107,-41 131,-68 4,-5 7,-9 9,-12 7,-11 21,-15 33,-8 11,7 14,21 8,33 -4,6 -9,13 -14,18 -30,34 -88,70 -158,84 -70,14 -153,7 -234,-42 -19,-11 -37,-25 -55,-40z"/>
   <path class="fil4" d="M2862 5235c-10,-8 -13,-22 -6,-33 8,-11 23,-14 34,-6 6,4 13,8 20,13 57,31 126,42 190,32 63,-9 120,-40 155,-90 4,-4 7,-10 10,-15 6,-12 21,-16 33,-9 11,6 15,21 9,32 -4,7 -8,13 -12,20 -43,61 -113,98 -188,110 -74,11 -154,-1 -220,-39 -8,-4 -16,-9 -25,-15z"/>
   <path class="fil6" d="M290 2802c-6,-26 11,-51 37,-56 26,-6 51,11 57,37l1 4c7,38 66,320 102,442 25,-93 65,-236 89,-320 4,-15 9,-33 15,-53 16,-54 42,-72 80,-44 2,1 4,3 6,4l0 0 0 0c5,6 9,13 12,20l4 10c23,58 104,259 151,357 2,-37 4,-82 7,-130 6,-127 12,-273 14,-337 1,-27 23,-48 50,-47 26,1 47,23 46,50 -2,66 -8,213 -14,339 -5,91 -10,172 -13,205 -6,53 -30,74 -67,70 -57,-6 -155,-215 -216,-357 -32,114 -75,268 -89,324 -14,50 -40,67 -77,58 -79,-21 -183,-518 -194,-571l-1 -5z"/>
   <path class="fil6" d="M1437 2634c26,-1 49,18 51,45 2,26 -18,49 -44,51 -71,5 -120,11 -151,21 -15,5 -22,8 -22,10 -4,31 9,161 26,279 14,92 29,175 41,192 24,38 88,11 134,-8 12,-5 23,-9 33,-13 25,-9 52,4 61,29 9,25 -4,53 -29,61 -8,3 -18,7 -29,12 -76,32 -183,76 -251,-29 -20,-30 -40,-126 -55,-230 -18,-125 -31,-266 -26,-304 5,-45 33,-73 88,-90 39,-13 95,-20 173,-26z"/>
   <path class="fil6" d="M1264 3047c-25,10 -53,-2 -63,-27 -10,-24 2,-52 26,-62 17,-7 73,-27 131,-46 44,-14 90,-29 121,-37 25,-7 52,8 59,34 7,25 -9,51 -34,58 -24,7 -70,22 -116,37 -56,18 -110,37 -124,43z"/>
   <path class="fil6" d="M1681 2609c5,-26 30,-43 56,-39 26,5 43,30 38,56 -3,20 -22,187 -13,326 2,46 8,88 19,118 6,19 12,31 17,32 0,0 0,0 0,0 35,-2 80,-9 121,-17 44,-9 81,-18 96,-25 25,-10 53,1 63,25 11,24 0,53 -24,63 -22,10 -67,21 -117,31 -44,9 -94,16 -133,18 -7,1 -15,0 -23,-1 -45,-8 -73,-43 -91,-94 -13,-39 -21,-90 -24,-144 -9,-147 11,-328 15,-349z"/>
   <path class="fil6" d="M2490 2532c19,18 20,48 2,67 -18,20 -49,21 -68,2 -17,-15 -33,-25 -49,-28 -18,-5 -36,-1 -53,10 -20,13 -39,35 -55,65 -26,48 -41,113 -41,186 1,80 16,143 42,189 19,35 44,59 73,72 27,12 58,14 92,5 38,-10 78,-35 118,-74 19,-19 49,-18 68,0 18,19 18,50 -1,68 -52,51 -107,84 -160,99 -55,15 -109,11 -157,-11 -47,-21 -87,-59 -117,-112 -33,-60 -53,-139 -53,-235 -1,-91 18,-171 51,-232 23,-44 54,-79 89,-101 39,-25 82,-33 127,-23 31,8 62,25 92,53z"/>
   <path class="fil6" d="M3061 2528c-18,-4 -34,-6 -50,-6 -48,-3 -87,10 -116,34 -29,24 -50,62 -60,111 -3,18 -6,37 -7,58 -4,94 28,153 71,179 18,10 37,16 56,16 21,1 42,-3 62,-12 54,-25 101,-86 108,-182 4,-60 -4,-107 -18,-142 -14,-34 -32,-53 -46,-56zm-45 -102c20,1 41,4 64,8 44,9 89,48 115,113 20,48 31,110 26,185 -10,136 -81,226 -165,263 -33,16 -69,23 -104,21 -36,-1 -71,-11 -102,-30 -71,-43 -123,-131 -117,-265 1,-26 4,-51 9,-73 14,-71 45,-127 91,-166 47,-39 109,-59 183,-56z"/>
   <path class="fil6" d="M3555 2975c1,26 -19,49 -46,50 -26,2 -49,-19 -50,-45 -2,-49 -6,-96 -9,-141 -8,-119 -15,-222 -8,-391 2,-43 24,-60 61,-58 32,1 71,31 116,65 35,27 75,57 105,71 7,3 6,18 8,13 4,-8 79,-135 128,-205 11,-17 21,-30 29,-40 28,-33 57,-41 84,-13l1 0 0 0c7,8 11,17 13,28 5,32 9,68 14,107 13,119 30,272 81,368 12,23 3,52 -20,65 -24,12 -53,3 -65,-20 -58,-109 -77,-266 -91,-392 -40,63 -84,136 -86,141 -27,60 -77,61 -135,35 -40,-18 -84,-52 -124,-82l-25 -19c-3,129 3,219 10,320 3,43 6,88 9,143z"/>
   <path class="fil0" d="M1108 5062c67,-64 167,-66 329,91 60,59 166,365 7,201 -5,-5 -336,-292 -336,-292z"/>
   <g style="clip-path:url(#id4)">
    <g id="_2049589711920">
     <path id="1" class="fil7" d="M1080 5132c67,-64 167,-67 329,91 60,58 166,364 7,200 -5,-5 -336,-291 -336,-291z"/>
    </g>
   </g>
   <path class="fil2" d="M1108 5062c67,-64 167,-66 329,91 60,59 166,365 7,201 -5,-5 -336,-292 -336,-292z"/>
   <path class="fil4" d="M1093 5044c39,-37 87,-55 149,-43 58,12 127,53 212,135 34,33 81,138 94,205 4,20 5,38 2,52 -6,23 -20,35 -44,32 -18,-2 -44,-18 -79,-54 -4,-5 -334,-290 -335,-290 -10,-9 -11,-24 -2,-34 1,-1 2,-2 3,-3zm139 4c-34,-7 -62,0 -87,15 74,64 312,270 316,274 20,20 33,32 43,37 0,-6 -1,-14 -3,-24 -11,-60 -52,-152 -81,-179 -77,-76 -138,-113 -188,-123z"/>
   <path class="fil6" d="M1253 4158c-2,26 -25,46 -51,44 -27,-2 -46,-25 -44,-52 8,-99 17,-194 30,-283 13,-90 30,-174 53,-249 8,-25 35,-40 60,-32 1,1 3,1 5,2l0 0c106,45 248,302 305,405 2,4 -15,10 -26,15l-7 3 1 0c2,0 5,-1 7,-1 26,-5 51,13 55,39 5,33 -8,52 -41,56 -34,5 -49,-22 -73,-66 -43,-77 -138,-249 -213,-327 -12,53 -23,109 -31,169 -13,86 -22,179 -30,277zm332 -150c-7,2 -11,4 -7,3l7 -3z"/>
   <path class="fil6" d="M1227 3966c-26,-1 -47,-23 -46,-50 1,-26 24,-47 50,-46 80,4 168,-17 217,-28 16,-4 29,-7 37,-8 27,-4 51,15 55,41 3,26 -15,50 -41,54 -5,0 -15,3 -29,6 -53,12 -150,35 -243,31z"/>
   <path class="fil6" d="M1850 3558c5,29 11,72 18,120 11,76 24,166 38,236 11,53 -16,99 -1,96 77,-16 134,-45 168,-89 33,-45 45,-107 33,-191 -6,-39 -22,-78 -47,-110 -21,-27 -49,-48 -81,-56 -54,-15 -100,-14 -128,-6zm-77 134c-9,-67 -17,-122 -22,-140 -3,-10 -3,-20 -1,-30 4,-15 15,-29 31,-39 10,-6 22,-12 36,-16 41,-12 109,-17 186,4 54,14 98,47 132,90 35,45 58,101 66,156 15,110 -3,196 -52,261 -48,65 -124,105 -225,126 -57,11 -90,-65 -112,-170 -15,-75 -28,-166 -39,-242z"/>
   <path class="fil6" d="M3257 3396c-1,-26 19,-49 45,-51 26,-2 49,18 51,45 4,57 15,128 29,200 16,79 36,158 55,219 7,25 -7,52 -32,60 -25,8 -52,-6 -60,-31 -20,-65 -41,-147 -57,-229 -15,-75 -26,-151 -31,-213z"/>
   <path class="fil6" d="M3727 3801c4,27 -14,51 -41,54 -26,4 -50,-15 -54,-41 -6,-49 -9,-155 -7,-254 1,-94 7,-184 16,-213 8,-25 35,-39 60,-31 3,1 6,2 9,3 64,30 198,134 297,211l12 9c7,-51 11,-112 11,-176 0,-85 -8,-176 -27,-258 -6,-26 10,-52 36,-58 26,-6 51,11 57,36 21,89 30,187 30,280 0,108 -11,208 -29,273l0 0c-2,6 -4,12 -8,17 -16,21 -46,25 -67,9 -16,-12 -43,-33 -73,-56 -71,-55 -161,-125 -224,-167 -2,34 -4,77 -4,122 -2,95 0,195 6,240z"/>
   <circle class="fil0" transform="matrix(4.61194 -0.736977 0.736977 4.61194 3281.29 3225.35)" r="13"/>
   <path class="fil6" d="M2553 3970c1,27 -19,49 -45,51 -27,1 -49,-19 -51,-46 -2,-43 -5,-86 -8,-127 -8,-108 -14,-200 -8,-353 2,-42 23,-59 59,-58 31,2 67,29 108,60 32,24 68,51 94,63 4,2 -2,22 1,14 3,-7 72,-122 115,-186 10,-14 19,-26 27,-35l0 0c27,-33 55,-41 83,-13l0 0c7,7 12,16 14,27l0 2c4,29 8,60 12,95l0 2c12,107 28,244 73,328 13,24 4,53 -19,65 -24,13 -53,4 -65,-20 -51,-94 -69,-230 -82,-341 -34,54 -68,111 -70,116 -26,57 -73,58 -128,34 -37,-17 -77,-47 -113,-74l-15 -12c-2,111 3,190 10,279 2,38 5,78 8,129z"/>
   <line class="fil2" x1="740" y1="1995" x2="675" y2= "1576" />
   <path class="fil8" d="M775 1990c3,19 -10,38 -30,41 -19,3 -38,-11 -41,-30l-64 -420c-4,-19 10,-38 30,-41 19,-3 37,11 40,30l65 420z"/>
   <line class="fil2" x1="565" y1="2022" x2="270" y2= "1717" />
   <path class="fil8" d="M591 1997c14,15 13,37 -1,51 -14,14 -37,13 -51,-1l-295 -305c-13,-15 -13,-37 1,-51 15,-14 37,-13 51,1l295 305z"/>
   <line class="fil2" x1="887" y1="1964" x2="1076" y2= "1584" />
   <path class="fil8" d="M919 1980c-9,17 -30,25 -48,16 -18,-9 -25,-30 -16,-48l188 -380c9,-18 31,-25 48,-17 18,9 26,31 17,48l-189 381z"/>
   <path class="fil8" d="M462 2182c-1,19 -17,35 -37,35 -20,-1 -35,-17 -35,-37 3,-103 47,-195 116,-260 69,-65 163,-105 265,-102 68,2 130,21 184,54 55,34 101,82 132,138 10,18 3,40 -14,49 -17,10 -39,3 -49,-14 -25,-46 -62,-84 -107,-112 -43,-26 -93,-42 -147,-43 -83,-2 -159,29 -215,82 -55,53 -91,127 -93,210z"/>
   <path class="fil2" d="M1879 4388c924,-123 2065,-426 2621,-570m390 -1456c-46,-251 -114,-434 -260,-519 -159,-93 -1773,163 -3037,387m-272 49c-103,18 -135,24 -230,42m-234 43c-465,88 -783,152 -787,159 -133,423 41,1672 280,1917"/>
   <path class="fil4" d="M1882 4412c-13,1 -25,-8 -26,-21 -2,-13 7,-25 20,-27 861,-114 1911,-386 2499,-538 30,-8 63,-16 120,-31 12,-3 25,5 29,17 3,13 -5,26 -18,30l-119 30c-589,153 -1641,425 -2505,540zm3031 -2054c3,13 -6,26 -19,28 -13,2 -25,-6 -28,-19 -22,-124 -50,-231 -90,-316 -39,-84 -89,-148 -158,-188 -63,-37 -400,-11 -863,48 -611,78 -1441,215 -2158,343 -13,2 -25,-7 -28,-20 -2,-13 7,-25 20,-28 716,-127 1546,-264 2160,-343 473,-60 820,-84 894,-41 77,46 134,116 177,208 41,90 70,200 93,328zm-3596 -103c13,-2 25,7 27,20 3,13 -6,25 -19,27 -83,15 -121,22 -192,35l-38 7c-13,3 -25,-6 -27,-19 -3,-13 6,-25 19,-28l37 -7c66,-12 101,-18 193,-35zm-464 86c13,-3 26,6 28,19 2,13 -6,25 -19,28 -231,43 -423,80 -559,108 -130,26 -203,35 -211,38 -65,211 -54,629 4,1023 56,387 157,749 271,866 9,9 9,24 0,34 -10,9 -25,9 -34,-1 -122,-124 -227,-497 -285,-893 -58,-402 -69,-830 -1,-1047l0 0c1,-1 1,-3 2,-4 6,-10 95,-33 245,-63 139,-28 332,-66 559,-108z"/>
   <path class="fil4" d="M5858 4999c12,4 19,18 15,31 -4,12 -18,19 -31,15 -2,-1 -5,0 -8,2 -5,3 -10,7 -15,14 -6,7 -10,17 -14,27 -12,37 -12,88 20,143 7,11 3,26 -9,32 -11,7 -26,3 -33,-8 -39,-69 -40,-135 -23,-182 5,-16 12,-29 20,-40 9,-12 19,-22 30,-28 15,-9 32,-11 48,-6z"/>
   <path class="fil4" d="M6127 5023c13,1 23,12 23,25 -1,13 -12,23 -25,23 -4,0 -7,1 -12,3 -9,6 -18,15 -25,28 -8,14 -13,32 -15,53 -1,29 6,63 28,101 6,11 2,26 -9,32 -12,7 -26,3 -33,-8 -27,-47 -35,-90 -33,-128 1,-28 9,-53 20,-73 12,-21 27,-37 43,-46 13,-7 26,-11 38,-10z"/>
   <path class="fil4" d="M6358 4969c14,-1 25,9 26,22 1,13 -9,25 -22,26 -5,1 -10,3 -15,7 -8,6 -15,16 -19,28 -5,14 -7,31 -6,49 3,31 16,66 45,102 8,11 7,26 -4,34 -10,8 -25,7 -33,-4 -36,-44 -52,-89 -56,-128 -2,-25 1,-49 9,-69 7,-21 19,-38 34,-50 12,-9 26,-16 41,-17z"/>
   <path class="fil4" d="M6592 4855c13,-2 25,8 26,22 1,13 -9,24 -22,25 -5,1 -11,3 -16,7 -7,6 -14,16 -19,29 -5,13 -7,30 -5,49 2,30 15,66 45,102 8,10 6,25 -4,33 -10,9 -26,7 -34,-3 -36,-45 -52,-89 -55,-128 -2,-26 1,-50 8,-69 8,-21 20,-39 34,-50 13,-10 27,-16 42,-17z"/>
   <path class="fil0" d="M6951 1070c-266,-278 -536,-462 -420,-764 17,-44 173,-409 273,-235 81,-62 314,-57 455,40 227,155 248,326 193,593 -9,43 58,65 22,76 -138,42 -409,207 -523,290z"/>
   <g style="clip-path:url(#id5)">
    <g id="_2049582983616">
     <path id="1" class="fil1" d="M7007 1181c-266,-278 -536,-462 -420,-764 17,-44 173,-409 273,-235 81,-63 314,-57 455,40 227,155 248,326 193,593 -9,43 58,118 41,152 -83,169 -417,344 -542,214z"/>
    </g>
   </g>
   <path class="fil2" d="M6951 1070c-266,-278 -536,-462 -420,-764 17,-44 173,-409 273,-235 81,-62 314,-57 455,40 227,155 248,326 193,593 -9,43 58,65 22,76 -138,42 -409,207 -523,290z"/>
   <path class="fil2" d="M7259 111c227,155 248,326 193,593 -5,24 7,46 22,76 -95,3 -537,279 -523,290 -266,-278 -536,-462 -420,-764 17,-44 173,-409 273,-235"/>
   <path class="fil4" d="M7246 131c-11,-8 -14,-23 -7,-33 8,-11 23,-14 34,-7 118,81 183,167 211,268 28,100 19,213 -9,350 -3,13 6,30 16,52l4 9c6,12 1,26 -11,32 -4,1 -7,2 -11,2 -61,3 -284,131 -413,215 -29,18 -53,35 -69,47 -8,6 -18,-8 -17,-4 2,8 1,16 -4,23 -7,10 -22,12 -33,4 -1,-1 -3,-2 -4,-3 -43,-45 -86,-88 -128,-128 -221,-218 -399,-393 -297,-661 9,-23 55,-131 112,-209 23,-31 48,-58 74,-73 31,-18 62,-21 93,0 13,9 26,24 38,44 7,11 3,26 -9,33 -11,6 -26,2 -33,-9 -8,-14 -16,-23 -24,-29 -12,-9 -26,-7 -41,2 -19,12 -40,34 -59,60 -54,74 -98,177 -106,199 -91,237 77,403 286,608 37,36 74,74 112,113 4,-3 7,-6 11,-9 18,-13 42,-29 72,-48 117,-76 311,-188 405,-216 -10,-22 -15,-41 -11,-64 27,-130 35,-236 10,-327 -25,-90 -84,-167 -192,-241z"/>
   <path class="fil0" d="M5156 3451c-131,-32 -131,-131 -132,-155 -39,169 -299,260 -328,-98 -36,-443 547,-878 898,-703 105,-106 517,-55 617,116 257,-55 648,408 815,542 122,99 516,221 636,472 233,490 -488,431 -466,703 16,189 -220,401 -398,347 -118,52 -514,-180 -616,-131 -140,67 -380,470 -527,476 -622,84 -878,436 -945,560 -209,-101 -582,-642 308,-1524 101,-100 -41,-561 138,-605z"/>
   <g style="clip-path:url(#id6)">
    <g id="_2049582970144">
     <path id="1" class="fil5" d="M5198 3562c-131,-32 -131,-131 -132,-155 -39,168 -299,260 -328,-99 -36,-442 547,-877 898,-703 105,-105 517,-55 617,116 257,-54 648,409 815,543 122,98 516,221 636,472 233,490 -488,431 -466,703 16,189 -220,401 -398,347 -118,52 -604,496 -706,545 -140,67 -290,-206 -437,-201 -622,85 -877,437 -945,561 -209,-101 -582,-642 308,-1525 101,-99 -41,-560 138,-604z"/>
    </g>
   </g>
   <path class="fil2" d="M5156 3451c-131,-32 -131,-131 -132,-155 -39,169 -299,260 -328,-98 -36,-443 547,-878 898,-703 105,-106 517,-55 617,116 257,-55 648,408 815,542 122,99 516,221 636,472 233,490 -488,431 -466,703 16,189 -220,401 -398,347 -118,52 -514,-180 -616,-131 -140,67 -380,470 -527,476 -622,84 -878,436 -945,560 -209,-101 -582,-642 308,-1524 101,-100 -41,-561 138,-605z"/>
   <path class="fil4" d="M5098 3456c-45,-22 -69,-53 -82,-82 -21,32 -49,58 -80,74 -27,14 -56,22 -86,20 -30,-1 -60,-12 -86,-34 -46,-39 -83,-113 -92,-235 -9,-105 16,-210 64,-307 61,-122 159,-232 272,-314 114,-81 244,-135 367,-145 76,-6 149,4 215,33 5,-4 11,-8 17,-11 66,-39 180,-48 294,-31 113,17 228,61 295,128 10,10 19,21 27,32 209,-28 484,236 676,420 56,54 105,101 142,131 35,28 95,59 165,95 169,87 391,202 477,385 149,312 -60,415 -249,508 -115,56 -221,109 -214,204 3,33 -1,66 -11,99 -22,71 -69,138 -128,189 -60,51 -133,86 -204,92 -26,2 -53,0 -78,-7 -72,24 -204,-24 -333,-70 -118,-43 -233,-84 -274,-64 -56,26 -133,116 -214,209 -110,129 -227,263 -321,268 -235,32 -417,103 -556,186 -220,130 -330,289 -370,363 -6,11 -20,16 -32,10l0 0c-32,-16 -69,-42 -104,-77 -71,-72 -137,-183 -160,-331 -21,-146 0,-329 105,-544 87,-181 233,-385 461,-611 36,-36 35,-140 33,-249 -1,-133 -3,-273 64,-334zm-50 -158c1,24 5,104 114,130 8,2 16,9 18,18 3,12 -5,25 -18,28 -84,21 -82,172 -80,315 2,120 3,234 -47,284 -224,222 -367,422 -452,598 -100,205 -121,378 -100,516 20,137 81,239 146,304 24,24 49,44 72,57 50,-84 164,-235 376,-361 143,-85 331,-158 575,-191l0 0c0,0 1,0 2,0 73,-3 183,-131 288,-252 84,-97 164,-190 229,-221 59,-29 184,16 312,62 124,45 253,91 305,68 5,-2 11,-3 16,-1 23,7 46,9 69,7 61,-5 124,-36 176,-81 53,-45 95,-104 114,-166 8,-27 12,-55 9,-82 -10,-127 111,-186 241,-250 169,-83 355,-175 227,-445 -80,-168 -293,-278 -455,-362 -73,-38 -135,-70 -174,-101 -39,-31 -88,-79 -145,-133 -190,-182 -463,-445 -650,-405l0 0c-9,2 -20,-2 -25,-11 -8,-13 -18,-26 -29,-37 -60,-60 -164,-99 -268,-114 -104,-16 -206,-9 -262,24 -8,5 -15,10 -21,15 -7,7 -18,10 -28,5 -61,-31 -131,-41 -204,-35 -115,9 -236,59 -343,136 -107,77 -200,181 -257,297 -44,89 -67,185 -60,282 9,107 39,170 76,201 18,15 38,22 58,23 20,1 41,-4 61,-14 41,-22 75,-64 86,-115 2,-10 11,-19 22,-19 14,-1 25,9 26,23l0 3 0 0 0 0z"/>
   <path class="fil0" d="M5097 3436c115,733 459,921 654,964 76,137 14,523 -47,574 288,245 962,12 1103,-320 -237,-183 -280,-806 -293,-935 147,27 212,-474 -77,-434 -71,11 -85,49 -124,66 -359,-45 -585,-365 -651,-559 -270,98 -410,449 -334,642 -67,39 -185,11 -231,2z"/>
   <g style="clip-path:url(#id7)">
    <g id="_2049583004800">
     <path id="1" class="fil9" d="M5027 3505c115,733 459,922 654,964 76,138 14,523 -47,574 -222,282 504,637 805,540 301,-97 588,-444 455,-810 -376,21 -435,-832 -450,-984 147,26 212,-475 -77,-434 -71,10 -85,48 -124,65 -359,-45 -585,-365 -651,-558 -270,98 -410,448 -334,641 -67,40 -185,11 -231,2z"/>
    </g>
   </g>
   <path class="fil2" d="M5097 3436c115,733 459,921 654,964 76,137 14,523 -47,574 288,245 962,12 1103,-320 -237,-183 -280,-806 -293,-935 147,27 212,-474 -77,-434 -71,11 -85,49 -124,66 -359,-45 -585,-365 -651,-559 -270,98 -410,449 -334,642 -67,39 -185,11 -231,2z"/>
   <path class="fil4" d="M5124 3464c48,281 130,477 223,615 137,202 298,275 408,299 8,2 13,7 16,13 36,66 43,182 34,293 -10,119 -39,235 -70,286 23,18 49,32 76,44 134,57 311,49 480,-1 169,-50 329,-144 426,-258 26,-30 47,-62 63,-95 -219,-189 -269,-738 -285,-910l-3 -29c-1,-12 8,-23 20,-24 2,0 4,0 6,0 30,6 56,-23 75,-66 14,-35 23,-79 24,-123 1,-44 -7,-88 -24,-124 -25,-53 -74,-88 -152,-76 -41,5 -60,22 -79,36 -12,10 -23,20 -39,27 -4,2 -9,3 -13,2 -158,-20 -290,-91 -396,-182 -132,-114 -222,-258 -265,-370 -119,51 -210,154 -264,267 -55,116 -71,241 -38,331l2 7c4,10 0,21 -9,27l0 0c-62,37 -157,22 -216,11zm186 640c-100,-147 -187,-359 -235,-663 0,-3 0,-6 0,-9 3,-12 14,-20 26,-18l14 3 1 0c45,9 129,26 185,5 -31,-100 -14,-232 44,-353 59,-126 162,-240 298,-293 2,-1 6,-2 10,-4l2 -1c12,-4 25,2 29,14 36,108 124,257 259,372 98,85 221,151 367,171 8,-5 16,-11 24,-18 23,-19 48,-39 100,-47 103,-14 166,32 199,101 21,43 29,94 28,145 0,50 -10,99 -27,139 -22,51 -55,87 -95,94l0 4c16,171 67,724 282,890 8,6 11,17 7,27 -18,42 -44,83 -77,121 -103,121 -270,219 -447,272 -178,53 -367,60 -511,-1 -37,-16 -72,-37 -103,-63 -1,-1 -3,-2 -4,-4 -8,-9 -6,-23 3,-31 30,-25 60,-148 71,-276 8,-100 4,-202 -24,-261 -119,-29 -285,-108 -426,-316z"/>
   <path class="fil4" d="M3877 5725c-6,-12 -1,-27 10,-33 12,-6 27,-1 33,10 44,84 144,242 256,415 209,322 462,693 481,721 8,11 5,26 -5,33 -11,8 -26,6 -34,-5 -20,-28 -273,-400 -482,-723 -113,-174 -214,-334 -259,-418z"/>
   <path class="fil4" d="M5310 6507c1,-13 12,-23 25,-23 13,1 24,12 23,25 -4,101 -7,285 8,451 9,107 26,205 54,266 6,12 0,26 -12,32 -12,5 -26,0 -31,-12 -31,-67 -49,-171 -59,-282 -15,-167 -12,-354 -8,-457z"/>
   <path class="fil4" d="M6782 79c-5,-12 1,-26 14,-31 12,-4 26,2 31,15 45,123 5,203 -22,257 -7,14 -13,26 -16,35 -2,10 5,17 39,26 225,61 228,227 230,337 1,14 1,27 2,40 1,13 -9,24 -22,25 -14,1 -25,-9 -26,-22 -1,-12 -1,-27 -1,-43 -2,-95 -5,-239 -196,-290 -70,-19 -83,-46 -72,-85 4,-14 11,-28 19,-44 24,-47 58,-115 20,-220z"/>
   <path class="fil4" d="M6817 79c-12,-6 -17,-20 -11,-32 5,-12 19,-18 31,-12 6,2 11,5 17,9 60,35 122,110 161,192 41,83 59,174 29,237 -1,4 -3,8 -5,11 -7,12 -22,16 -33,9 -12,-7 -16,-21 -9,-33 1,-2 3,-4 4,-7 23,-49 6,-125 -29,-197 -35,-73 -90,-141 -142,-171 -4,-2 -8,-5 -13,-6z"/>
   <path class="fil4" d="M7027 56c-12,-4 -19,-18 -14,-30 4,-13 18,-19 31,-15 5,2 11,5 17,8 44,27 100,99 137,181 37,83 57,179 30,253 -3,10 -8,19 -13,29 -7,11 -22,15 -33,8 -11,-7 -15,-21 -8,-33 3,-6 7,-13 9,-20 22,-61 4,-144 -29,-217 -33,-74 -81,-138 -117,-159 -4,-2 -7,-4 -10,-5z"/>
   <path class="fil4" d="M7244 130c-10,-8 -12,-23 -4,-34 8,-10 23,-12 34,-4 36,28 84,95 112,175 21,60 30,129 16,195 -3,13 -15,22 -28,19 -13,-3 -22,-16 -19,-29 12,-57 4,-116 -15,-169 -24,-72 -65,-129 -96,-153z"/>
   <path class="fil4" d="M5513 3344c-6,-12 -1,-26 11,-32 11,-6 26,-1 32,10 32,62 55,115 72,160 19,50 30,92 34,126 2,13 -8,25 -21,26 -13,2 -25,-7 -26,-21 -4,-30 -14,-67 -31,-114 -17,-43 -40,-95 -71,-155z"/>
   <path class="fil4" d="M5968 3397c7,-12 22,-15 33,-8 11,7 15,21 8,33 -29,47 -69,75 -110,90 -60,22 -123,16 -153,6 -12,-4 -19,-18 -14,-31 4,-12 18,-19 30,-14 23,8 72,12 120,-6 32,-12 63,-33 86,-70z"/>
   <path class="fil4" d="M5446 3583c10,-9 25,-8 34,1 9,10 8,25 -1,34 -44,40 -78,63 -113,73 -35,11 -70,9 -115,1 -13,-2 -22,-15 -19,-28 2,-13 14,-22 27,-19 39,6 67,8 93,0 28,-8 56,-27 94,-62z"/>
   <path class="fil4" d="M5852 3151c13,2 22,14 21,27 -2,13 -13,23 -27,21 -22,-2 -43,-3 -64,-3 -20,1 -40,3 -59,6 -14,2 -26,-7 -28,-20 -2,-13 7,-25 20,-28 21,-3 43,-5 66,-6 23,0 47,1 71,3z"/>
   <path class="fil2 str0" d="M5751 4400c153,14 408,-92 543,-358"/>
   <path class="fil6" d="M4486 2155c26,-2 49,18 51,44 2,27 -18,50 -44,52 -70,5 -120,11 -151,21 -15,5 -22,8 -22,10 -4,31 9,160 26,279 14,92 29,174 41,192 24,38 88,11 134,-8 12,-5 23,-10 33,-13 25,-9 53,4 61,29 9,25 -4,52 -29,61 -8,3 -18,7 -28,11 -77,32 -184,77 -252,-28 -19,-30 -39,-127 -55,-230 -18,-126 -31,-266 -26,-305 5,-44 33,-72 88,-90 39,-12 95,-19 173,-25z"/>
   <path class="fil6" d="M4313 2567c-25,10 -53,-2 -63,-26 -10,-25 2,-53 27,-63 16,-6 73,-26 130,-45 44,-14 91,-29 121,-37 25,-7 52,8 59,33 7,26 -8,52 -34,59 -24,7 -70,21 -116,36 -56,19 -110,37 -124,43z"/>
   <path class="fil0" d="M5334 1195c8,66 -1,165 17,155 40,-22 145,-130 441,-262 51,-23 63,-45 -13,-77 -132,-54 -388,90 -445,184z"/>
   <g style="clip-path:url(#id8)">
    <g id="_2049583002624">
     <path id="1" class="fil7" d="M5362 1265c8,66 -1,164 17,154 40,-22 145,-130 441,-262 51,-23 63,-45 -13,-76 -132,-54 -388,89 -445,184z"/>
    </g>
   </g>
   <path class="fil2" d="M5334 1195c8,66 -1,165 17,155 40,-22 145,-130 441,-262 51,-23 63,-45 -13,-77 -132,-54 -388,90 -445,184z"/>
   <path class="fil4" d="M5359 1201c2,23 3,50 3,74 0,14 1,27 1,37l12 -9c60,-45 176,-134 407,-237 17,-7 28,-12 28,-13 0,-2 -12,-8 -40,-20 -53,-21 -131,-6 -206,25 -89,37 -173,96 -205,143zm-45 75c0,-25 -1,-54 -4,-78l0 0c0,-5 1,-10 4,-15 33,-56 129,-127 232,-169 85,-36 176,-52 242,-25 49,20 69,41 69,63 1,25 -21,42 -55,58 -226,101 -340,187 -398,231 -18,14 -31,24 -41,30 -17,10 -30,5 -39,-12 -8,-14 -9,-46 -10,-83z"/>
   <path class="fil4" d="M7809 5472c-5,19 -24,31 -43,26 -20,-4 -32,-23 -27,-43 17,-74 28,-181 26,-295 -3,-119 -20,-245 -59,-345 -36,-95 -91,-166 -171,-185 -17,-3 -34,-5 -51,-5 -19,1 -36,3 -52,8 -78,22 -129,94 -161,188 -34,101 -46,226 -43,344 2,116 18,225 39,300 6,19 -6,39 -25,44 -19,6 -39,-5 -44,-24 -23,-80 -40,-196 -42,-318 -3,-126 10,-260 47,-369 39,-115 105,-205 210,-235 21,-6 44,-9 69,-10 25,0 48,2 69,7 107,25 178,113 222,229 42,109 61,243 63,370 3,120 -8,233 -27,313z"/>
   <path class="fil4" d="M5455 5040c7,-19 27,-28 46,-22 18,7 28,27 22,46 -64,183 -54,660 -48,927 0,19 0,37 1,56 0,20 -16,36 -36,37 -19,0 -36,-16 -36,-36 0,-15 -1,-35 -1,-55 -6,-273 -16,-757 52,-953z"/>
   <path class="fil4" d="M7030 4210c-19,-6 -29,-27 -23,-45 6,-19 26,-30 45,-24 61,20 173,60 269,129 101,72 185,174 183,316 -1,20 -17,35 -37,35 -20,0 -35,-17 -35,-36 2,-113 -68,-196 -152,-256 -89,-63 -193,-101 -250,-119z"/>
   <ellipse class="fil0" cx="5440" cy="6044" rx="173" ry="171"/>
   <path class="fil4" d="M5440 5849c54,0 104,22 139,57 36,36 58,84 58,138 0,54 -22,103 -58,138 -35,35 -85,57 -139,57 -54,0 -103,-22 -139,-57 -35,-35 -57,-84 -57,-138 0,-54 22,-102 57,-138 36,-35 85,-57 139,-57zm105 91c-26,-26 -64,-43 -105,-43 -41,0 -78,17 -105,43 -27,27 -43,64 -43,104 0,41 16,77 43,104 27,26 64,43 105,43 41,0 79,-17 105,-43 27,-27 44,-63 44,-104 0,-40 -17,-77 -44,-104z"/>
   <path class="fil4" d="M5440 5938c30,0 56,12 76,31l0 0c19,19 31,46 31,75 0,29 -12,56 -31,75 -1,1 -1,1 -2,2 -19,18 -45,29 -74,29 -29,0 -56,-12 -75,-31l0 0c-20,-19 -32,-46 -32,-75 0,-29 12,-56 32,-75 0,0 1,-1 1,-1 20,-19 46,-30 74,-30zm42 65c-11,-10 -25,-17 -42,-17 -16,0 -30,6 -40,16l-1 1c-11,11 -18,25 -18,41 0,16 7,31 18,41l0 0 0 0c10,11 25,17 41,17 16,0 30,-6 41,-16l1 -1c10,-10 17,-25 17,-41 0,-16 -7,-30 -17,-41l0 0 0 0z"/>
   <ellipse class="fil3" cx="7286" cy="5475" rx="54" ry="95"/>
   <path class="fil4" d="M7286 5356c25,0 45,15 59,40 12,21 19,49 19,79 0,30 -7,58 -19,79 -14,24 -35,40 -59,40 -24,0 -45,-16 -59,-40 -11,-21 -18,-49 -18,-79 0,-30 7,-58 18,-79 14,-25 35,-40 59,-40zm18 64c-6,-10 -12,-16 -18,-16 -5,0 -11,6 -17,16 -8,13 -12,33 -12,55 0,22 4,41 12,55 6,10 12,16 17,16 6,0 12,-6 18,-16 7,-14 12,-33 12,-55 0,-22 -5,-42 -12,-55z"/>
   <ellipse class="fil3" cx="7720" cy="5463" rx="54" ry="95"/>
   <path class="fil4" d="M7720 5345c24,0 45,15 59,40 12,20 19,48 19,78 0,31 -7,59 -19,79 -14,25 -35,40 -59,40 -24,0 -45,-15 -59,-40 -12,-20 -19,-48 -19,-79 0,-30 7,-58 19,-78 14,-25 35,-40 59,-40zm17 63c-5,-9 -11,-15 -17,-15 -6,0 -12,6 -17,15 -8,14 -13,33 -13,55 0,23 5,42 13,56 5,9 11,15 17,15 6,0 12,-6 17,-15 8,-14 13,-33 13,-56 0,-22 -5,-41 -13,-55z"/>
   <path class="fil4" d="M6473 3401c11,-8 26,-5 34,6 7,10 5,25 -6,33 -8,6 -15,22 -20,40 -6,22 -9,46 -5,62 2,13 -6,25 -19,28 -13,3 -25,-5 -28,-18 -5,-23 -2,-56 6,-85 7,-28 21,-54 38,-66z"/>
   <path class="fil4" d="M6550 3533c2,13 -6,25 -19,28 -13,3 -26,-6 -28,-19 -4,-19 -11,-28 -17,-30 -1,0 -3,0 -4,0 -1,0 -2,0 -2,1 -2,1 -2,2 -2,4 3,13 -6,26 -19,28 -13,3 -25,-5 -28,-18 -5,-22 5,-42 21,-53 6,-5 14,-8 23,-9 8,-2 17,-1 25,2 21,6 42,26 50,66z"/>
   <path class="fil4" d="M5209 3880c-13,1 -25,-8 -26,-21 -2,-13 7,-25 21,-27 72,-9 164,-39 246,-89 67,-41 128,-95 165,-161 6,-11 20,-15 31,-9 74,33 184,12 296,-31 164,-63 331,-176 413,-250 10,-9 25,-8 34,2 9,9 8,25 -2,33 -84,78 -258,194 -428,260 -114,44 -228,65 -313,37 -42,65 -104,119 -171,160 -89,54 -188,86 -266,96z"/>
   <path class="fil4" d="M6494 3706c8,-11 23,-14 34,-7 11,8 14,23 6,34 -34,51 -66,104 -97,157 -75,128 -148,251 -266,348 0,3 0,7 -2,10 -5,12 -19,17 -31,12l-9 -4c-3,-2 -7,-4 -9,-8 -8,-10 -6,-25 4,-33 121,-94 195,-219 272,-350 31,-52 63,-106 98,-159z"/>
   <path class="fil3" d="M5206 3856c154,391 394,511 545,544 261,24 436,-131 630,-462 -159,-58 -278,-265 -228,-473 -173,102 -389,187 -517,129 -88,154 -293,245 -430,262z"/>
   <path class="fil4" d="M5240 3875c61,147 135,253 211,328 108,109 220,155 304,173 123,11 226,-20 321,-93 93,-72 180,-183 270,-334 -77,-36 -142,-104 -183,-189 -36,-74 -53,-161 -42,-249 -86,47 -179,87 -266,109 -77,19 -150,24 -209,4 -42,65 -104,119 -171,160 -77,47 -163,78 -235,91zm177 362c-84,-84 -167,-204 -233,-372l-11 -29 31 -4c72,-9 164,-39 246,-89 67,-41 128,-95 165,-161l11 -19 20 9c52,24 122,21 198,2 97,-25 203,-75 297,-130l49 -28 -13 54c-23,96 -9,190 29,269 40,84 107,149 183,176l27 10 -15 25c-98,168 -192,292 -296,371 -105,81 -219,116 -356,103l-3 0c-91,-20 -212,-70 -329,-187z"/>
   <path class="fil4" d="M5641 3958c-13,4 -26,-3 -30,-15 -5,-13 2,-27 15,-31 25,-8 45,-17 68,-30 23,-13 50,-32 88,-61 11,-8 26,-6 34,4 8,11 6,26 -5,34 -39,30 -68,50 -94,65 -26,15 -48,24 -76,34z"/>
   <path class="fil4" d="M5695 4079c-13,4 -26,-2 -30,-15 -4,-12 2,-26 15,-30 24,-8 56,-19 87,-35 30,-16 59,-37 81,-65 8,-10 23,-13 33,-5 11,8 13,23 5,34 -26,35 -61,60 -97,78 -34,18 -68,30 -94,38z"/>
  </g>
 </g>
</svg>
